<svg xmlns="http://www.w3.org/2000/svg" xmlns:xlink="http://www.w3.org/1999/xlink" width="702.565" height="64.313" viewBox="0 0 702.565 64.313">
  <defs>
    <clipPath id="clip-path">
      <path id="Path_2507" data-name="Path 2507" d="M-210.382-197.594l-6.388-9.8a7.713,7.713,0,0,0,7.212,3.646,8.027,8.027,0,0,0,6.937-4.017q2.425-3.877,2.4-11.011l6.388,9.8q.014,7.134-2.4,11.011a8.027,8.027,0,0,1-6.938,4.017A7.714,7.714,0,0,1-210.382-197.594Z" transform="translate(216.77 218.772)" fill="#841e45" stroke="#000" stroke-linejoin="round" stroke-width="0.5"/>
    </clipPath>
    <clipPath id="clip-path-2">
      <path id="Path_2512" data-name="Path 2512" d="M-203.341-231.327l6.389,9.8q2.418,3.708,2.475,10.885l-6.389-9.8Q-200.923-227.622-203.341-231.327Z" transform="translate(203.341 231.327)" fill="#841e45" stroke="#000" stroke-linejoin="round" stroke-width="0.5"/>
    </clipPath>
    <clipPath id="clip-path-3">
      <path id="Path_2516" data-name="Path 2516" d="M-220.362-193.57l-6.389-9.8q-.547-.839-1.028-1.754a27.31,27.31,0,0,1-2.976-12.187l6.389,9.8a27.3,27.3,0,0,0,2.976,12.187Q-220.907-194.408-220.362-193.57Z" transform="translate(230.755 217.306)" fill="#841e45" stroke="#000" stroke-linejoin="round" stroke-width="0.5"/>
    </clipPath>
    <clipPath id="clip-path-4">
      <path id="Path_2531" data-name="Path 2531" d="M-191.437-234.829l6.389,9.8a19.064,19.064,0,0,0-6.606-6.25,21.1,21.1,0,0,0-11.254-2.614,21.959,21.959,0,0,0-11.319,3.347,20.34,20.34,0,0,0-7.584,8.728,29.1,29.1,0,0,0-2.575,12.785l-6.389-9.8a29.1,29.1,0,0,1,2.575-12.783,20.34,20.34,0,0,1,7.584-8.728,21.949,21.949,0,0,1,11.319-3.347,21.1,21.1,0,0,1,11.254,2.614A19.064,19.064,0,0,1-191.437-234.829Z" transform="translate(230.776 243.706)" fill="#841e45" stroke="#000" stroke-linejoin="round" stroke-width="0.5"/>
    </clipPath>
    <clipPath id="clip-path-5">
      <path id="Path_2546" data-name="Path 2546" d="M-254.349-195.9l-6.389-9.8q2.038,3.123,6.774,2.978a9.438,9.438,0,0,0,6.278-2.109c1.439-1.321,2.191-3.379,2.262-6.158l6.389,9.8c-.072,2.778-.823,4.837-2.262,6.159a9.438,9.438,0,0,1-6.278,2.108Q-252.315-192.773-254.349-195.9Z" transform="translate(260.738 210.982)" fill="#841e45" stroke="#000" stroke-linejoin="round" stroke-width="0.5"/>
    </clipPath>
    <clipPath id="clip-path-6">
      <path id="Path_2550" data-name="Path 2550" d="M-247.456-230.774l6.389,9.8a10.3,10.3,0,0,1,1.365,5.241l-6.389-9.8A10.294,10.294,0,0,0-247.456-230.774Z" transform="translate(247.456 230.774)" fill="#841e45" stroke="#000" stroke-linejoin="round" stroke-width="0.5"/>
    </clipPath>
    <clipPath id="clip-path-7">
      <path id="Path_2554" data-name="Path 2554" d="M-264.181-191.659l-6.389-9.8q-3.778-5.793-3.85-15.153l6.388,9.8Q-267.959-197.451-264.181-191.659Z" transform="translate(274.421 216.607)" fill="#841e45" stroke="#000" stroke-linejoin="round" stroke-width="0.5"/>
    </clipPath>
    <clipPath id="clip-path-8">
      <path id="Path_2564" data-name="Path 2564" d="M-236.816-234.369l6.389,9.8a16.434,16.434,0,0,0-3.36-3.738q-5.506-4.521-14.531-4.243l-6.388-9.8q9.018-.276,14.531,4.244A16.454,16.454,0,0,1-236.816-234.369Z" transform="translate(254.706 242.367)" fill="#841e45" stroke="#000" stroke-linejoin="round" stroke-width="0.5"/>
    </clipPath>
    <clipPath id="clip-path-9">
      <path id="Path_2573" data-name="Path 2573" d="M-268.051-208.028l-6.388-9.8A29.7,29.7,0,0,1-272-230.5a19.621,19.621,0,0,1,7.229-8.569,20.88,20.88,0,0,1,10.993-3.282l6.388,9.8a20.87,20.87,0,0,0-10.992,3.281,19.63,19.63,0,0,0-7.23,8.569A29.735,29.735,0,0,0-268.051-208.028Z" transform="translate(274.44 242.352)" fill="#841e45" stroke="#000" stroke-linejoin="round" stroke-width="0.5"/>
    </clipPath>
    <clipPath id="clip-path-10">
      <path id="Path_2605" data-name="Path 2605" d="M-13.224-203.667l-6.389-9.8a7.707,7.707,0,0,0,7.2,3.645,8.041,8.041,0,0,0,6.947-4.017q2.41-3.877,2.393-11.011l6.389,9.8q.027,7.134-2.394,11.011a8.035,8.035,0,0,1-6.946,4.017A7.706,7.706,0,0,1-13.224-203.667Z" transform="translate(19.613 224.845)" fill="#841e45" stroke="#000" stroke-linejoin="round" stroke-width="0.5"/>
    </clipPath>
    <clipPath id="clip-path-11">
      <path id="Path_2610" data-name="Path 2610" d="M-6.2-237.42l6.389,9.8q2.42,3.711,2.48,10.907l-6.389-9.8Q-3.774-233.714-6.2-237.42Z" transform="translate(6.198 237.42)" fill="#841e45" stroke="#000" stroke-linejoin="round" stroke-width="0.5"/>
    </clipPath>
    <clipPath id="clip-path-12">
      <path id="Path_2614" data-name="Path 2614" d="M-23.219-199.652l-6.389-9.8q-.543-.834-1.023-1.743A27.311,27.311,0,0,1-33.6-223.379l6.389,9.8A27.3,27.3,0,0,0-24.242-201.4Q-23.763-200.486-23.219-199.652Z" transform="translate(33.598 223.379)" fill="#841e45" stroke="#000" stroke-linejoin="round" stroke-width="0.5"/>
    </clipPath>
    <clipPath id="clip-path-13">
      <path id="Path_2629" data-name="Path 2629" d="M5.705-240.913l6.388,9.8a18.962,18.962,0,0,0-6.6-6.239,21.065,21.065,0,0,0-11.245-2.615,21.945,21.945,0,0,0-11.32,3.347,20.433,20.433,0,0,0-7.592,8.728,29.246,29.246,0,0,0-2.567,12.785l-6.388-9.8a29.231,29.231,0,0,1,2.566-12.785,20.429,20.429,0,0,1,7.593-8.728,21.932,21.932,0,0,1,11.319-3.347A21.071,21.071,0,0,1-.894-247.151,18.977,18.977,0,0,1,5.705-240.913Z" transform="translate(33.619 249.779)" fill="#841e45" stroke="#000" stroke-linejoin="round" stroke-width="0.5"/>
    </clipPath>
    <clipPath id="clip-path-14">
      <path id="Path_2658" data-name="Path 2658" d="M193.374-210.031l-6.389-9.8a7.723,7.723,0,0,0,7.212,3.645,8.048,8.048,0,0,0,6.946-4.017q2.412-3.877,2.393-11.011l6.389,9.8q.027,7.134-2.393,11.011a8.048,8.048,0,0,1-6.946,4.017A7.722,7.722,0,0,1,193.374-210.031Z" transform="translate(-186.985 231.209)" fill="#841e45" stroke="#000" stroke-linejoin="round" stroke-width="0.5"/>
    </clipPath>
    <clipPath id="clip-path-15">
      <path id="Path_2663" data-name="Path 2663" d="M200.414-243.763l6.389,9.8q2.42,3.709,2.475,10.885l-6.389-9.8Q202.834-240.059,200.414-243.763Z" transform="translate(-200.414 243.763)" fill="#841e45" stroke="#000" stroke-linejoin="round" stroke-width="0.5"/>
    </clipPath>
    <clipPath id="clip-path-16">
      <path id="Path_2667" data-name="Path 2667" d="M183.393-206.007,177-215.8q-.546-.839-1.028-1.752a27.311,27.311,0,0,1-2.967-12.188l6.389,9.8a27.311,27.311,0,0,0,2.967,12.188Q182.847-206.846,183.393-206.007Z" transform="translate(-173.009 229.743)" fill="#841e45" stroke="#000" stroke-linejoin="round" stroke-width="0.5"/>
    </clipPath>
    <clipPath id="clip-path-17">
      <path id="Path_2682" data-name="Path 2682" d="M212.312-247.276l6.389,9.8a18.98,18.98,0,0,0-6.6-6.239,21.09,21.09,0,0,0-11.246-2.615,21.942,21.942,0,0,0-11.319,3.347,20.379,20.379,0,0,0-7.593,8.728,29.231,29.231,0,0,0-2.566,12.785l-6.389-9.8a29.231,29.231,0,0,1,2.566-12.785,20.373,20.373,0,0,1,7.593-8.728,21.933,21.933,0,0,1,11.32-3.347,21.086,21.086,0,0,1,11.245,2.615A18.972,18.972,0,0,1,212.312-247.276Z" transform="translate(-172.988 256.143)" fill="#841e45" stroke="#000" stroke-linejoin="round" stroke-width="0.5"/>
    </clipPath>
    <clipPath id="clip-path-18">
      <path id="Path_2694" data-name="Path 2694" d="M122.288-221l-6.388-9.8a7.545,7.545,0,0,0,5.27-1.875l6.389,9.8A7.55,7.55,0,0,1,122.288-221Z" transform="translate(-115.9 232.674)" fill="#841e45" stroke="#000" stroke-linejoin="round" stroke-width="0.5"/>
    </clipPath>
    <clipPath id="clip-path-19">
      <path id="Path_2699" data-name="Path 2699" d="M121.511-241.689l6.389,9.8a8.268,8.268,0,0,1,1.209,4.535,6.475,6.475,0,0,1-1.786,4.9l-6.389-9.8a6.473,6.473,0,0,0,1.786-4.9A8.267,8.267,0,0,0,121.511-241.689Z" transform="translate(-120.934 241.689)" fill="#841e45" stroke="#000" stroke-linejoin="round" stroke-width="0.5"/>
    </clipPath>
    <clipPath id="clip-path-20">
      <path id="Path_2708" data-name="Path 2708" d="M122.116-243.294l-6.389-9.8a22.843,22.843,0,0,1,10.069,1.763,15.164,15.164,0,0,1,6.807,5.675l6.389,9.8a15.164,15.164,0,0,0-6.807-5.675A22.848,22.848,0,0,0,122.116-243.294Z" transform="translate(-115.727 253.104)" fill="#841e45" stroke="#000" stroke-linejoin="round" stroke-width="0.5"/>
    </clipPath>
  </defs>
  <g id="Group_2489" data-name="Group 2489" transform="matrix(0.999, 0.035, -0.035, 0.999, 399.035, 251.135)">
    <g id="Group_2358" data-name="Group 2358" transform="translate(-131.5 -206.96)">
      <path id="Path_2488" data-name="Path 2488" d="M-137.28-187.981l-6.389-9.8-.089-11.444,6.389,9.8Z" transform="translate(143.758 209.22)" fill="#841e45" stroke="#000" stroke-linejoin="round" stroke-width="0.5"/>
    </g>
    <g id="Group_2359" data-name="Group 2359" transform="translate(-131.5 -230.41)">
      <path id="Path_2489" data-name="Path 2489" d="M-137.369-198.374l-6.389-9.8.978-23.45,6.389,9.8Z" transform="translate(143.758 231.62)" fill="#841e45" stroke="#000" stroke-linejoin="round" stroke-width="0.5"/>
    </g>
    <g id="Group_2360" data-name="Group 2360" transform="translate(-146.283 -244.394)">
      <path id="Path_2490" data-name="Path 2490" d="M-151.49-200.753l-6.389-9.8,10.751-34.429,6.389,9.8Z" transform="translate(157.879 244.979)" fill="#841e45" stroke="#000" stroke-linejoin="round" stroke-width="0.5"/>
    </g>
    <g id="Group_2361" data-name="Group 2361" transform="translate(-135.532 -244.878)">
      <path id="Path_2491" data-name="Path 2491" d="M-141.221-235.161l-6.389-9.8,15.719-.484,6.389,9.8Z" transform="translate(147.61 245.441)" fill="#af2050" stroke="#000" stroke-linejoin="round" stroke-width="0.5"/>
    </g>
    <g id="Group_2362" data-name="Group 2362" transform="translate(-162.392 -229.465)">
      <path id="Path_2492" data-name="Path 2492" d="M-154.6-186.4l-6.389-9.8-12.278-34.525,6.389,9.8Z" transform="translate(173.267 230.718)" fill="#841e45" stroke="#000" stroke-linejoin="round" stroke-width="0.5"/>
    </g>
    <g id="Group_2363" data-name="Group 2363" transform="translate(-173.284 -243.231)">
      <path id="Path_2493" data-name="Path 2493" d="M-176.9-185.079l-6.389-9.8-.381-48.993,6.389,9.8Z" transform="translate(183.671 243.868)" fill="#841e45" stroke="#000" stroke-linejoin="round" stroke-width="0.5"/>
    </g>
    <g id="Group_2364" data-name="Group 2364" transform="translate(-173.284 -243.714)">
      <path id="Path_2494" data-name="Path 2494" d="M-177.282-234.05l-6.389-9.8,15.682-.483,6.389,9.8Z" transform="translate(183.671 244.329)" fill="#af2050" stroke="#000" stroke-linejoin="round" stroke-width="0.5"/>
    </g>
    <g id="Group_2367" data-name="Group 2367" transform="translate(-207.935 -216.959)">
      <path id="Path_2495" data-name="Path 2495" d="M-210.382-197.594l-6.388-9.8a7.713,7.713,0,0,0,7.212,3.646,8.027,8.027,0,0,0,6.937-4.017q2.425-3.877,2.4-11.011l6.388,9.8q.014,7.134-2.4,11.011a8.027,8.027,0,0,1-6.938,4.017A7.714,7.714,0,0,1-210.382-197.594Z" transform="translate(216.77 218.772)" fill="#841e45"/>
      <g id="Group_2366" data-name="Group 2366" clip-path="url(#clip-path)">
        <g id="Group_2365" data-name="Group 2365" style="isolation: isolate">
          <path id="Path_2496" data-name="Path 2496" d="M-210.382-198.1l-6.388-9.8c.147.229.3.447.46.654l6.389,9.8q-.239-.311-.461-.653" transform="translate(216.77 219.282)" fill="#841e45" stroke="#000" stroke-linejoin="round" stroke-width="0.5"/>
          <path id="Path_2497" data-name="Path 2497" d="M-209.942-197.479l-6.389-9.8a7.878,7.878,0,0,0,1.438,1.447l6.388,9.8a7.875,7.875,0,0,1-1.437-1.447" transform="translate(216.791 219.311)" fill="#841e45" stroke="#000" stroke-linejoin="round" stroke-width="0.5"/>
          <path id="Path_2498" data-name="Path 2498" d="M-208.569-196.1l-6.388-9.8a7.1,7.1,0,0,0,1.636.941l6.389,9.8a7.129,7.129,0,0,1-1.637-.941" transform="translate(216.855 219.376)" fill="#841e45" stroke="#000" stroke-linejoin="round" stroke-width="0.5"/>
          <path id="Path_2499" data-name="Path 2499" d="M-207-195.2l-6.389-9.8a7.966,7.966,0,0,0,1.968.52l6.389,9.8A7.953,7.953,0,0,1-207-195.2" transform="translate(216.928 219.418)" fill="#841e45" stroke="#000" stroke-linejoin="round" stroke-width="0.5"/>
          <path id="Path_2500" data-name="Path 2500" d="M-205.125-194.7l-6.389-9.8a10.085,10.085,0,0,0,1.562.087l6.388,9.8a10.072,10.072,0,0,1-1.561-.087" transform="translate(217.016 219.441)" fill="#841e45" stroke="#000" stroke-linejoin="round" stroke-width="0.5"/>
          <path id="Path_2501" data-name="Path 2501" d="M-203.634-194.614l-6.388-9.8.148,0a9.967,9.967,0,0,0,1.153-.1l6.389,9.8a9.974,9.974,0,0,1-1.154.1c-.049,0-.1,0-.148,0" transform="translate(217.086 219.44)" fill="#841e45" stroke="#000" stroke-linejoin="round" stroke-width="0.5"/>
          <path id="Path_2502" data-name="Path 2502" d="M-202.391-194.709l-6.389-9.8a8.544,8.544,0,0,0,1.03-.217l6.389,9.8a8.554,8.554,0,0,1-1.03.217" transform="translate(217.145 219.431)" fill="#841e45" stroke="#000" stroke-linejoin="round" stroke-width="0.5"/>
          <path id="Path_2503" data-name="Path 2503" d="M-201.407-194.911l-6.389-9.8a8.087,8.087,0,0,0,.91-.311l6.389,9.8a8.159,8.159,0,0,1-.91.311" transform="translate(217.191 219.417)" fill="#841e45" stroke="#000" stroke-linejoin="round" stroke-width="0.5"/>
          <path id="Path_2504" data-name="Path 2504" d="M-200.538-195.2l-6.389-9.8a7.682,7.682,0,0,0,.884-.434l6.389,9.8a7.762,7.762,0,0,1-.884.434" transform="translate(217.231 219.397)" fill="#841e45" stroke="#000" stroke-linejoin="round" stroke-width="0.5"/>
          <path id="Path_2505" data-name="Path 2505" d="M-199.694-195.607l-6.389-9.8a7.536,7.536,0,0,0,.981-.672l6.389,9.8a7.6,7.6,0,0,1-.981.672" transform="translate(217.271 219.367)" fill="#841e45" stroke="#000" stroke-linejoin="round" stroke-width="0.5"/>
          <path id="Path_2506" data-name="Path 2506" d="M-198.757-195.684l-6.389-9.8a8.973,8.973,0,0,0,1.98-2.281q2.425-3.877,2.4-11.011l6.388,9.8q.014,7.134-2.4,11.011a8.993,8.993,0,0,1-1.98,2.281" transform="translate(217.315 218.772)" fill="#841e45" stroke="#000" stroke-linejoin="round" stroke-width="0.5"/>
        </g>
      </g>
      <path id="Path_2508" data-name="Path 2508" d="M-210.382-197.594l-6.388-9.8a7.713,7.713,0,0,0,7.212,3.646,8.027,8.027,0,0,0,6.937-4.017q2.425-3.877,2.4-11.011l6.388,9.8q.014,7.134-2.4,11.011a8.027,8.027,0,0,1-6.938,4.017A7.714,7.714,0,0,1-210.382-197.594Z" transform="translate(216.77 218.772)" fill="none" stroke="#000" stroke-linejoin="round" stroke-width="0.5"/>
    </g>
    <g id="Group_2368" data-name="Group 2368" transform="translate(-191.402 -219.216)">
      <path id="Path_2509" data-name="Path 2509" d="M-194.571-208.875l-6.389-9.8-.018-2.257,6.389,9.8Z" transform="translate(200.977 220.928)" fill="#841e45" stroke="#000" stroke-linejoin="round" stroke-width="0.5"/>
    </g>
    <g id="Group_2371" data-name="Group 2371" transform="translate(-193.876 -230.103)">
      <path id="Path_2510" data-name="Path 2510" d="M-203.341-231.327l6.389,9.8q2.418,3.708,2.475,10.885l-6.389-9.8Q-200.923-227.622-203.341-231.327Z" transform="translate(203.341 231.327)" fill="#841e45"/>
      <g id="Group_2370" data-name="Group 2370" clip-path="url(#clip-path-2)">
        <g id="Group_2369" data-name="Group 2369" style="isolation: isolate">
          <path id="Path_2511" data-name="Path 2511" d="M-194.477-210.645l-6.389-9.8q-.057-7.181-2.475-10.887l6.389,9.8q2.418,3.708,2.475,10.885" transform="translate(203.341 231.327)" fill="#841e45" stroke="#000" stroke-linejoin="round" stroke-width="0.5"/>
        </g>
      </g>
      <path id="Path_2513" data-name="Path 2513" d="M-203.341-231.327l6.389,9.8q2.418,3.708,2.475,10.885l-6.389-9.8Q-200.923-227.622-203.341-231.327Z" transform="translate(203.341 231.327)" fill="none" stroke="#000" stroke-linejoin="round" stroke-width="0.5"/>
    </g>
    <g id="Group_2374" data-name="Group 2374" transform="translate(-222.575 -215.424)">
      <path id="Path_2514" data-name="Path 2514" d="M-220.362-193.57l-6.389-9.8q-.547-.839-1.028-1.754a27.31,27.31,0,0,1-2.976-12.187l6.389,9.8a27.3,27.3,0,0,0,2.976,12.187Q-220.907-194.408-220.362-193.57Z" transform="translate(230.755 217.306)" fill="#841e45"/>
      <g id="Group_2373" data-name="Group 2373" clip-path="url(#clip-path-3)">
        <g id="Group_2372" data-name="Group 2372" style="isolation: isolate">
          <path id="Path_2515" data-name="Path 2515" d="M-220.362-193.57l-6.389-9.8q-.547-.839-1.028-1.754a27.31,27.31,0,0,1-2.976-12.187l6.389,9.8a27.3,27.3,0,0,0,2.976,12.187q.482.915,1.028,1.754" transform="translate(230.755 217.306)" fill="#841e45" stroke="#000" stroke-linejoin="round" stroke-width="0.5"/>
        </g>
      </g>
      <path id="Path_2517" data-name="Path 2517" d="M-220.362-193.57l-6.389-9.8q-.547-.839-1.028-1.754a27.31,27.31,0,0,1-2.976-12.187l6.389,9.8a27.3,27.3,0,0,0,2.976,12.187Q-220.907-194.408-220.362-193.57Z" transform="translate(230.755 217.306)" fill="none" stroke="#000" stroke-linejoin="round" stroke-width="0.5"/>
    </g>
    <g id="Group_2375" data-name="Group 2375" transform="translate(-222.597 -218.191)">
      <path id="Path_2518" data-name="Path 2518" d="M-224.365-207.387l-6.389-9.8-.022-2.766,6.389,9.8Z" transform="translate(230.775 219.949)" fill="#841e45" stroke="#000" stroke-linejoin="round" stroke-width="0.5"/>
    </g>
    <g id="Group_2378" data-name="Group 2378" transform="translate(-222.598 -243.062)">
      <path id="Path_2519" data-name="Path 2519" d="M-191.437-234.829l6.389,9.8a19.064,19.064,0,0,0-6.606-6.25,21.1,21.1,0,0,0-11.254-2.614,21.959,21.959,0,0,0-11.319,3.347,20.34,20.34,0,0,0-7.584,8.728,29.1,29.1,0,0,0-2.575,12.785l-6.389-9.8a29.1,29.1,0,0,1,2.575-12.783,20.34,20.34,0,0,1,7.584-8.728,21.949,21.949,0,0,1,11.319-3.347,21.1,21.1,0,0,1,11.254,2.614A19.064,19.064,0,0,1-191.437-234.829Z" transform="translate(230.776 243.706)" fill="#841e45"/>
      <g id="Group_2377" data-name="Group 2377" clip-path="url(#clip-path-4)">
        <g id="Group_2376" data-name="Group 2376" transform="translate(0 0)" style="isolation: isolate">
          <path id="Path_2520" data-name="Path 2520" d="M-224.386-209.248l-6.389-9.8a29.1,29.1,0,0,1,2.575-12.783,20.6,20.6,0,0,1,5.73-7.4l6.389,9.8a20.6,20.6,0,0,0-5.73,7.4,29.1,29.1,0,0,0-2.575,12.785" transform="translate(230.776 243.916)" fill="#841e45" stroke="#000" stroke-linejoin="round" stroke-width="0.5"/>
          <path id="Path_2521" data-name="Path 2521" d="M-216.453-229.352l-6.389-9.8a20.42,20.42,0,0,1,1.854-1.327q.4-.251.8-.485l6.389,9.8q-.405.232-.8.485a20.413,20.413,0,0,0-1.854,1.327" transform="translate(231.148 243.835)" fill="#841e45" stroke="#000" stroke-linejoin="round" stroke-width="0.5"/>
          <path id="Path_2522" data-name="Path 2522" d="M-213.918-231.111l-6.389-9.8a20.782,20.782,0,0,1,2.438-1.2l6.388,9.8a20.843,20.843,0,0,0-2.437,1.2" transform="translate(231.267 243.781)" fill="#841e45" stroke="#000" stroke-linejoin="round" stroke-width="0.5"/>
          <path id="Path_2523" data-name="Path 2523" d="M-211.59-232.27l-6.388-9.8a21.2,21.2,0,0,1,2.444-.838l6.388,9.8a21.275,21.275,0,0,0-2.444.838" transform="translate(231.376 243.744)" fill="#841e45" stroke="#000" stroke-linejoin="round" stroke-width="0.5"/>
          <path id="Path_2524" data-name="Path 2524" d="M-209.255-233.082l-6.388-9.8a22.872,22.872,0,0,1,2.694-.568l6.389,9.8a22.937,22.937,0,0,0-2.695.568" transform="translate(231.486 243.718)" fill="#841e45" stroke="#000" stroke-linejoin="round" stroke-width="0.5"/>
          <path id="Path_2525" data-name="Path 2525" d="M-206.681-233.638l-6.389-9.8a25.1,25.1,0,0,1,2.943-.26l.336-.008,6.389,9.8-.336.008a25.3,25.3,0,0,0-2.943.26" transform="translate(231.606 243.706)" fill="#841e45" stroke="#000" stroke-linejoin="round" stroke-width="0.5"/>
          <path id="Path_2526" data-name="Path 2526" d="M-203.549-233.906l-6.389-9.8a23.827,23.827,0,0,1,3.675.208l6.389,9.8a23.957,23.957,0,0,0-3.675-.208" transform="translate(231.753 243.706)" fill="#841e45" stroke="#000" stroke-linejoin="round" stroke-width="0.5"/>
          <path id="Path_2527" data-name="Path 2527" d="M-200.039-233.707l-6.389-9.8a20.474,20.474,0,0,1,5,1.327l6.389,9.8a20.472,20.472,0,0,0-5-1.327" transform="translate(231.918 243.716)" fill="#841e45" stroke="#000" stroke-linejoin="round" stroke-width="0.5"/>
          <path id="Path_2528" data-name="Path 2528" d="M-195.261-232.439l-6.389-9.8a19.644,19.644,0,0,1,2.241,1.087,19.283,19.283,0,0,1,2.216,1.472l6.389,9.8a19.285,19.285,0,0,0-2.216-1.472,19.646,19.646,0,0,0-2.241-1.087" transform="translate(232.142 243.775)" fill="#841e45" stroke="#000" stroke-linejoin="round" stroke-width="0.5"/>
          <path id="Path_2529" data-name="Path 2529" d="M-191-230l-6.389-9.8a18.976,18.976,0,0,1,3.456,3.461l6.389,9.8A19.011,19.011,0,0,0-191-230" transform="translate(232.341 243.89)" fill="#841e45" stroke="#000" stroke-linejoin="round" stroke-width="0.5"/>
          <path id="Path_2530" data-name="Path 2530" d="M-187.7-226.689l-6.389-9.8q.488.633.934,1.317l6.389,9.8q-.446-.683-.934-1.317" transform="translate(232.496 244.045)" fill="#841e45" stroke="#000" stroke-linejoin="round" stroke-width="0.5"/>
        </g>
      </g>
      <path id="Path_2532" data-name="Path 2532" d="M-191.437-234.829l6.389,9.8a19.064,19.064,0,0,0-6.606-6.25,21.1,21.1,0,0,0-11.254-2.614,21.959,21.959,0,0,0-11.319,3.347,20.34,20.34,0,0,0-7.584,8.728,29.1,29.1,0,0,0-2.575,12.785l-6.389-9.8a29.1,29.1,0,0,1,2.575-12.783,20.34,20.34,0,0,1,7.584-8.728,21.949,21.949,0,0,1,11.319-3.347,21.1,21.1,0,0,1,11.254,2.614A19.064,19.064,0,0,1-191.437-234.829Z" transform="translate(230.776 243.706)" fill="none" stroke="#000" stroke-linejoin="round" stroke-width="0.5"/>
    </g>
    <g id="Group_2379" data-name="Group 2379" transform="translate(-238.649 -209.17)">
      <path id="Path_2533" data-name="Path 2533" d="M-239.72-201.17l-6.389-9.8,11.876-.366,6.389,9.8Z" transform="translate(246.109 211.332)" fill="#af2050" stroke="#000" stroke-linejoin="round" stroke-width="0.5"/>
    </g>
    <g id="Group_2382" data-name="Group 2382" transform="translate(-253.964 -208.804)">
      <path id="Path_2534" data-name="Path 2534" d="M-254.349-195.9l-6.389-9.8q2.038,3.123,6.774,2.978a9.438,9.438,0,0,0,6.278-2.109c1.439-1.321,2.191-3.379,2.262-6.158l6.389,9.8c-.072,2.778-.823,4.837-2.262,6.159a9.438,9.438,0,0,1-6.278,2.108Q-252.315-192.773-254.349-195.9Z" transform="translate(260.738 210.982)" fill="#841e45"/>
      <g id="Group_2381" data-name="Group 2381" clip-path="url(#clip-path-5)">
        <g id="Group_2380" data-name="Group 2380" style="isolation: isolate">
          <path id="Path_2535" data-name="Path 2535" d="M-254.349-196.134l-6.389-9.8q.146.223.3.429l6.389,9.8q-.159-.206-.3-.429" transform="translate(260.738 211.219)" fill="#841e45" stroke="#000" stroke-linejoin="round" stroke-width="0.5"/>
          <path id="Path_2536" data-name="Path 2536" d="M-254.058-195.724l-6.389-9.8a6.107,6.107,0,0,0,1.117,1.118l6.389,9.8a6.1,6.1,0,0,1-1.117-1.118" transform="translate(260.752 211.238)" fill="#841e45" stroke="#000" stroke-linejoin="round" stroke-width="0.5"/>
          <path id="Path_2537" data-name="Path 2537" d="M-252.991-194.656l-6.389-9.8a6.238,6.238,0,0,0,1.443.824l6.389,9.8a6.235,6.235,0,0,1-1.443-.824" transform="translate(260.802 211.288)" fill="#841e45" stroke="#000" stroke-linejoin="round" stroke-width="0.5"/>
          <path id="Path_2538" data-name="Path 2538" d="M-251.613-193.869l-6.389-9.8a7.972,7.972,0,0,0,1.973.515l6.389,9.8a7.958,7.958,0,0,1-1.973-.515" transform="translate(260.866 211.325)" fill="#841e45" stroke="#000" stroke-linejoin="round" stroke-width="0.5"/>
          <path id="Path_2539" data-name="Path 2539" d="M-249.728-193.377l-6.389-9.8a11.458,11.458,0,0,0,1.762.1l6.389,9.8a11.459,11.459,0,0,1-1.762-.1" transform="translate(260.955 211.348)" fill="#841e45" stroke="#000" stroke-linejoin="round" stroke-width="0.5"/>
          <path id="Path_2540" data-name="Path 2540" d="M-248.045-193.278l-6.389-9.8.175,0a15.286,15.286,0,0,0,1.763-.153l6.389,9.8a15.065,15.065,0,0,1-1.763.153l-.175,0" transform="translate(261.034 211.345)" fill="#841e45" stroke="#000" stroke-linejoin="round" stroke-width="0.5"/>
          <path id="Path_2541" data-name="Path 2541" d="M-246.194-193.423l-6.389-9.8a11.473,11.473,0,0,0,1.361-.285l6.389,9.8a11.475,11.475,0,0,1-1.361.285" transform="translate(261.12 211.333)" fill="#841e45" stroke="#000" stroke-linejoin="round" stroke-width="0.5"/>
          <path id="Path_2542" data-name="Path 2542" d="M-244.894-193.691l-6.389-9.8a9.329,9.329,0,0,0,1.056-.359l6.389,9.8a9.125,9.125,0,0,1-1.056.359" transform="translate(261.181 211.317)" fill="#841e45" stroke="#000" stroke-linejoin="round" stroke-width="0.5"/>
          <path id="Path_2543" data-name="Path 2543" d="M-243.885-194.03l-6.389-9.8a7.75,7.75,0,0,0,.907-.444l6.388,9.8a7.654,7.654,0,0,1-.906.444" transform="translate(261.229 211.297)" fill="#841e45" stroke="#000" stroke-linejoin="round" stroke-width="0.5"/>
          <path id="Path_2544" data-name="Path 2544" d="M-243.02-194.447l-6.388-9.8a6.789,6.789,0,0,0,.88-.6l6.389,9.8a6.732,6.732,0,0,1-.881.6" transform="translate(261.269 211.27)" fill="#841e45" stroke="#000" stroke-linejoin="round" stroke-width="0.5"/>
          <path id="Path_2545" data-name="Path 2545" d="M-242.178-194.761l-6.389-9.8c.107-.086.21-.176.311-.268,1.439-1.321,2.191-3.379,2.262-6.158l6.389,9.8c-.072,2.778-.823,4.837-2.262,6.159q-.151.138-.311.267" transform="translate(261.309 210.982)" fill="#841e45" stroke="#000" stroke-linejoin="round" stroke-width="0.5"/>
        </g>
      </g>
      <path id="Path_2547" data-name="Path 2547" d="M-254.349-195.9l-6.389-9.8q2.038,3.123,6.774,2.978a9.438,9.438,0,0,0,6.278-2.109c1.439-1.321,2.191-3.379,2.262-6.158l6.389,9.8c-.072,2.778-.823,4.837-2.262,6.159a9.438,9.438,0,0,1-6.278,2.108Q-252.315-192.773-254.349-195.9Z" transform="translate(260.738 210.982)" fill="none" stroke="#000" stroke-linejoin="round" stroke-width="0.5"/>
    </g>
    <g id="Group_2385" data-name="Group 2385" transform="translate(-240.059 -229.524)">
      <path id="Path_2548" data-name="Path 2548" d="M-247.456-230.774l6.389,9.8a10.3,10.3,0,0,1,1.365,5.241l-6.389-9.8A10.294,10.294,0,0,0-247.456-230.774Z" transform="translate(247.456 230.774)" fill="#841e45"/>
      <g id="Group_2384" data-name="Group 2384" clip-path="url(#clip-path-6)">
        <g id="Group_2383" data-name="Group 2383" style="isolation: isolate">
          <path id="Path_2549" data-name="Path 2549" d="M-239.7-215.738l-6.389-9.8a10.294,10.294,0,0,0-1.365-5.241l6.389,9.8a10.3,10.3,0,0,1,1.365,5.241" transform="translate(247.456 230.774)" fill="#841e45" stroke="#000" stroke-linejoin="round" stroke-width="0.5"/>
        </g>
      </g>
      <path id="Path_2551" data-name="Path 2551" d="M-247.456-230.774l6.389,9.8a10.3,10.3,0,0,1,1.365,5.241l-6.389-9.8A10.294,10.294,0,0,0-247.456-230.774Z" transform="translate(247.456 230.774)" fill="none" stroke="#000" stroke-linejoin="round" stroke-width="0.5"/>
    </g>
    <g id="Group_2388" data-name="Group 2388" transform="translate(-268.289 -214.693)">
      <path id="Path_2552" data-name="Path 2552" d="M-264.181-191.659l-6.389-9.8q-3.778-5.793-3.85-15.153l6.388,9.8Q-267.959-197.451-264.181-191.659Z" transform="translate(274.421 216.607)" fill="#841e45"/>
      <g id="Group_2387" data-name="Group 2387" clip-path="url(#clip-path-7)">
        <g id="Group_2386" data-name="Group 2386" style="isolation: isolate">
          <path id="Path_2553" data-name="Path 2553" d="M-264.181-191.659l-6.389-9.8q-3.778-5.793-3.85-15.153l6.388,9.8q.074,9.361,3.851,15.153" transform="translate(274.421 216.607)" fill="#841e45" stroke="#000" stroke-linejoin="round" stroke-width="0.5"/>
        </g>
      </g>
      <path id="Path_2555" data-name="Path 2555" d="M-264.181-191.659l-6.389-9.8q-3.778-5.793-3.85-15.153l6.388,9.8Q-267.959-197.451-264.181-191.659Z" transform="translate(274.421 216.607)" fill="none" stroke="#000" stroke-linejoin="round" stroke-width="0.5"/>
    </g>
    <g id="Group_2389" data-name="Group 2389" transform="translate(-268.308 -217.116)">
      <path id="Path_2556" data-name="Path 2556" d="M-268.032-206.7l-6.389-9.8-.019-2.424,6.389,9.8Z" transform="translate(274.439 218.922)" fill="#841e45" stroke="#000" stroke-linejoin="round" stroke-width="0.5"/>
    </g>
    <g id="Group_2392" data-name="Group 2392" transform="translate(-247.649 -241.66)">
      <path id="Path_2557" data-name="Path 2557" d="M-236.816-234.369l6.389,9.8a16.434,16.434,0,0,0-3.36-3.738q-5.506-4.521-14.531-4.243l-6.388-9.8q9.018-.276,14.531,4.244A16.454,16.454,0,0,1-236.816-234.369Z" transform="translate(254.706 242.367)" fill="#841e45"/>
      <g id="Group_2391" data-name="Group 2391" clip-path="url(#clip-path-8)">
        <g id="Group_2390" data-name="Group 2390" style="isolation: isolate">
          <path id="Path_2558" data-name="Path 2558" d="M-248.318-232.555l-6.388-9.8.431-.01,6.389,9.8c-.143,0-.287.006-.432.012" transform="translate(254.706 242.367)" fill="#841e45" stroke="#000" stroke-linejoin="round" stroke-width="0.5"/>
          <path id="Path_2559" data-name="Path 2559" d="M-247.9-232.566l-6.389-9.8a28.982,28.982,0,0,1,4.437.244l6.389,9.8a28.986,28.986,0,0,0-4.437-.244" transform="translate(254.725 242.367)" fill="#841e45" stroke="#000" stroke-linejoin="round" stroke-width="0.5"/>
          <path id="Path_2560" data-name="Path 2560" d="M-243.667-232.333l-6.389-9.8a21.251,21.251,0,0,1,5.2,1.359l6.389,9.8a21.264,21.264,0,0,0-5.2-1.359" transform="translate(254.924 242.378)" fill="#841e45" stroke="#000" stroke-linejoin="round" stroke-width="0.5"/>
          <path id="Path_2561" data-name="Path 2561" d="M-238.7-231.035l-6.389-9.8a17.372,17.372,0,0,1,4.042,2.315l6.389,9.8a17.447,17.447,0,0,0-4.042-2.315" transform="translate(255.157 242.439)" fill="#841e45" stroke="#000" stroke-linejoin="round" stroke-width="0.5"/>
          <path id="Path_2562" data-name="Path 2562" d="M-234.843-228.824l-6.389-9.8c.143.11.285.223.425.337A16.562,16.562,0,0,1-238.2-235.6l6.389,9.8a16.568,16.568,0,0,0-2.612-2.685c-.139-.114-.281-.227-.424-.337" transform="translate(255.338 242.543)" fill="#841e45" stroke="#000" stroke-linejoin="round" stroke-width="0.5"/>
          <path id="Path_2563" data-name="Path 2563" d="M-231.943-225.937l-6.389-9.8q.394.51.749,1.053l6.389,9.8q-.355-.542-.749-1.053" transform="translate(255.474 242.678)" fill="#841e45" stroke="#000" stroke-linejoin="round" stroke-width="0.5"/>
        </g>
      </g>
      <path id="Path_2565" data-name="Path 2565" d="M-236.816-234.369l6.389,9.8a16.434,16.434,0,0,0-3.36-3.738q-5.506-4.521-14.531-4.243l-6.388-9.8q9.018-.276,14.531,4.244A16.454,16.454,0,0,1-236.816-234.369Z" transform="translate(254.706 242.367)" fill="none" stroke="#000" stroke-linejoin="round" stroke-width="0.5"/>
    </g>
    <g id="Group_2395" data-name="Group 2395" transform="translate(-268.309 -241.645)">
      <path id="Path_2566" data-name="Path 2566" d="M-268.051-208.028l-6.388-9.8A29.7,29.7,0,0,1-272-230.5a19.621,19.621,0,0,1,7.229-8.569,20.88,20.88,0,0,1,10.993-3.282l6.388,9.8a20.87,20.87,0,0,0-10.992,3.281,19.63,19.63,0,0,0-7.23,8.569A29.735,29.735,0,0,0-268.051-208.028Z" transform="translate(274.44 242.352)" fill="#841e45"/>
      <g id="Group_2394" data-name="Group 2394" clip-path="url(#clip-path-9)">
        <g id="Group_2393" data-name="Group 2393" style="isolation: isolate">
          <path id="Path_2567" data-name="Path 2567" d="M-268.051-208.226l-6.388-9.8A29.7,29.7,0,0,1-272-230.7a19.913,19.913,0,0,1,5.642-7.419l6.389,9.8a19.9,19.9,0,0,0-5.643,7.418,29.735,29.735,0,0,0-2.436,12.678" transform="translate(274.44 242.55)" fill="#841e45" stroke="#000" stroke-linejoin="round" stroke-width="0.5"/>
          <path id="Path_2568" data-name="Path 2568" d="M-260.334-228.245l-6.389-9.8a19.576,19.576,0,0,1,1.587-1.149q.462-.3.937-.575l6.389,9.8q-.476.273-.937.575a19.166,19.166,0,0,0-1.587,1.151" transform="translate(274.802 242.473)" fill="#841e45" stroke="#000" stroke-linejoin="round" stroke-width="0.5"/>
          <path id="Path_2569" data-name="Path 2569" d="M-257.923-229.92l-6.389-9.8a19.327,19.327,0,0,1,2.271-1.115l6.389,9.8a19.494,19.494,0,0,0-2.271,1.115" transform="translate(274.915 242.423)" fill="#841e45" stroke="#000" stroke-linejoin="round" stroke-width="0.5"/>
          <path id="Path_2570" data-name="Path 2570" d="M-255.754-231l-6.389-9.8a19.932,19.932,0,0,1,2.314-.791l6.389,9.8a20.059,20.059,0,0,0-2.314.791" transform="translate(275.017 242.388)" fill="#841e45" stroke="#000" stroke-linejoin="round" stroke-width="0.5"/>
          <path id="Path_2571" data-name="Path 2571" d="M-253.544-231.767l-6.389-9.8a21.934,21.934,0,0,1,2.591-.546l6.389,9.8a21.844,21.844,0,0,0-2.591.546" transform="translate(275.12 242.363)" fill="#841e45" stroke="#000" stroke-linejoin="round" stroke-width="0.5"/>
          <path id="Path_2572" data-name="Path 2572" d="M-251.069-232.3l-6.389-9.8a24.8,24.8,0,0,1,2.881-.254l6.388,9.8a24.815,24.815,0,0,0-2.88.253" transform="translate(275.236 242.352)" fill="#841e45" stroke="#000" stroke-linejoin="round" stroke-width="0.5"/>
        </g>
      </g>
      <path id="Path_2574" data-name="Path 2574" d="M-268.051-208.028l-6.388-9.8A29.7,29.7,0,0,1-272-230.5a19.621,19.621,0,0,1,7.229-8.569,20.88,20.88,0,0,1,10.993-3.282l6.388,9.8a20.87,20.87,0,0,0-10.992,3.281,19.63,19.63,0,0,0-7.23,8.569A29.735,29.735,0,0,0-268.051-208.028Z" transform="translate(274.44 242.352)" fill="none" stroke="#000" stroke-linejoin="round" stroke-width="0.5"/>
    </g>
    <g id="Group_2396" data-name="Group 2396" transform="translate(-290.425 -200.345)">
      <path id="Path_2575" data-name="Path 2575" d="M-289.177-192.466l-6.389-9.8,20.778-.64,6.389,9.8Z" transform="translate(295.566 202.902)" fill="#af2050" stroke="#000" stroke-linejoin="round" stroke-width="0.5"/>
    </g>
    <g id="Group_2397" data-name="Group 2397" transform="translate(-302.676 -239.246)">
      <path id="Path_2576" data-name="Path 2576" d="M-300.5-181.272l-6.389-9.8-.381-48.993,6.389,9.8Z" transform="translate(307.269 240.061)" fill="#841e45" stroke="#000" stroke-linejoin="round" stroke-width="0.5"/>
    </g>
    <g id="Group_2398" data-name="Group 2398" transform="translate(-302.676 -239.614)">
      <path id="Path_2577" data-name="Path 2577" d="M-300.88-230.248l-6.389-9.8,11.941-.368,6.389,9.8Z" transform="translate(307.269 240.412)" fill="#af2050" stroke="#000" stroke-linejoin="round" stroke-width="0.5"/>
    </g>
    <g id="Group_2399" data-name="Group 2399" transform="translate(-329.4 -199.187)">
      <path id="Path_2578" data-name="Path 2578" d="M-326.407-191.317l-6.389-9.8,22.172-.683,6.389,9.8Z" transform="translate(332.796 201.796)" fill="#841e45" stroke="#000" stroke-linejoin="round" stroke-width="0.5"/>
    </g>
    <g id="Group_2400" data-name="Group 2400" transform="translate(-329.56 -219.546)">
      <path id="Path_2579" data-name="Path 2579" d="M-326.559-210.869l-6.389-9.8,18.768-.578,6.389,9.8Z" transform="translate(332.948 221.243)" fill="#841e45" stroke="#000" stroke-linejoin="round" stroke-width="0.5"/>
    </g>
    <g id="Group_2401" data-name="Group 2401" transform="translate(-341.652 -238.045)">
      <path id="Path_2580" data-name="Path 2580" d="M-337.729-180.125l-6.389-9.8-.381-48.993,6.389,9.8Z" transform="translate(344.499 238.914)" fill="#841e45" stroke="#000" stroke-linejoin="round" stroke-width="0.5"/>
    </g>
    <g id="Group_2402" data-name="Group 2402" transform="translate(-341.652 -239.098)">
      <path id="Path_2581" data-name="Path 2581" d="M-338.11-229.071l-6.389-9.8,34.179-1.053,6.389,9.8Z" transform="translate(344.499 239.92)" fill="#af2050" stroke="#000" stroke-linejoin="round" stroke-width="0.5"/>
    </g>
    <g id="Group_2403" data-name="Group 2403" transform="translate(-375.677 -215.928)">
      <path id="Path_2582" data-name="Path 2582" d="M-363.754-180.267l-6.389-9.8L-377-217.787l6.389,9.8Z" transform="translate(377 217.787)" fill="#841e45" stroke="#000" stroke-linejoin="round" stroke-width="0.5"/>
    </g>
    <g id="Group_2405" data-name="Group 2405" transform="translate(-363.594 -237.537)">
      <g id="Group_2404" data-name="Group 2404">
        <path id="Path_2583" data-name="Path 2583" d="M-359.07-197.735l-6.389-9.8,5.446-30.9,6.389,9.8Z" transform="translate(365.458 238.429)" fill="#841e45" stroke="#000" stroke-linejoin="round" stroke-width="0.5"/>
      </g>
    </g>
    <g id="Group_2406" data-name="Group 2406" transform="translate(-358.148 -237.902)">
      <path id="Path_2584" data-name="Path 2584" d="M-353.867-228.616l-6.389-9.8,11.829-.364,6.389,9.8Z" transform="translate(360.256 238.777)" fill="#af2050" stroke="#000" stroke-linejoin="round" stroke-width="0.5"/>
    </g>
    <g id="Group_2407" data-name="Group 2407" transform="translate(-387.44 -236.837)">
      <path id="Path_2585" data-name="Path 2585" d="M-381.847-197.032l-6.389-9.8,6.569-30.932,6.389,9.8Z" transform="translate(388.236 237.76)" fill="#841e45" stroke="#000" stroke-linejoin="round" stroke-width="0.5"/>
    </g>
    <g id="Group_2408" data-name="Group 2408" transform="translate(-380.871 -237.15)">
      <path id="Path_2586" data-name="Path 2586" d="M-375.573-227.95l-6.389-9.8,10.137-.312,6.389,9.8Z" transform="translate(381.962 238.058)" fill="#af2050" stroke="#000" stroke-linejoin="round" stroke-width="0.5"/>
    </g>
    <g id="Group_2409" data-name="Group 2409" transform="translate(-405.222 -236.087)">
      <path id="Path_2587" data-name="Path 2587" d="M-387.913-178.579l-6.389-9.8-10.92-48.669,6.389,9.8Z" transform="translate(405.222 237.044)" fill="#841e45" stroke="#000" stroke-linejoin="round" stroke-width="0.5"/>
    </g>
    <g id="Group_2411" data-name="Group 2411" transform="translate(-405.222 -236.453)">
      <g id="Group_2410" data-name="Group 2410">
        <path id="Path_2588" data-name="Path 2588" d="M-398.833-227.231l-6.389-9.8,11.867-.366,6.389,9.8Z" transform="translate(405.222 237.393)" fill="#af2050" stroke="#000" stroke-linejoin="round" stroke-width="0.5"/>
      </g>
    </g>
    <g id="Group_2412" data-name="Group 2412" transform="translate(-99.977 -206.254)">
      <path id="Path_2589" data-name="Path 2589" d="M-107.258-198.068l-6.389-9.8,22.172-.683,6.389,9.8Z" transform="translate(113.647 208.546)" fill="#af2050" stroke="#000" stroke-linejoin="round" stroke-width="0.5"/>
    </g>
    <g id="Group_2413" data-name="Group 2413" transform="translate(-100.137 -226.612)">
      <path id="Path_2590" data-name="Path 2590" d="M-107.41-217.619l-6.389-9.8,18.768-.578,6.389,9.8Z" transform="translate(113.799 227.993)" fill="#af2050" stroke="#000" stroke-linejoin="round" stroke-width="0.5"/>
    </g>
    <g id="Group_2414" data-name="Group 2414" transform="translate(-112.229 -245.112)">
      <path id="Path_2591" data-name="Path 2591" d="M-118.581-186.875l-6.389-9.8-.381-48.993,6.389,9.8Z" transform="translate(125.351 245.664)" fill="#841e45" stroke="#000" stroke-linejoin="round" stroke-width="0.5"/>
    </g>
    <g id="Group_2415" data-name="Group 2415" transform="translate(-112.229 -246.165)">
      <path id="Path_2592" data-name="Path 2592" d="M-118.962-235.821l-6.389-9.8,34.179-1.053,6.389,9.8Z" transform="translate(125.351 246.67)" fill="#af2050" stroke="#000" stroke-linejoin="round" stroke-width="0.5"/>
    </g>
    <g id="Group_2418" data-name="Group 2418" transform="translate(-1.534 -223.317)">
      <path id="Path_2593" data-name="Path 2593" d="M-13.224-203.667l-6.389-9.8a7.707,7.707,0,0,0,7.2,3.645,8.041,8.041,0,0,0,6.947-4.017q2.41-3.877,2.393-11.011l6.389,9.8q.027,7.134-2.394,11.011a8.035,8.035,0,0,1-6.946,4.017A7.706,7.706,0,0,1-13.224-203.667Z" transform="translate(19.613 224.845)" fill="#841e45"/>
      <g id="Group_2417" data-name="Group 2417" clip-path="url(#clip-path-10)">
        <g id="Group_2416" data-name="Group 2416" style="isolation: isolate">
          <path id="Path_2594" data-name="Path 2594" d="M-13.224-204.176l-6.389-9.8c.147.228.3.447.461.654l6.389,9.8c-.16-.207-.314-.426-.461-.654" transform="translate(19.613 225.355)" fill="#841e45" stroke="#000" stroke-linejoin="round" stroke-width="0.5"/>
          <path id="Path_2595" data-name="Path 2595" d="M-12.784-203.551l-6.389-9.8a7.814,7.814,0,0,0,1.438,1.447l6.388,9.8a7.841,7.841,0,0,1-1.437-1.447" transform="translate(19.634 225.384)" fill="#841e45" stroke="#000" stroke-linejoin="round" stroke-width="0.5"/>
          <path id="Path_2596" data-name="Path 2596" d="M-11.411-202.169l-6.388-9.8a7.1,7.1,0,0,0,1.636.942l6.389,9.8a7.133,7.133,0,0,1-1.637-.942" transform="translate(19.698 225.449)" fill="#841e45" stroke="#000" stroke-linejoin="round" stroke-width="0.5"/>
          <path id="Path_2597" data-name="Path 2597" d="M-9.847-201.269l-6.389-9.8a8.031,8.031,0,0,0,1.965.519l6.389,9.8a7.986,7.986,0,0,1-1.965-.519" transform="translate(19.771 225.491)" fill="#841e45" stroke="#000" stroke-linejoin="round" stroke-width="0.5"/>
          <path id="Path_2598" data-name="Path 2598" d="M-7.97-200.773l-6.389-9.8a10.273,10.273,0,0,0,1.555.087l6.389,9.8a10.121,10.121,0,0,1-1.555-.087" transform="translate(19.859 225.514)" fill="#841e45" stroke="#000" stroke-linejoin="round" stroke-width="0.5"/>
          <path id="Path_2599" data-name="Path 2599" d="M-6.485-200.686l-6.389-9.8.147,0a9.8,9.8,0,0,0,1.158-.1l6.389,9.8a9.8,9.8,0,0,1-1.158.1l-.147,0" transform="translate(19.929 225.513)" fill="#841e45" stroke="#000" stroke-linejoin="round" stroke-width="0.5"/>
          <path id="Path_2600" data-name="Path 2600" d="M-5.239-200.782l-6.389-9.8a8.48,8.48,0,0,0,1.031-.217l6.389,9.8a8.528,8.528,0,0,1-1.031.217" transform="translate(19.987 225.504)" fill="#841e45" stroke="#000" stroke-linejoin="round" stroke-width="0.5"/>
          <path id="Path_2601" data-name="Path 2601" d="M-4.254-200.984l-6.389-9.8a8.082,8.082,0,0,0,.91-.311l6.389,9.8a8.094,8.094,0,0,1-.91.311" transform="translate(20.034 225.49)" fill="#841e45" stroke="#000" stroke-linejoin="round" stroke-width="0.5"/>
          <path id="Path_2602" data-name="Path 2602" d="M-3.385-201.276l-6.389-9.8a7.829,7.829,0,0,0,.883-.433l6.389,9.8a7.5,7.5,0,0,1-.883.433" transform="translate(20.074 225.47)" fill="#841e45" stroke="#000" stroke-linejoin="round" stroke-width="0.5"/>
          <path id="Path_2603" data-name="Path 2603" d="M-2.542-201.679l-6.389-9.8a7.668,7.668,0,0,0,.983-.673l6.389,9.8a7.742,7.742,0,0,1-.983.673" transform="translate(20.114 225.44)" fill="#841e45" stroke="#000" stroke-linejoin="round" stroke-width="0.5"/>
          <path id="Path_2604" data-name="Path 2604" d="M-1.6-201.757l-6.389-9.8a9.083,9.083,0,0,0,1.983-2.281q2.41-3.877,2.393-11.011l6.389,9.8Q2.8-207.915.379-204.038A9.059,9.059,0,0,1-1.6-201.757" transform="translate(20.158 224.845)" fill="#841e45" stroke="#000" stroke-linejoin="round" stroke-width="0.5"/>
        </g>
      </g>
      <path id="Path_2606" data-name="Path 2606" d="M-13.224-203.667l-6.389-9.8a7.707,7.707,0,0,0,7.2,3.645,8.041,8.041,0,0,0,6.947-4.017q2.41-3.877,2.393-11.011l6.389,9.8q.027,7.134-2.394,11.011a8.035,8.035,0,0,1-6.946,4.017A7.706,7.706,0,0,1-13.224-203.667Z" transform="translate(19.613 224.845)" fill="none" stroke="#000" stroke-linejoin="round" stroke-width="0.5"/>
    </g>
    <g id="Group_2419" data-name="Group 2419" transform="translate(14.989 -225.574)">
      <path id="Path_2607" data-name="Path 2607" d="M2.577-214.948l-6.389-9.8L-3.829-227l6.389,9.8Z" transform="translate(3.829 227.001)" fill="#841e45" stroke="#000" stroke-linejoin="round" stroke-width="0.5"/>
    </g>
    <g id="Group_2422" data-name="Group 2422" transform="translate(12.509 -236.481)">
      <path id="Path_2608" data-name="Path 2608" d="M-6.2-237.42l6.389,9.8q2.42,3.711,2.48,10.907l-6.389-9.8Q-3.774-233.714-6.2-237.42Z" transform="translate(6.198 237.42)" fill="#841e45"/>
      <g id="Group_2421" data-name="Group 2421" clip-path="url(#clip-path-11)">
        <g id="Group_2420" data-name="Group 2420" style="isolation: isolate">
          <path id="Path_2609" data-name="Path 2609" d="M2.671-216.717l-6.389-9.8q-.057-7.2-2.48-10.907l6.389,9.8q2.42,3.711,2.48,10.907" transform="translate(6.198 237.42)" fill="#841e45" stroke="#000" stroke-linejoin="round" stroke-width="0.5"/>
        </g>
      </g>
      <path id="Path_2611" data-name="Path 2611" d="M-6.2-237.42l6.389,9.8q2.42,3.711,2.48,10.907l-6.389-9.8Q-3.774-233.714-6.2-237.42Z" transform="translate(6.198 237.42)" fill="none" stroke="#000" stroke-linejoin="round" stroke-width="0.5"/>
    </g>
    <g id="Group_2425" data-name="Group 2425" transform="translate(-16.175 -221.782)">
      <path id="Path_2612" data-name="Path 2612" d="M-23.219-199.652l-6.389-9.8q-.543-.834-1.023-1.743A27.311,27.311,0,0,1-33.6-223.379l6.389,9.8A27.3,27.3,0,0,0-24.242-201.4Q-23.763-200.486-23.219-199.652Z" transform="translate(33.598 223.379)" fill="#841e45"/>
      <g id="Group_2424" data-name="Group 2424" clip-path="url(#clip-path-12)">
        <g id="Group_2423" data-name="Group 2423" style="isolation: isolate">
          <path id="Path_2613" data-name="Path 2613" d="M-23.219-199.652l-6.389-9.8q-.543-.834-1.023-1.743A27.311,27.311,0,0,1-33.6-223.379l6.389,9.8A27.3,27.3,0,0,0-24.242-201.4q.479.909,1.023,1.743" transform="translate(33.598 223.379)" fill="#841e45" stroke="#000" stroke-linejoin="round" stroke-width="0.5"/>
        </g>
      </g>
      <path id="Path_2615" data-name="Path 2615" d="M-23.219-199.652l-6.389-9.8q-.543-.834-1.023-1.743A27.311,27.311,0,0,1-33.6-223.379l6.389,9.8A27.3,27.3,0,0,0-24.242-201.4Q-23.763-200.486-23.219-199.652Z" transform="translate(33.598 223.379)" fill="none" stroke="#000" stroke-linejoin="round" stroke-width="0.5"/>
    </g>
    <g id="Group_2426" data-name="Group 2426" transform="translate(-16.196 -224.548)">
      <path id="Path_2616" data-name="Path 2616" d="M-27.208-213.46l-6.389-9.8-.022-2.766,6.389,9.8Z" transform="translate(33.618 226.021)" fill="#841e45" stroke="#000" stroke-linejoin="round" stroke-width="0.5"/>
    </g>
    <g id="Group_2429" data-name="Group 2429" transform="translate(-16.197 -249.42)">
      <path id="Path_2617" data-name="Path 2617" d="M5.705-240.913l6.388,9.8a18.962,18.962,0,0,0-6.6-6.239,21.065,21.065,0,0,0-11.245-2.615,21.945,21.945,0,0,0-11.32,3.347,20.433,20.433,0,0,0-7.592,8.728,29.246,29.246,0,0,0-2.567,12.785l-6.388-9.8a29.231,29.231,0,0,1,2.566-12.785,20.429,20.429,0,0,1,7.593-8.728,21.932,21.932,0,0,1,11.319-3.347A21.071,21.071,0,0,1-.894-247.151,18.977,18.977,0,0,1,5.705-240.913Z" transform="translate(33.619 249.779)" fill="#841e45"/>
      <g id="Group_2428" data-name="Group 2428" clip-path="url(#clip-path-13)">
        <g id="Group_2427" data-name="Group 2427" transform="translate(0 0)" style="isolation: isolate">
          <path id="Path_2618" data-name="Path 2618" d="M-27.23-215.321l-6.388-9.8A29.231,29.231,0,0,1-31.052-237.9a20.688,20.688,0,0,1,5.739-7.4l6.389,9.8a20.7,20.7,0,0,0-5.739,7.4,29.246,29.246,0,0,0-2.567,12.785" transform="translate(33.619 249.989)" fill="#841e45" stroke="#000" stroke-linejoin="round" stroke-width="0.5"/>
          <path id="Path_2619" data-name="Path 2619" d="M-19.3-235.424l-6.389-9.8a20.225,20.225,0,0,1,1.854-1.329q.4-.253.8-.486l6.389,9.8q-.407.232-.8.486a20.347,20.347,0,0,0-1.853,1.328" transform="translate(33.991 249.908)" fill="#841e45" stroke="#000" stroke-linejoin="round" stroke-width="0.5"/>
          <path id="Path_2620" data-name="Path 2620" d="M-16.758-237.185l-6.389-9.8a20.62,20.62,0,0,1,2.438-1.2l6.389,9.8a20.625,20.625,0,0,0-2.438,1.2" transform="translate(34.11 249.854)" fill="#841e45" stroke="#000" stroke-linejoin="round" stroke-width="0.5"/>
          <path id="Path_2621" data-name="Path 2621" d="M-14.429-238.345l-6.389-9.8a20.983,20.983,0,0,1,2.439-.835l6.389,9.8a20.916,20.916,0,0,0-2.439.835" transform="translate(34.219 249.817)" fill="#841e45" stroke="#000" stroke-linejoin="round" stroke-width="0.5"/>
          <path id="Path_2622" data-name="Path 2622" d="M-12.1-239.155l-6.389-9.8a22.61,22.61,0,0,1,2.69-.567l6.389,9.8a22.607,22.607,0,0,0-2.69.567" transform="translate(34.329 249.791)" fill="#841e45" stroke="#000" stroke-linejoin="round" stroke-width="0.5"/>
          <path id="Path_2623" data-name="Path 2623" d="M-9.529-239.71l-6.389-9.8a25.355,25.355,0,0,1,2.948-.261l.335-.008,6.389,9.8-.335.008a25.352,25.352,0,0,0-2.948.261" transform="translate(34.449 249.779)" fill="#841e45" stroke="#000" stroke-linejoin="round" stroke-width="0.5"/>
          <path id="Path_2624" data-name="Path 2624" d="M-6.393-239.979l-6.389-9.8a23.929,23.929,0,0,1,3.67.208l6.389,9.8a23.925,23.925,0,0,0-3.67-.208" transform="translate(34.596 249.779)" fill="#841e45" stroke="#000" stroke-linejoin="round" stroke-width="0.5"/>
          <path id="Path_2625" data-name="Path 2625" d="M-2.887-239.78l-6.389-9.8a20.409,20.409,0,0,1,5,1.325l6.389,9.8a20.455,20.455,0,0,0-5-1.325" transform="translate(34.76 249.789)" fill="#841e45" stroke="#000" stroke-linejoin="round" stroke-width="0.5"/>
          <path id="Path_2626" data-name="Path 2626" d="M1.885-238.514l-6.389-9.8a19.621,19.621,0,0,1,2.245,1.09,19.187,19.187,0,0,1,2.225,1.475l6.389,9.8a18.983,18.983,0,0,0-2.226-1.476,19.529,19.529,0,0,0-2.243-1.09" transform="translate(34.984 249.848)" fill="#841e45" stroke="#000" stroke-linejoin="round" stroke-width="0.5"/>
          <path id="Path_2627" data-name="Path 2627" d="M6.154-236.063l-6.389-9.8a18.917,18.917,0,0,1,3.44,3.447l6.389,9.8a18.878,18.878,0,0,0-3.44-3.446" transform="translate(35.184 249.963)" fill="#841e45" stroke="#000" stroke-linejoin="round" stroke-width="0.5"/>
          <path id="Path_2628" data-name="Path 2628" d="M9.44-232.771l-6.389-9.8q.488.633.935,1.316l6.388,9.8q-.446-.685-.934-1.317" transform="translate(35.338 250.117)" fill="#841e45" stroke="#000" stroke-linejoin="round" stroke-width="0.5"/>
        </g>
      </g>
      <path id="Path_2630" data-name="Path 2630" d="M5.705-240.913l6.388,9.8a18.962,18.962,0,0,0-6.6-6.239,21.065,21.065,0,0,0-11.245-2.615,21.945,21.945,0,0,0-11.32,3.347,20.433,20.433,0,0,0-7.592,8.728,29.246,29.246,0,0,0-2.567,12.785l-6.388-9.8a29.231,29.231,0,0,1,2.566-12.785,20.429,20.429,0,0,1,7.593-8.728,21.932,21.932,0,0,1,11.319-3.347A21.071,21.071,0,0,1-.894-247.151,18.977,18.977,0,0,1,5.705-240.913Z" transform="translate(33.619 249.779)" fill="none" stroke="#000" stroke-linejoin="round" stroke-width="0.5"/>
    </g>
    <g id="Group_2430" data-name="Group 2430" transform="translate(-45.802 -238.034)">
      <path id="Path_2631" data-name="Path 2631" d="M-55.2-189.236l-6.389-9.8L-61.9-238.9l6.389,9.8Z" transform="translate(61.898 238.904)" fill="#841e45" stroke="#000" stroke-linejoin="round" stroke-width="0.5"/>
    </g>
    <g id="Group_2431" data-name="Group 2431" transform="translate(-60.461 -246.707)">
      <path id="Path_2632" data-name="Path 2632" d="M-69.441-228.27l-6.389-9.8-.071-9.122,6.389,9.8Z" transform="translate(75.9 247.187)" fill="#841e45" stroke="#000" stroke-linejoin="round" stroke-width="0.5"/>
    </g>
    <g id="Group_2432" data-name="Group 2432" transform="translate(-60.461 -247.982)">
      <path id="Path_2633" data-name="Path 2633" d="M-69.511-237.335l-6.389-9.8,41.388-1.275,6.389,9.8Z" transform="translate(75.9 248.405)" fill="#af2050" stroke="#000" stroke-linejoin="round" stroke-width="0.5"/>
    </g>
    <g id="Group_2433" data-name="Group 2433" transform="translate(51.277 -250.148)">
      <path id="Path_2634" data-name="Path 2634" d="M37.6-191.686l-6.389-9.8-.381-48.993,6.389,9.8Z" transform="translate(-30.833 250.475)" fill="#841e45" stroke="#000" stroke-linejoin="round" stroke-width="0.5"/>
    </g>
    <g id="Group_2434" data-name="Group 2434" transform="translate(51.277 -250.515)">
      <path id="Path_2635" data-name="Path 2635" d="M37.222-240.663l-6.389-9.8,11.9-.367,6.389,9.8Z" transform="translate(-30.833 250.825)" fill="#af2050" stroke="#000" stroke-linejoin="round" stroke-width="0.5"/>
    </g>
    <g id="Group_2435" data-name="Group 2435" transform="translate(83.561 -232.636)">
      <path id="Path_2636" data-name="Path 2636" d="M85.85-194l-6.389-9.8-17.79-29.951,6.389,9.8Z" transform="translate(-61.671 233.747)" fill="#797979"/>
    </g>
    <g id="Group_2436" data-name="Group 2436" transform="translate(100.932 -251.678)">
      <path id="Path_2637" data-name="Path 2637" d="M84.891-211.658l-6.389-9.8-.237-30.482,6.389,9.8Z" transform="translate(-78.265 251.936)" fill="#841e45" stroke="#000" stroke-linejoin="round" stroke-width="0.5"/>
    </g>
    <g id="Group_2437" data-name="Group 2437" transform="translate(100.932 -252.045)">
      <path id="Path_2638" data-name="Path 2638" d="M84.654-242.124l-6.389-9.8,11.9-.367,6.389,9.8Z" transform="translate(-78.265 252.286)" fill="#af2050" stroke="#000" stroke-linejoin="round" stroke-width="0.5"/>
    </g>
    <g id="Group_2438" data-name="Group 2438" transform="translate(71.476 -250.771)">
      <path id="Path_2639" data-name="Path 2639" d="M56.9-192.28l-6.389-9.8-.381-48.993,6.389,9.8Z" transform="translate(-50.127 251.069)" fill="#841e45" stroke="#000" stroke-linejoin="round" stroke-width="0.5"/>
    </g>
    <g id="Group_2439" data-name="Group 2439" transform="translate(71.476 -251.138)">
      <path id="Path_2640" data-name="Path 2640" d="M56.516-241.257l-6.389-9.8,11.941-.368,6.389,9.8Z" transform="translate(-50.127 251.421)" fill="#af2050" stroke="#000" stroke-linejoin="round" stroke-width="0.5"/>
    </g>
    <g id="Group_2440" data-name="Group 2440" transform="translate(260.259 -225.18)">
      <path id="Path_2641" data-name="Path 2641" d="M236.982-199.234l-6.389-9.8-.137-17.6,6.389,9.8Z" transform="translate(-230.457 226.625)" fill="#841e45" stroke="#000" stroke-linejoin="round" stroke-width="0.5"/>
    </g>
    <g id="Group_2441" data-name="Group 2441" transform="translate(266.23 -257.045)">
      <path id="Path_2642" data-name="Path 2642" d="M242.549-225.718l-6.389-9.8,8.952-21.549,6.389,9.8Z" transform="translate(-236.16 257.063)" fill="#841e45" stroke="#000" stroke-linejoin="round" stroke-width="0.5"/>
    </g>
    <g id="Group_2442" data-name="Group 2442" transform="translate(275.182 -257.442)">
      <path id="Path_2643" data-name="Path 2643" d="M251.1-247.249l-6.389-9.8,12.9-.4,6.389,9.8Z" transform="translate(-244.711 257.442)" fill="#af2050" stroke="#000" stroke-linejoin="round" stroke-width="0.5"/>
    </g>
    <g id="Group_2443" data-name="Group 2443" transform="translate(244.099 -256.088)">
      <path id="Path_2644" data-name="Path 2644" d="M237.569-215.445l-6.389-9.8-16.16-30.908,6.389,9.8Z" transform="translate(-215.02 256.148)" fill="#841e45" stroke="#000" stroke-linejoin="round" stroke-width="0.5"/>
    </g>
    <g id="Group_2444" data-name="Group 2444" transform="translate(244.099 -256.483)">
      <path id="Path_2645" data-name="Path 2645" d="M221.409-246.335l-6.389-9.8,12.82-.395,6.389,9.8Z" transform="translate(-215.02 256.526)" fill="#af2050" stroke="#000" stroke-linejoin="round" stroke-width="0.5"/>
    </g>
    <g id="Group_2447" data-name="Group 2447" transform="translate(214.75 -229.979)">
      <path id="Path_2646" data-name="Path 2646" d="M193.374-210.031l-6.389-9.8a7.723,7.723,0,0,0,7.212,3.645,8.048,8.048,0,0,0,6.946-4.017q2.412-3.877,2.393-11.011l6.389,9.8q.027,7.134-2.393,11.011a8.048,8.048,0,0,1-6.946,4.017A7.722,7.722,0,0,1,193.374-210.031Z" transform="translate(-186.985 231.209)" fill="#841e45"/>
      <g id="Group_2446" data-name="Group 2446" clip-path="url(#clip-path-14)">
        <g id="Group_2445" data-name="Group 2445" style="isolation: isolate">
          <path id="Path_2647" data-name="Path 2647" d="M193.374-210.54l-6.389-9.8c.144.224.3.438.453.642l6.388,9.8q-.236-.306-.452-.642" transform="translate(-186.985 231.719)" fill="#841e45" stroke="#000" stroke-linejoin="round" stroke-width="0.5"/>
          <path id="Path_2648" data-name="Path 2648" d="M193.806-209.927l-6.388-9.8a7.9,7.9,0,0,0,1.449,1.458l6.389,9.8a7.938,7.938,0,0,1-1.45-1.458" transform="translate(-186.965 231.747)" fill="#841e45" stroke="#000" stroke-linejoin="round" stroke-width="0.5"/>
          <path id="Path_2649" data-name="Path 2649" d="M195.191-208.534l-6.389-9.8a7.137,7.137,0,0,0,1.637.943l6.389,9.8a7.1,7.1,0,0,1-1.637-.943" transform="translate(-186.9 231.813)" fill="#841e45" stroke="#000" stroke-linejoin="round" stroke-width="0.5"/>
          <path id="Path_2650" data-name="Path 2650" d="M196.755-207.633l-6.389-9.8a8.033,8.033,0,0,0,1.965.519l6.389,9.8a8.031,8.031,0,0,1-1.965-.519" transform="translate(-186.826 231.855)" fill="#841e45" stroke="#000" stroke-linejoin="round" stroke-width="0.5"/>
          <path id="Path_2651" data-name="Path 2651" d="M198.632-207.137l-6.389-9.8a10.194,10.194,0,0,0,1.56.087l6.389,9.8a10.19,10.19,0,0,1-1.56-.087" transform="translate(-186.738 231.878)" fill="#841e45" stroke="#000" stroke-linejoin="round" stroke-width="0.5"/>
          <path id="Path_2652" data-name="Path 2652" d="M200.122-207.05l-6.389-9.8.148,0a9.746,9.746,0,0,0,1.153-.1l6.389,9.8a9.975,9.975,0,0,1-1.153.1l-.148,0" transform="translate(-186.669 231.877)" fill="#841e45" stroke="#000" stroke-linejoin="round" stroke-width="0.5"/>
          <path id="Path_2653" data-name="Path 2653" d="M201.364-207.145l-6.389-9.8a8.523,8.523,0,0,0,1.031-.217l6.389,9.8a8.726,8.726,0,0,1-1.031.218" transform="translate(-186.61 231.868)" fill="#841e45" stroke="#000" stroke-linejoin="round" stroke-width="0.5"/>
          <path id="Path_2654" data-name="Path 2654" d="M202.349-207.348l-6.389-9.8a7.776,7.776,0,0,0,.911-.312l6.389,9.8a7.965,7.965,0,0,1-.911.311" transform="translate(-186.564 231.854)" fill="#841e45" stroke="#000" stroke-linejoin="round" stroke-width="0.5"/>
          <path id="Path_2655" data-name="Path 2655" d="M203.219-207.64l-6.389-9.8a7.385,7.385,0,0,0,.886-.434l6.389,9.8a7.54,7.54,0,0,1-.886.436" transform="translate(-186.523 231.834)" fill="#841e45" stroke="#000" stroke-linejoin="round" stroke-width="0.5"/>
          <path id="Path_2656" data-name="Path 2656" d="M204.065-208.045l-6.389-9.8a7.569,7.569,0,0,0,.985-.675l6.389,9.8a7.557,7.557,0,0,1-.985.674" transform="translate(-186.484 231.804)" fill="#841e45" stroke="#000" stroke-linejoin="round" stroke-width="0.5"/>
          <path id="Path_2657" data-name="Path 2657" d="M205.006-208.124l-6.389-9.8A9.013,9.013,0,0,0,200.6-220.2q2.412-3.877,2.393-11.011l6.389,9.8q.027,7.134-2.393,11.011a9.039,9.039,0,0,1-1.981,2.278" transform="translate(-186.44 231.209)" fill="#841e45" stroke="#000" stroke-linejoin="round" stroke-width="0.5"/>
        </g>
      </g>
      <path id="Path_2659" data-name="Path 2659" d="M193.374-210.031l-6.389-9.8a7.723,7.723,0,0,0,7.212,3.645,8.048,8.048,0,0,0,6.946-4.017q2.412-3.877,2.393-11.011l6.389,9.8q.027,7.134-2.393,11.011a8.048,8.048,0,0,1-6.946,4.017A7.722,7.722,0,0,1,193.374-210.031Z" transform="translate(-186.985 231.209)" fill="none" stroke="#000" stroke-linejoin="round" stroke-width="0.5"/>
    </g>
    <g id="Group_2448" data-name="Group 2448" transform="translate(231.283 -232.236)">
      <path id="Path_2660" data-name="Path 2660" d="M209.185-221.312l-6.389-9.8-.018-2.257,6.389,9.8Z" transform="translate(-202.778 233.365)" fill="#841e45" stroke="#000" stroke-linejoin="round" stroke-width="0.5"/>
    </g>
    <g id="Group_2451" data-name="Group 2451" transform="translate(228.808 -243.122)">
      <path id="Path_2661" data-name="Path 2661" d="M200.414-243.763l6.389,9.8q2.42,3.709,2.475,10.885l-6.389-9.8Q202.834-240.059,200.414-243.763Z" transform="translate(-200.414 243.763)" fill="#841e45"/>
      <g id="Group_2450" data-name="Group 2450" clip-path="url(#clip-path-15)">
        <g id="Group_2449" data-name="Group 2449" style="isolation: isolate">
          <path id="Path_2662" data-name="Path 2662" d="M209.278-223.082l-6.389-9.8q-.055-7.181-2.475-10.885l6.389,9.8q2.42,3.709,2.475,10.885" transform="translate(-200.414 243.763)" fill="#841e45" stroke="#000" stroke-linejoin="round" stroke-width="0.5"/>
        </g>
      </g>
      <path id="Path_2664" data-name="Path 2664" d="M200.414-243.763l6.389,9.8q2.42,3.709,2.475,10.885l-6.389-9.8Q202.834-240.059,200.414-243.763Z" transform="translate(-200.414 243.763)" fill="none" stroke="#000" stroke-linejoin="round" stroke-width="0.5"/>
    </g>
    <g id="Group_2454" data-name="Group 2454" transform="translate(200.118 -228.444)">
      <path id="Path_2665" data-name="Path 2665" d="M183.393-206.007,177-215.8q-.546-.839-1.028-1.752a27.311,27.311,0,0,1-2.967-12.188l6.389,9.8a27.311,27.311,0,0,0,2.967,12.188Q182.847-206.846,183.393-206.007Z" transform="translate(-173.009 229.743)" fill="#841e45"/>
      <g id="Group_2453" data-name="Group 2453" clip-path="url(#clip-path-16)">
        <g id="Group_2452" data-name="Group 2452" style="isolation: isolate">
          <path id="Path_2666" data-name="Path 2666" d="M183.393-206.007,177-215.8q-.546-.839-1.028-1.752a27.311,27.311,0,0,1-2.967-12.188l6.389,9.8a27.311,27.311,0,0,0,2.967,12.188q.482.914,1.028,1.752" transform="translate(-173.009 229.743)" fill="#841e45" stroke="#000" stroke-linejoin="round" stroke-width="0.5"/>
        </g>
      </g>
      <path id="Path_2668" data-name="Path 2668" d="M183.393-206.007,177-215.8q-.546-.839-1.028-1.752a27.311,27.311,0,0,1-2.967-12.188l6.389,9.8a27.311,27.311,0,0,0,2.967,12.188Q182.847-206.846,183.393-206.007Z" transform="translate(-173.009 229.743)" fill="none" stroke="#000" stroke-linejoin="round" stroke-width="0.5"/>
    </g>
    <g id="Group_2455" data-name="Group 2455" transform="translate(200.097 -231.211)">
      <path id="Path_2669" data-name="Path 2669" d="M179.4-219.824l-6.389-9.8-.022-2.766,6.389,9.8Z" transform="translate(-172.989 232.385)" fill="#841e45" stroke="#000" stroke-linejoin="round" stroke-width="0.5"/>
    </g>
    <g id="Group_2458" data-name="Group 2458" transform="translate(200.096 -256.082)">
      <path id="Path_2670" data-name="Path 2670" d="M212.312-247.276l6.389,9.8a18.98,18.98,0,0,0-6.6-6.239,21.09,21.09,0,0,0-11.246-2.615,21.942,21.942,0,0,0-11.319,3.347,20.379,20.379,0,0,0-7.593,8.728,29.231,29.231,0,0,0-2.566,12.785l-6.389-9.8a29.231,29.231,0,0,1,2.566-12.785,20.373,20.373,0,0,1,7.593-8.728,21.933,21.933,0,0,1,11.32-3.347,21.086,21.086,0,0,1,11.245,2.615A18.972,18.972,0,0,1,212.312-247.276Z" transform="translate(-172.988 256.143)" fill="#841e45"/>
      <g id="Group_2457" data-name="Group 2457" clip-path="url(#clip-path-17)">
        <g id="Group_2456" data-name="Group 2456" transform="translate(0 0)" style="isolation: isolate">
          <path id="Path_2671" data-name="Path 2671" d="M179.378-221.686l-6.389-9.8a29.231,29.231,0,0,1,2.566-12.785,20.677,20.677,0,0,1,5.727-7.393l6.389,9.8a20.676,20.676,0,0,0-5.727,7.393,29.231,29.231,0,0,0-2.566,12.785" transform="translate(-172.988 256.353)" fill="#841e45" stroke="#000" stroke-linejoin="round" stroke-width="0.5"/>
          <path id="Path_2672" data-name="Path 2672" d="M187.3-241.782l-6.389-9.8a20.311,20.311,0,0,1,1.866-1.335q.4-.253.8-.486l6.389,9.8q-.407.234-.8.486a20.308,20.308,0,0,0-1.866,1.335" transform="translate(-172.616 256.272)" fill="#841e45" stroke="#000" stroke-linejoin="round" stroke-width="0.5"/>
          <path id="Path_2673" data-name="Path 2673" d="M189.849-243.549l-6.389-9.8a20.623,20.623,0,0,1,2.438-1.2l6.389,9.8a20.785,20.785,0,0,0-2.438,1.2" transform="translate(-172.497 256.218)" fill="#841e45" stroke="#000" stroke-linejoin="round" stroke-width="0.5"/>
          <path id="Path_2674" data-name="Path 2674" d="M192.178-244.709l-6.389-9.8a20.938,20.938,0,0,1,2.44-.835l6.389,9.8a20.933,20.933,0,0,0-2.44.835" transform="translate(-172.388 256.181)" fill="#841e45" stroke="#000" stroke-linejoin="round" stroke-width="0.5"/>
          <path id="Path_2675" data-name="Path 2675" d="M194.509-245.519l-6.389-9.8a22.593,22.593,0,0,1,2.689-.567l6.389,9.8a22.593,22.593,0,0,0-2.689.567" transform="translate(-172.278 256.155)" fill="#841e45" stroke="#000" stroke-linejoin="round" stroke-width="0.5"/>
          <path id="Path_2676" data-name="Path 2676" d="M197.078-246.074l-6.389-9.8a25.366,25.366,0,0,1,2.949-.261l.334-.008,6.389,9.8-.335.008a25.355,25.355,0,0,0-2.948.261" transform="translate(-172.158 256.143)" fill="#841e45" stroke="#000" stroke-linejoin="round" stroke-width="0.5"/>
          <path id="Path_2677" data-name="Path 2677" d="M200.214-246.343l-6.389-9.8a24.011,24.011,0,0,1,3.666.207l6.389,9.8a23.866,23.866,0,0,0-3.666-.208" transform="translate(-172.011 256.143)" fill="#841e45" stroke="#000" stroke-linejoin="round" stroke-width="0.5"/>
          <path id="Path_2678" data-name="Path 2678" d="M203.716-246.144l-6.389-9.8a20.43,20.43,0,0,1,5,1.328l6.389,9.8a20.477,20.477,0,0,0-5-1.327" transform="translate(-171.847 256.153)" fill="#841e45" stroke="#000" stroke-linejoin="round" stroke-width="0.5"/>
          <path id="Path_2679" data-name="Path 2679" d="M208.493-244.876l-6.389-9.8a19.513,19.513,0,0,1,2.243,1.088,19.092,19.092,0,0,1,2.225,1.475l6.389,9.8a18.967,18.967,0,0,0-2.225-1.476,19.681,19.681,0,0,0-2.243-1.088" transform="translate(-171.623 256.212)" fill="#841e45" stroke="#000" stroke-linejoin="round" stroke-width="0.5"/>
          <path id="Path_2680" data-name="Path 2680" d="M212.761-242.427l-6.389-9.8a18.92,18.92,0,0,1,3.441,3.447l6.388,9.8a18.845,18.845,0,0,0-3.44-3.446" transform="translate(-171.423 256.327)" fill="#841e45" stroke="#000" stroke-linejoin="round" stroke-width="0.5"/>
          <path id="Path_2681" data-name="Path 2681" d="M216.047-239.135l-6.388-9.8q.487.633.934,1.317l6.389,9.8q-.446-.685-.935-1.317" transform="translate(-171.269 256.481)" fill="#841e45" stroke="#000" stroke-linejoin="round" stroke-width="0.5"/>
        </g>
      </g>
      <path id="Path_2683" data-name="Path 2683" d="M212.312-247.276l6.389,9.8a18.98,18.98,0,0,0-6.6-6.239,21.09,21.09,0,0,0-11.246-2.615,21.942,21.942,0,0,0-11.319,3.347,20.379,20.379,0,0,0-7.593,8.728,29.231,29.231,0,0,0-2.566,12.785l-6.389-9.8a29.231,29.231,0,0,1,2.566-12.785,20.373,20.373,0,0,1,7.593-8.728,21.933,21.933,0,0,1,11.32-3.347,21.086,21.086,0,0,1,11.245,2.615A18.972,18.972,0,0,1,212.312-247.276Z" transform="translate(-172.988 256.143)" fill="none" stroke="#000" stroke-linejoin="round" stroke-width="0.5"/>
    </g>
    <g id="Group_2459" data-name="Group 2459" transform="translate(177.979 -214.773)">
      <path id="Path_2684" data-name="Path 2684" d="M158.25-206.248l-6.389-9.8,20.778-.64,6.389,9.8Z" transform="translate(-151.861 216.684)" fill="#af2050" stroke="#000" stroke-linejoin="round" stroke-width="0.5"/>
    </g>
    <g id="Group_2460" data-name="Group 2460" transform="translate(165.726 -253.674)">
      <path id="Path_2685" data-name="Path 2685" d="M146.927-195.053l-6.389-9.8-.381-48.993,6.389,9.8Z" transform="translate(-140.157 253.842)" fill="#841e45" stroke="#000" stroke-linejoin="round" stroke-width="0.5"/>
    </g>
    <g id="Group_2461" data-name="Group 2461" transform="translate(165.726 -254.042)">
      <path id="Path_2686" data-name="Path 2686" d="M146.546-244.03l-6.389-9.8,11.942-.368,6.389,9.8Z" transform="translate(-140.157 254.194)" fill="#af2050" stroke="#000" stroke-linejoin="round" stroke-width="0.5"/>
    </g>
    <g id="Group_2464" data-name="Group 2464" transform="translate(140.332 -231.513)">
      <path id="Path_2687" data-name="Path 2687" d="M122.288-221l-6.388-9.8a7.545,7.545,0,0,0,5.27-1.875l6.389,9.8A7.55,7.55,0,0,1,122.288-221Z" transform="translate(-115.9 232.674)" fill="#841e45"/>
      <g id="Group_2463" data-name="Group 2463" clip-path="url(#clip-path-18)">
        <g id="Group_2462" data-name="Group 2462" style="isolation: isolate">
          <path id="Path_2688" data-name="Path 2688" d="M122.288-221.082l-6.388-9.8a12.221,12.221,0,0,0,1.421-.124l6.388,9.8a12.185,12.185,0,0,1-1.421.124" transform="translate(-115.9 232.752)" fill="#841e45" stroke="#000" stroke-linejoin="round" stroke-width="0.5"/>
          <path id="Path_2689" data-name="Path 2689" d="M123.645-221.195l-6.388-9.8a9.3,9.3,0,0,0,1.1-.23l6.389,9.8a9.283,9.283,0,0,1-1.105.23" transform="translate(-115.836 232.742)" fill="#841e45" stroke="#000" stroke-linejoin="round" stroke-width="0.5"/>
          <path id="Path_2690" data-name="Path 2690" d="M124.7-221.412l-6.389-9.8a7.707,7.707,0,0,0,.862-.294l6.389,9.8a7.5,7.5,0,0,1-.862.294" transform="translate(-115.787 232.729)" fill="#841e45" stroke="#000" stroke-linejoin="round" stroke-width="0.5"/>
          <path id="Path_2691" data-name="Path 2691" d="M125.524-221.69l-6.389-9.8a6.411,6.411,0,0,0,.746-.365l6.389,9.8a6.409,6.409,0,0,1-.746.365" transform="translate(-115.748 232.713)" fill="#841e45" stroke="#000" stroke-linejoin="round" stroke-width="0.5"/>
          <path id="Path_2692" data-name="Path 2692" d="M126.237-222.033l-6.389-9.8a5.717,5.717,0,0,0,.731-.5l6.389,9.8a5.681,5.681,0,0,1-.731.5" transform="translate(-115.715 232.69)" fill="#841e45" stroke="#000" stroke-linejoin="round" stroke-width="0.5"/>
          <path id="Path_2693" data-name="Path 2693" d="M126.935-222.515l-6.389-9.8a5.352,5.352,0,0,0,.406-.363l6.389,9.8c-.129.127-.265.248-.406.362" transform="translate(-115.682 232.674)" fill="#841e45" stroke="#000" stroke-linejoin="round" stroke-width="0.5"/>
        </g>
      </g>
      <path id="Path_2695" data-name="Path 2695" d="M122.288-221l-6.388-9.8a7.545,7.545,0,0,0,5.27-1.875l6.389,9.8A7.55,7.55,0,0,1,122.288-221Z" transform="translate(-115.9 232.674)" fill="none" stroke="#000" stroke-linejoin="round" stroke-width="0.5"/>
    </g>
    <g id="Group_2465" data-name="Group 2465" transform="translate(132.505 -229.638)">
      <path id="Path_2696" data-name="Path 2696" d="M114.812-220.846l-6.389-9.8,7.827-.241,6.389,9.8Z" transform="translate(-108.423 230.883)" fill="#af2050" stroke="#000" stroke-linejoin="round" stroke-width="0.5"/>
    </g>
    <g id="Group_2468" data-name="Group 2468" transform="translate(145.602 -240.95)">
      <path id="Path_2697" data-name="Path 2697" d="M121.511-241.689l6.389,9.8a8.268,8.268,0,0,1,1.209,4.535,6.475,6.475,0,0,1-1.786,4.9l-6.389-9.8a6.473,6.473,0,0,0,1.786-4.9A8.267,8.267,0,0,0,121.511-241.689Z" transform="translate(-120.934 241.689)" fill="#841e45"/>
      <g id="Group_2467" data-name="Group 2467" transform="translate(0)" clip-path="url(#clip-path-19)">
        <g id="Group_2466" data-name="Group 2466" style="isolation: isolate">
          <path id="Path_2698" data-name="Path 2698" d="M127.323-222.455l-6.389-9.8a6.473,6.473,0,0,0,1.786-4.9,8.267,8.267,0,0,0-1.209-4.534l6.389,9.8a8.268,8.268,0,0,1,1.209,4.535,6.475,6.475,0,0,1-1.786,4.9" transform="translate(-120.934 241.689)" fill="#841e45" stroke="#000" stroke-linejoin="round" stroke-width="0.5"/>
        </g>
      </g>
      <path id="Path_2700" data-name="Path 2700" d="M121.511-241.689l6.389,9.8a8.268,8.268,0,0,1,1.209,4.535,6.475,6.475,0,0,1-1.786,4.9l-6.389-9.8a6.473,6.473,0,0,0,1.786-4.9A8.267,8.267,0,0,0,121.511-241.689Z" transform="translate(-120.934 241.689)" fill="none" stroke="#000" stroke-linejoin="round" stroke-width="0.5"/>
    </g>
    <g id="Group_2471" data-name="Group 2471" transform="translate(140.151 -252.9)">
      <path id="Path_2701" data-name="Path 2701" d="M122.116-243.294l-6.389-9.8a22.843,22.843,0,0,1,10.069,1.763,15.164,15.164,0,0,1,6.807,5.675l6.389,9.8a15.164,15.164,0,0,0-6.807-5.675A22.848,22.848,0,0,0,122.116-243.294Z" transform="translate(-115.727 253.104)" fill="#841e45"/>
      <g id="Group_2470" data-name="Group 2470" transform="translate(0)" clip-path="url(#clip-path-20)">
        <g id="Group_2469" data-name="Group 2469" transform="translate(0 0)" style="isolation: isolate">
          <path id="Path_2702" data-name="Path 2702" d="M122.116-243.294l-6.389-9.8c.131,0,.263-.007.393-.009l6.389,9.8q-.2,0-.393.009" transform="translate(-115.727 253.104)" fill="#841e45" stroke="#000" stroke-linejoin="round" stroke-width="0.5"/>
          <path id="Path_2703" data-name="Path 2703" d="M122.491-243.3l-6.389-9.8a26.8,26.8,0,0,1,4.109.227l6.389,9.8a26.676,26.676,0,0,0-4.109-.228" transform="translate(-115.709 253.104)" fill="#841e45" stroke="#000" stroke-linejoin="round" stroke-width="0.5"/>
          <path id="Path_2704" data-name="Path 2704" d="M126.416-243.085l-6.389-9.8a20.761,20.761,0,0,1,5.062,1.33l6.389,9.8a20.738,20.738,0,0,0-5.062-1.328" transform="translate(-115.525 253.114)" fill="#841e45" stroke="#000" stroke-linejoin="round" stroke-width="0.5"/>
          <path id="Path_2705" data-name="Path 2705" d="M131.251-241.816l-6.389-9.8q.254.1.506.216a16.619,16.619,0,0,1,3.445,2.026l6.389,9.8a16.621,16.621,0,0,0-3.445-2.026q-.251-.111-.506-.216" transform="translate(-115.299 253.174)" fill="#841e45" stroke="#000" stroke-linejoin="round" stroke-width="0.5"/>
          <path id="Path_2706" data-name="Path 2706" d="M135.025-239.675l-6.389-9.8a14.507,14.507,0,0,1,2.652,2.643l6.389,9.8a14.513,14.513,0,0,0-2.652-2.644" transform="translate(-115.122 253.274)" fill="#841e45" stroke="#000" stroke-linejoin="round" stroke-width="0.5"/>
          <path id="Path_2707" data-name="Path 2707" d="M137.558-237.149l-6.389-9.8q.374.485.71,1.006l6.389,9.8q-.336-.52-.71-1.005" transform="translate(-115.003 253.393)" fill="#841e45" stroke="#000" stroke-linejoin="round" stroke-width="0.5"/>
        </g>
      </g>
      <path id="Path_2709" data-name="Path 2709" d="M122.116-243.294l-6.389-9.8a22.843,22.843,0,0,1,10.069,1.763,15.164,15.164,0,0,1,6.807,5.675l6.389,9.8a15.164,15.164,0,0,0-6.807-5.675A22.848,22.848,0,0,0,122.116-243.294Z" transform="translate(-115.727 253.104)" fill="none" stroke="#000" stroke-linejoin="round" stroke-width="0.5"/>
    </g>
    <g id="Group_2472" data-name="Group 2472" transform="translate(120.382 -252.277)">
      <path id="Path_2710" data-name="Path 2710" d="M103.614-193.719l-6.389-9.8-.381-48.993,6.389,9.8Z" transform="translate(-96.844 252.508)" fill="#841e45" stroke="#000" stroke-linejoin="round" stroke-width="0.5"/>
    </g>
    <g id="Group_2473" data-name="Group 2473" transform="translate(120.382 -252.886)">
      <path id="Path_2711" data-name="Path 2711" d="M103.233-242.685l-6.389-9.8,19.768-.609,6.389,9.8Z" transform="translate(-96.844 253.09)" fill="#af2050" stroke="#000" stroke-linejoin="round" stroke-width="0.5"/>
    </g>
    <g id="Group_2474" data-name="Group 2474" transform="translate(-166.895 -235.083)">
      <path id="Path_2712" data-name="Path 2712" d="M-124.1-236.084l.381,48.993-11.979.369-.089-11.444.978-23.45-11.7,35.226-7.893.243-12.278-34.525,1.333,23.416.089,11.444-11.932.368-.381-48.993,15.682-.483,11.319,33.75,10.751-34.429Z" transform="translate(177.568 236.084)" fill="#fce100" stroke="#000" stroke-linejoin="round" stroke-width="0.5"/>
    </g>
    <g id="Group_2475" data-name="Group 2475" transform="translate(-216.208 -233.266)">
      <path id="Path_2713" data-name="Path 2713" d="M-184.207-223.531a27.539,27.539,0,0,1,2.866,12.45l.017,2.257a28.917,28.917,0,0,1-2.585,12.767,20.434,20.434,0,0,1-7.574,8.736,21.824,21.824,0,0,1-11.245,3.326,21.451,21.451,0,0,1-11.253-2.531,19.055,19.055,0,0,1-7.695-8,27.3,27.3,0,0,1-2.976-12.187l-.021-2.766a29.1,29.1,0,0,1,2.575-12.785,20.34,20.34,0,0,1,7.584-8.728,21.959,21.959,0,0,1,11.319-3.347,21.1,21.1,0,0,1,11.254,2.614A19.42,19.42,0,0,1-184.207-223.531Zm-9.253,15.285-.017-2.257q-.057-7.3-2.555-11.007a7.73,7.73,0,0,0-7.089-3.575q-8.978.276-9.378,13.622l-.009,3.6q.055,7.2,2.5,11a7.714,7.714,0,0,0,7.212,3.645,8.027,8.027,0,0,0,6.938-4.017q2.425-3.877,2.4-11.011" transform="translate(224.673 234.349)" fill="#fce100" stroke="#000" stroke-linejoin="round" stroke-width="0.5"/>
    </g>
    <g id="Group_2476" data-name="Group 2476" transform="translate(-261.921 -231.864)">
      <path id="Path_2714" data-name="Path 2714" d="M-247.679-232.993q9.02-.278,14.531,4.243T-226.819-216l-11.9.366q-.176-4.479-2.332-6.359t-6.551-1.751a7.356,7.356,0,0,0-6.5,3.494q-2.051,3.367-2.1,10.6l.026,3.46q.061,7.841,2.079,11.151t6.881,3.147a9.438,9.438,0,0,0,6.278-2.108c1.439-1.322,2.19-3.38,2.262-6.159l11.876-.365a18.069,18.069,0,0,1-2.725,9.114,17.287,17.287,0,0,1-7.106,6.3,25.011,25.011,0,0,1-10.513,2.479q-9.763.3-15.423-5.826t-5.749-17.59l-.019-2.424a29.735,29.735,0,0,1,2.436-12.678,19.63,19.63,0,0,1,7.23-8.569A20.87,20.87,0,0,1-247.679-232.993Z" transform="translate(268.338 233.009)" fill="#fce100" stroke="#000" stroke-linejoin="round" stroke-width="0.5"/>
    </g>
    <g id="Group_2477" data-name="Group 2477" transform="translate(-296.287 -229.818)">
      <path id="Path_2715" data-name="Path 2715" d="M-289.224-231.055l.31,39.909,20.778-.64.071,9.084-32.72,1.008-.381-48.993Z" transform="translate(301.166 231.055)" fill="#fce100" stroke="#000" stroke-linejoin="round" stroke-width="0.5"/>
    </g>
    <g id="Group_2478" data-name="Group 2478" transform="translate(-335.263 -229.302)">
      <path id="Path_2716" data-name="Path 2716" d="M-304.218-230.562l.071,9.122-22.237.685.08,10.324,18.768-.578.068,8.751-18.768.578.091,11.712,22.172-.683.071,9.085-34.113,1.051-.381-48.993Z" transform="translate(338.396 230.562)" fill="#fce100" stroke="#000" stroke-linejoin="round" stroke-width="0.5"/>
    </g>
    <g id="Group_2479" data-name="Group 2479" transform="translate(-398.833 -228.106)">
      <path id="Path_2717" data-name="Path 2717" d="M-340.216-229.42l-10.12,49.317-12.381.381-6.857-27.724-6.282,28.129-12.344.38-10.92-48.669,11.867-.366,5.915,30.548,6.569-30.932,10.137-.312,7.14,30.51,5.446-30.9Z" transform="translate(399.119 229.42)" fill="#fce100" stroke="#000" stroke-linejoin="round" stroke-width="0.5"/>
    </g>
    <g id="Group_2480" data-name="Group 2480" transform="translate(-105.84 -236.369)">
      <path id="Path_2718" data-name="Path 2718" d="M-85.069-237.313l.071,9.122-22.237.685.08,10.324,18.768-.578.068,8.751-18.768.578.091,11.712,22.172-.683.071,9.085-34.113,1.051-.381-48.993Z" transform="translate(119.248 237.313)" fill="#fce100" stroke="#000" stroke-linejoin="round" stroke-width="0.5"/>
    </g>
    <g id="Group_2481" data-name="Group 2481" transform="translate(-9.809 -239.624)">
      <path id="Path_2719" data-name="Path 2719" d="M12.941-229.6a27.651,27.651,0,0,1,2.875,12.45l.018,2.257a29.049,29.049,0,0,1-2.585,12.767,20.434,20.434,0,0,1-7.574,8.736A21.878,21.878,0,0,1-5.58-190.067,21.426,21.426,0,0,1-16.823-192.6a19.082,19.082,0,0,1-7.7-8,27.3,27.3,0,0,1-2.967-12.188l-.022-2.766a29.246,29.246,0,0,1,2.567-12.785,20.433,20.433,0,0,1,7.592-8.728,21.945,21.945,0,0,1,11.32-3.347,21.065,21.065,0,0,1,11.245,2.615A19.355,19.355,0,0,1,12.941-229.6ZM3.688-214.319l-.018-2.257q-.057-7.3-2.546-11.007a7.742,7.742,0,0,0-7.089-3.575q-8.978.276-9.387,13.623l-.009,3.6q.055,7.2,2.508,11a7.706,7.706,0,0,0,7.2,3.645,8.035,8.035,0,0,0,6.946-4.017q2.412-3.877,2.394-11.011" transform="translate(27.517 240.422)" fill="#fce100" stroke="#000" stroke-linejoin="round" stroke-width="0.5"/>
    </g>
    <g id="Group_2482" data-name="Group 2482" transform="translate(-54.072 -238.186)">
      <path id="Path_2720" data-name="Path 2720" d="M-28.409-239.048l.071,9.122-14.859.458.31,39.872-11.941.368-.31-39.872-14.588.449-.071-9.122Z" transform="translate(69.798 239.048)" fill="#fce100" stroke="#000" stroke-linejoin="round" stroke-width="0.5"/>
    </g>
    <g id="Group_2483" data-name="Group 2483" transform="translate(57.666 -240.719)">
      <path id="Path_2721" data-name="Path 2721" d="M48.84-241.468l.381,48.993-11.9.367L36.936-241.1Z" transform="translate(-36.936 241.468)" fill="#fce100" stroke="#000" stroke-linejoin="round" stroke-width="0.5"/>
    </g>
    <g id="Group_2484" data-name="Group 2484" transform="translate(77.865 -242.249)">
      <path id="Path_2722" data-name="Path 2722" d="M97.591-242.929l.381,48.993L86.1-193.57l-17.79-29.951.237,30.491-11.941.368-.381-48.993,11.941-.368L85.924-212.08l-.237-30.482Z" transform="translate(-56.23 242.929)" fill="#fce100" stroke="#000" stroke-linejoin="round" stroke-width="0.5"/>
    </g>
    <g id="Group_2485" data-name="Group 2485" transform="translate(250.488 -247.647)">
      <path id="Path_2723" data-name="Path 2723" d="M265.1-248.085,249.393-216.2l.137,17.6-12.11.373-.137-17.6-16.16-30.908,12.82-.395,9.311,20.986,8.952-21.549Z" transform="translate(-221.123 248.085)" fill="#fce100" stroke="#000" stroke-linejoin="round" stroke-width="0.5"/>
    </g>
    <g id="Group_2486" data-name="Group 2486" transform="translate(206.485 -246.286)">
      <path id="Path_2724" data-name="Path 2724" d="M219.549-235.967a27.665,27.665,0,0,1,2.875,12.45l.018,2.258a28.931,28.931,0,0,1-2.6,12.766,20.356,20.356,0,0,1-7.564,8.736,21.882,21.882,0,0,1-11.255,3.327,21.429,21.429,0,0,1-11.244-2.531,19.026,19.026,0,0,1-7.7-8,27.311,27.311,0,0,1-2.967-12.188l-.021-2.766a29.231,29.231,0,0,1,2.566-12.785,20.379,20.379,0,0,1,7.593-8.728,21.942,21.942,0,0,1,11.319-3.347,21.09,21.09,0,0,1,11.246,2.615A19.361,19.361,0,0,1,219.549-235.967ZM210.3-220.683l-.018-2.257q-.057-7.3-2.554-11.006a7.717,7.717,0,0,0-7.081-3.576q-8.976.276-9.387,13.623l-.009,3.6q.057,7.2,2.5,11a7.722,7.722,0,0,0,7.212,3.645,8.048,8.048,0,0,0,6.946-4.017q2.412-3.877,2.393-11.011" transform="translate(-179.091 246.786)" fill="#fce100" stroke="#000" stroke-linejoin="round" stroke-width="0.5"/>
    </g>
    <g id="Group_2487" data-name="Group 2487" transform="translate(172.115 -244.246)">
      <path id="Path_2725" data-name="Path 2725" d="M158.2-244.837l.31,39.909,20.778-.64.071,9.084-32.72,1.008-.381-48.993Z" transform="translate(-146.26 244.837)" fill="#fce100" stroke="#000" stroke-linejoin="round" stroke-width="0.5"/>
    </g>
    <g id="Group_2488" data-name="Group 2488" transform="translate(126.772 -243.105)">
      <path id="Path_2726" data-name="Path 2726" d="M139.591-236.294a15.688,15.688,0,0,1,2.471,8.594,14.45,14.45,0,0,1-5.1,11.613q-5.155,4.461-14.2,4.731l-7.621.235.13,16.624-11.942.367-.381-48.993,19.768-.609a22.848,22.848,0,0,1,10.069,1.763A15.164,15.164,0,0,1,139.591-236.294Zm-11.425,13.936a6.475,6.475,0,0,0,1.786-4.9,7.693,7.693,0,0,0-1.914-5.429,6.488,6.488,0,0,0-5.121-1.924l-7.958.245.11,14.127,7.826-.241a7.55,7.55,0,0,0,5.271-1.874" transform="translate(-102.947 243.747)" fill="#fce100" stroke="#000" stroke-linejoin="round" stroke-width="0.5"/>
    </g>
  </g>
</svg>
