<svg id="Group_364" data-name="Group 364" xmlns="http://www.w3.org/2000/svg" width="164.616" height="59.593" viewBox="0 0 164.616 59.593">
  <path id="Path_1" data-name="Path 1" d="M0,5.077A5.151,5.151,0,0,1,5.167,0a5.1,5.1,0,0,1,5.167,5.077,5.17,5.17,0,0,1-5.167,5.167A5.289,5.289,0,0,1,0,5.077Zm8.819,8.641h.624V44.183A2.168,2.168,0,0,1,7.3,46.32H3.029A2.11,2.11,0,0,1,.891,44.183V21.646A7.945,7.945,0,0,1,8.819,13.718Z" fill="#c21a3a"/>
  <path id="Path_2" data-name="Path 2" d="M38,28.218c0-4.543-2.405-6.057-5.968-6.057H31.41a7.462,7.462,0,0,0-6.859,7.393V45.766A2.168,2.168,0,0,1,22.414,47.9H18.049A2.092,2.092,0,0,1,16,45.766V23.408c0-5.523,3.652-8.106,8.106-8.106h.445v4.276a14.839,14.839,0,0,1,11.4-5.077c7.126,0,10.6,4.009,10.6,10.422V45.855a2.168,2.168,0,0,1-2.138,2.138H40.051a2.168,2.168,0,0,1-2.138-2.138V28.218Z" transform="translate(-1.748 -1.584)" fill="#c21a3a"/>
  <path id="Path_3" data-name="Path 3" d="M55.7,58.148V23.319A7.984,7.984,0,0,1,63.717,15.3h.534v2.94a.449.449,0,0,0,.8.267A12.529,12.529,0,0,1,74.317,14.5c8.373,0,14.431,6.235,14.431,17.1s-6.057,17.1-14.431,17.1a12.515,12.515,0,0,1-10.066-4.988v14.52a2.168,2.168,0,0,1-2.138,2.138H57.749A2.172,2.172,0,0,1,55.7,58.148ZM71.645,22.072a9.687,9.687,0,0,0-3.474.713,6.3,6.3,0,0,0-3.919,5.879v5.7a6.3,6.3,0,0,0,3.919,5.879,9.841,9.841,0,0,0,3.474.8c4.9,0,8.2-3.83,8.2-9.531C79.84,25.991,76.544,22.072,71.645,22.072Z" transform="translate(-6.084 -1.584)" fill="#c21a3a"/>
  <path id="Path_4" data-name="Path 4" d="M103.728,1.4h.713V44.335a2.168,2.168,0,0,1-2.138,2.138H97.938A2.168,2.168,0,0,1,95.8,44.335V9.328A7.945,7.945,0,0,1,103.728,1.4Z" transform="translate(-10.464 -0.153)" fill="#c21a3a"/>
  <path id="Path_5" data-name="Path 5" d="M152.393,53.614c2.227,0,3.741-.624,4.543-2.405l.267-.534a5.93,5.93,0,0,0,.089-4.454L145,15.4h3.207a8.582,8.582,0,0,1,8.106,5.612l5.612,15.054a.8.8,0,0,0,1.514,0L169.5,20.032a7.231,7.231,0,0,1,6.681-4.632h4.276l-15.41,37.947c-2.405,6.146-6.77,7.75-12.382,7.928-.535,0-1.425-.089-2.316-.178a1.906,1.906,0,0,1-1.692-2.138l.624-3.83a1.889,1.889,0,0,1,2.138-1.514A3.543,3.543,0,0,1,152.393,53.614Z" transform="translate(-15.837 -1.682)" fill="#c21a3a"/>
  <g id="Group_1" data-name="Group 1" transform="translate(96.204 13.718)">
    <path id="Path_6" data-name="Path 6" d="M108,32.859c0-9.442,6.592-17.459,17.637-17.459s17.637,8.017,17.637,17.459c0,9.531-6.592,17.548-17.637,17.548C114.681,50.408,108,42.391,108,32.859Zm26.189,0c0-5.167-3.118-9.709-8.551-9.709s-8.462,4.454-8.462,9.709,3.029,9.709,8.462,9.709S134.189,38.115,134.189,32.859Z" transform="translate(-108 -15.4)" fill="#c21a3a"/>
  </g>
</svg>
