<svg id="Group_568" data-name="Group 568" xmlns="http://www.w3.org/2000/svg" width="316.796" height="37.361" viewBox="0 0 316.796 37.361">
  <path id="Path_488" data-name="Path 488" d="M170,277.656H163.56v10.365h-2.822V277.656H154.32v-2.021H170Z" transform="translate(-112.827 -275.36)" fill="#343434"/>
  <path id="Path_489" data-name="Path 489" d="M192.314,288.021h-2.773v-5.77h-8.166v5.77h-2.823V275.635h2.823v4.6h8.166v-4.6h2.773Z" transform="translate(-118.531 -275.36)" fill="#343434"/>
  <path id="Path_490" data-name="Path 490" d="M214.1,288h-13.55V275.635h12.929v2.021H203.327v2.75h6.149v2.047h-6.149V286H214.1Z" transform="translate(-123.71 -275.36)" fill="#343434"/>
  <path id="Path_491" data-name="Path 491" d="M244.871,288.021h-3.036l-2.084-3.17h-7.9l-2.032,3.17h-3.055l7.943-12.386h2.135Zm-6.417-5.219-2.672-4.122-2.673,4.122Z" transform="translate(-129.88 -275.36)" fill="#343434"/>
  <path id="Path_492" data-name="Path 492" d="M270.149,288.021h-2.773v-8.435l-5.65,6.44-5.612-6.418v8.413h-2.773V275.635h2.48l5.907,6.869,5.99-6.869h2.43Z" transform="translate(-136.135 -275.36)" fill="#343434"/>
  <path id="Path_493" data-name="Path 493" d="M294.17,288H280.622V275.635H293.55v2.021H283.395v2.75h6.147v2.047h-6.147V286H294.17Z" transform="translate(-142.556 -275.36)" fill="#343434"/>
  <path id="Path_494" data-name="Path 494" d="M317.228,288.021h-3.092l-3.818-5.145h-5.274v5.145h-2.771V275.635h9.216a7.4,7.4,0,0,1,3.588.772,3.046,3.046,0,0,1,1.681,2.818,3.109,3.109,0,0,1-1.142,2.395,5.324,5.324,0,0,1-2.238,1.132Zm-3.392-8.759q0-1.607-2.363-1.606h-6.43v3.172h6.312Q313.835,280.828,313.836,279.262Z" transform="translate(-147.652 -275.36)" fill="#343434"/>
  <path id="Path_495" data-name="Path 495" d="M329.6,288h-2.822V275.535H329.6Z" transform="translate(-153.42 -275.336)" fill="#343434"/>
  <path id="Path_496" data-name="Path 496" d="M350.751,284.617q-2.374,3.62-7.575,3.62a9.6,9.6,0,0,1-6.041-1.839,5.735,5.735,0,0,1,.245-9.467,9.9,9.9,0,0,1,5.8-1.656,10.719,10.719,0,0,1,4.05.762A8.475,8.475,0,0,1,350.5,278.4l-2.387,1.312a5.474,5.474,0,0,0-4.939-2.393,6.375,6.375,0,0,0-3.865,1.145,4.07,4.07,0,0,0-.012,6.58,6.412,6.412,0,0,0,3.877,1.141,6.249,6.249,0,0,0,5.38-2.835Z" transform="translate(-155.299 -275.275)" fill="#343434"/>
  <path id="Path_497" data-name="Path 497" d="M375.331,288.021H372.3l-2.087-3.17h-7.893l-2.035,3.17h-3.055l7.943-12.386H367.3Zm-6.418-5.219-2.671-4.122-2.674,4.122Z" transform="translate(-160.587 -275.36)" fill="#343434"/>
  <path id="Path_498" data-name="Path 498" d="M397.641,288.021h-1.606l-9.332-8.227v8.227h-2.773V275.635h1.647l9.292,8.2v-8.2h2.773Z" transform="translate(-166.873 -275.36)" fill="#343434"/>
  <path id="Path_499" data-name="Path 499" d="M174.056,315.858a3.694,3.694,0,0,1-2.086,3.61,11.139,11.139,0,0,1-4.688.764,9.8,9.8,0,0,1-5.128-1.032,3.667,3.667,0,0,1-1.61-3.341v-8.313h2.773v7.909q0,1.738.731,2.207a6.753,6.753,0,0,0,3.234.519,7.478,7.478,0,0,0,2.973-.38,2.4,2.4,0,0,0,1.029-2.346v-7.909h2.772Z" transform="translate(-114.292 -282.871)" fill="#343434"/>
  <path id="Path_500" data-name="Path 500" d="M196.659,319.931h-1.61l-9.331-8.233v8.233h-2.772V307.545h1.646l9.292,8.2v-8.2h2.773Z" transform="translate(-119.565 -282.871)" fill="#343434"/>
  <path id="Path_501" data-name="Path 501" d="M209.658,319.908h-2.822V307.445h2.822Z" transform="translate(-125.188 -282.847)" fill="#343434"/>
  <path id="Path_502" data-name="Path 502" d="M231.574,307.545l-7.9,12.386H221.9l-7.8-12.386h3.07l5.626,8.935,5.608-8.935Z" transform="translate(-126.898 -282.871)" fill="#343434"/>
  <path id="Path_503" data-name="Path 503" d="M253.729,319.907h-13.55V307.545h12.929v2.019H242.95v2.749H249.1v2.048H242.95v3.549h10.779Z" transform="translate(-133.037 -282.871)" fill="#343434"/>
  <path id="Path_504" data-name="Path 504" d="M276.785,319.931h-3.091l-3.818-5.144H264.6v5.144h-2.773V307.545h9.215a7.365,7.365,0,0,1,3.591.774,3.029,3.029,0,0,1,1.68,2.812,3.113,3.113,0,0,1-1.142,2.4,5.354,5.354,0,0,1-2.238,1.133Zm-3.393-8.763c0-1.066-.787-1.6-2.36-1.6H264.6v3.175h6.311Q273.39,312.739,273.392,311.168Z" transform="translate(-138.132 -282.871)" fill="#343434"/>
  <path id="Path_505" data-name="Path 505" d="M300.01,316.038q0,2.13-2.565,3.238a11.471,11.471,0,0,1-4.616.87,16.024,16.024,0,0,1-8.554-2.358l1.61-1.8a14.958,14.958,0,0,0,3.564,1.646,12.115,12.115,0,0,0,3.348.486,8.244,8.244,0,0,0,2.683-.415c1.1-.387,1.658-.953,1.658-1.708a1.347,1.347,0,0,0-.8-1.139,4,4,0,0,0-1.024-.453,10.887,10.887,0,0,0-1.4-.13L292.8,314.2q-.88-.036-3.05-.217a10.156,10.156,0,0,1-2.277-.511q-2.418-.873-2.419-2.711,0-1.861,2.3-2.828a10.427,10.427,0,0,1,4.078-.752,15.868,15.868,0,0,1,7.945,2.154l-1.62,1.774a12.24,12.24,0,0,0-6.294-1.88,6.559,6.559,0,0,0-2.634.467c-.6.262-.9.6-.9,1.016a.7.7,0,0,0,.56.726,4.446,4.446,0,0,0,1.466.443,21.4,21.4,0,0,0,2.4.213l2.242.132a8.034,8.034,0,0,1,3.6,1A3.191,3.191,0,0,1,300.01,316.038Z" transform="translate(-143.416 -282.786)" fill="#343434"/>
  <path id="Path_506" data-name="Path 506" d="M312.546,319.908h-2.821V307.445h2.821Z" transform="translate(-149.407 -282.847)" fill="#343434"/>
  <path id="Path_507" data-name="Path 507" d="M333.317,309.564h-6.443v10.367h-2.822V309.564h-6.418v-2.019h15.684Z" transform="translate(-151.268 -282.871)" fill="#343434"/>
  <path id="Path_508" data-name="Path 508" d="M357.833,307.545l-7.479,6.326v6.06h-2.772v-6.064l-7.467-6.322h3.6l5.272,4.44,5.245-4.44Z" transform="translate(-156.56 -282.871)" fill="#343434"/>
  <path id="Path_509" data-name="Path 509" d="M377.86,319.908h-2.823V307.445h2.823Z" transform="translate(-164.78 -282.847)" fill="#343434"/>
  <path id="Path_510" data-name="Path 510" d="M397.722,319.931h-1.608l-9.329-8.233v8.233h-2.773V307.545h1.645l9.293,8.2v-8.2h2.772Z" transform="translate(-166.892 -282.871)" fill="#343434"/>
  <path id="Path_511" data-name="Path 511" d="M428.131,316.524q-2.375,3.62-7.574,3.622a9.588,9.588,0,0,1-6.04-1.842,5.731,5.731,0,0,1,.241-9.463,9.913,9.913,0,0,1,5.8-1.658,10.722,10.722,0,0,1,4.049.764,8.375,8.375,0,0,1,3.274,2.367l-2.385,1.31a5.465,5.465,0,0,0-4.938-2.393,6.365,6.365,0,0,0-3.864,1.145,4.059,4.059,0,0,0-.013,6.575,6.382,6.382,0,0,0,3.877,1.145,6.242,6.242,0,0,0,5.378-2.835Z" transform="translate(-173.512 -282.786)" fill="#343434"/>
  <path id="Path_512" data-name="Path 512" d="M452.076,319.931H449.04l-2.086-3.171h-7.9l-2.033,3.171H433.97l7.942-12.386h2.135Zm-6.417-5.221-2.672-4.121-2.673,4.121Z" transform="translate(-178.652 -282.871)" fill="#343434"/>
  <path id="Path_513" data-name="Path 513" d="M463.529,319.908h-2.821V307.445h2.821Z" transform="translate(-184.945 -282.847)" fill="#343434"/>
  <path id="Path_514" data-name="Path 514" d="M485.149,319.931h-3.091l-3.819-5.144h-5.272v5.144h-2.772V307.545h9.214a7.338,7.338,0,0,1,3.585.774,3.03,3.03,0,0,1,1.685,2.812,3.11,3.11,0,0,1-1.145,2.4,5.349,5.349,0,0,1-2.236,1.133Zm-3.392-8.763c0-1.066-.791-1.6-2.363-1.6h-6.427v3.175h6.308Q481.754,312.739,481.757,311.168Z" transform="translate(-187.178 -282.871)" fill="#343434"/>
  <path id="Path_515" data-name="Path 515" d="M509.206,313.666a5.613,5.613,0,0,1-2.61,4.789,9.728,9.728,0,0,1-5.758,1.691A9.565,9.565,0,0,1,494.8,318.3a5.73,5.73,0,0,1,.242-9.463,10.926,10.926,0,0,1,11.574,0A5.613,5.613,0,0,1,509.206,313.666Zm-2.9,0a3.9,3.9,0,0,0-1.642-3.288,6.234,6.234,0,0,0-3.838-1.145,6.349,6.349,0,0,0-3.855,1.145,4.064,4.064,0,0,0-.012,6.575,6.346,6.346,0,0,0,3.867,1.145,6.249,6.249,0,0,0,3.849-1.13A3.917,3.917,0,0,0,506.31,313.663Z" transform="translate(-192.41 -282.786)" fill="#343434"/>
  <g id="Group_567" data-name="Group 567" transform="translate(0 2.791)">
    <path id="Path_516" data-name="Path 516" d="M112.449,282.714v-1.726l-1.918-2.062h17.388l.022,12.064-2.543-3.116V281.83h-10.12v1.989Z" transform="translate(-102.52 -278.926)" fill="#343434"/>
    <path id="Path_517" data-name="Path 517" d="M133.7,287.5V284.33l1.151-.287,1.559-2.733,5.134,16.115L130.2,300.9l2.111-3.217,5.443-1.915-2.472-8.612Z" transform="translate(-107.148 -279.487)" fill="#343434"/>
    <path id="Path_518" data-name="Path 518" d="M131.313,306.616l2.806-.936,1.294,1.774,3.094.145-13.646,9.832-6.834-9.832,3.98.863,3.43,4.819,7-5.011Z" transform="translate(-104.284 -285.223)" fill="#343434"/>
    <path id="Path_519" data-name="Path 519" d="M117.232,316.357,103.348,306.5l7.29-10.261.024,5.106-3.189,4.412,7.411,5.495,1.249-1.632,1.723,2.23-1.03,1.68Z" transform="translate(-100.829 -283.001)" fill="#343434"/>
    <path id="Path_520" data-name="Path 520" d="M106.193,296.561l-1.533,2.422-2.138-.36-2.469,1.317,5.445-16.907,11.078,4.2-3.716,1.489-5.422-1.775-3.162,9.091Z" transform="translate(-100.054 -279.892)" fill="#343434"/>
    <path id="Path_521" data-name="Path 521" d="M118.5,290.069l7.94-2.611.071,2.975-7.914,2.636Z" transform="translate(-104.395 -280.934)" fill="#343434"/>
    <path id="Path_522" data-name="Path 522" d="M126.306,293.249l2.684-1.054,4.436,6.281-2.851,1.007Z" transform="translate(-106.233 -282.049)" fill="#343434"/>
    <path id="Path_523" data-name="Path 523" d="M127.676,299.717l1.8,2.448-3.931,6.211-1.775-2.47Z" transform="translate(-105.635 -283.82)" fill="#343434"/>
    <path id="Path_524" data-name="Path 524" d="M121.381,304.153l-1.439,2.4-7.631-1.82,1.777-2.376Z" transform="translate(-102.939 -284.44)" fill="#343434"/>
    <path id="Path_525" data-name="Path 525" d="M114.013,290.84l2.614.842v7.483l-2.591-.5Z" transform="translate(-103.339 -281.73)" fill="#343434"/>
  </g>
</svg>
