<svg id="JjdTvB.tif" xmlns="http://www.w3.org/2000/svg" width="134.82" height="72.004" viewBox="0 0 134.82 72.004">
  <g id="Group_180" data-name="Group 180" transform="translate(0 0)">
    <path id="Path_340" data-name="Path 340" d="M958.632,30.642c-.945.429-1.921.8-2.83,1.3-9.2,4.994-16.91,11.853-24.193,19.258q-6.131,6.233-12.358,12.372a12.818,12.818,0,0,1-3.438,2.576,4.173,4.173,0,0,1-3.079.032c-1.13-.5-1.069-1.806-.828-2.95a37.894,37.894,0,0,1,4.791-11.67c2.816-4.689,5.837-9.255,8.791-13.861a9.044,9.044,0,0,1,1.052-1.155c1.271.534.666,1.187.262,1.826-2.748,4.343-5.66,8.594-8.184,13.064a94.628,94.628,0,0,0-4.794,10.439c-.391.945-.124,2.163-.16,3.255a9.893,9.893,0,0,0,2.756-1.247c2.85-2.586,5.638-5.248,8.332-8,7.419-7.57,14.817-15.161,23.662-21.123,2.347-1.582,4.811-2.992,7.237-4.456a8.586,8.586,0,0,1,1.573-.7c.965-.342,2.176-.764,2.735.291a3.466,3.466,0,0,1,.008,2.809,66.718,66.718,0,0,1-4.455,7.4,169.175,169.175,0,0,0-16.068,28.608c-3.051,6.833-5.893,13.759-8.784,20.662a10.073,10.073,0,0,0-.357,2.3c-1.028.345-1.372-.395-1.217-1.3a19.563,19.563,0,0,1,1.014-3.585c4.609-12.226,9.574-24.3,16.244-35.575,2.983-5.04,6.376-9.836,9.545-14.767,1.127-1.753,2.14-3.578,3.205-5.37Z" transform="translate(-911.761 -22.335)" fill="#343434"/>
    <path id="Path_341" data-name="Path 341" d="M1138.847,72.741c3.289-1.658,6.564-3.342,9.868-4.966a94.133,94.133,0,0,1,24.876-8.369,71.766,71.766,0,0,1,19.137-.441c.414.036.79.5,1.184.761-.439.28-.933.863-1.309.8-12.8-2.3-24.853.686-36.558,5.408-5.769,2.327-11.249,5.369-16.863,8.083-.709.343-1.43.659-2.146.987l-.383-.274a6.531,6.531,0,0,1,.463-1.926,132.637,132.637,0,0,1,7.126-11.339c8.243-10.895,16.7-21.631,25.1-32.406,4.29-5.5,8.658-10.943,12.95-16.443a30.6,30.6,0,0,0,2.27-3.508c.634-1.092.317-1.764-.93-1.86a16.43,16.43,0,0,0-3.309.13c-6.705.856-13.046,3.113-19.454,5.112-.664.207-1.34.372-2.011.556l-.332-.435c.307-.341.55-.853.932-1,7.2-2.689,14.424-5.31,22.142-6.077,1.544-.153,3.418-.424,4.371,1.133.9,1.479-.014,3.028-.914,4.27-3.075,4.243-6.16,8.482-9.385,12.611-9.535,12.212-19.2,24.323-28.68,36.578-3.048,3.94-5.675,8.2-8.495,12.321Z" transform="translate(-1071.634 -5.413)" fill="#343434"/>
    <path id="Path_342" data-name="Path 342" d="M1032.138,148.05l-.1.614c-1.054.98-1.039,1-1.283-.154l.118-1.4c.011-.13.006-.29-.109-.351-.147-.078-.3.083-.392.224q-.892,1.425-1.653,2.926c-.292.577-.554,1.323-.143,1.822a7.692,7.692,0,0,0,3.467-3.166c.619-1.086.823-2.363,1.6-3.182a.559.559,0,0,1,.953.276.1.1,0,0,1,0,.03,9.253,9.253,0,0,1-.2.926,9.412,9.412,0,0,1-.669,1.769,26.259,26.259,0,0,0-1.391,3.567.009.009,0,0,0,.015.01c1.329-1.213,2.715-2.371,3.97-3.656,1.041-1.066,1.993-2.22,2.949-3.365a.4.4,0,0,1,.712.3c-.192,1.651-1.5,3.164-1.593,4.842a.01.01,0,0,0,.017.006l2.911-3.7c.174-.221.371-.214.6-.048.342.247-.01,1.3-.062,1.659l-.282,1.975c.017-.12.319-.35.4-.439.161-.17.326-.337.488-.506a9.906,9.906,0,0,0,.919-1.069,3.819,3.819,0,0,0,.594-1.18c.122-.437.018-.974.276-1.361a1.6,1.6,0,0,1,.311-.319,5.4,5.4,0,0,1,1.225-.936.661.661,0,0,1,.622.03.669.669,0,0,1,.232.651,2.1,2.1,0,0,1-.275.671c-.246.45-.475.909-.705,1.368a6.525,6.525,0,0,0,1.523.249,3.564,3.564,0,0,0,1.566-.415c.407-.235.762-.542,1.155-.8a2.237,2.237,0,0,1,1.356-.448,1.486,1.486,0,0,1,.17.035q.235.059.465.136a.293.293,0,0,1,.1.05c.129.112.068.487.053.639a1.675,1.675,0,0,0,.037.69,6.3,6.3,0,0,0,.888-1.261,1.1,1.1,0,0,1,.294-.348.361.361,0,0,1,.426,0,.5.5,0,0,1,.118.386,5.756,5.756,0,0,1-.885,2.5q-.388.767-.79,1.527a8.146,8.146,0,0,0-.583,1.063c-.066.189.016.462.216.465a.423.423,0,0,0,.271-.143c.939-.853,1.872-1.7,2.8-2.566a12.026,12.026,0,0,1,2.355-1.784.318.318,0,0,1,.46.356v0a2.294,2.294,0,0,1-.3.611,5.608,5.608,0,0,1-.961,1.022c-.97.868-1.92,1.759-2.923,2.589-.517.427-1.048.838-1.6,1.219-.407.282-1.052.571-1.478.145a.682.682,0,0,1-.141-.257,6.973,6.973,0,0,1-.269-.935c-.749-.015-1.491.128-2.24.128a.732.732,0,0,1-.56-.2.8.8,0,0,1-.155-.348,8.258,8.258,0,0,1,.021-2.541.444.444,0,0,0-.036-.261c-.1-.17-.751-.117-.932-.132q-.636-.052-1.272-.1c-.594.637-1.171,1.288-1.769,1.921a5.97,5.97,0,0,1-1.864,1.629.61.61,0,0,1-.378.041.694.694,0,0,1-.339-.283,3.813,3.813,0,0,1-.584-1.16c.009.029-.48.583-.532.652a7.917,7.917,0,0,1-.631.761,1.993,1.993,0,0,1-1.677.714.424.424,0,0,1-.2-.064.415.415,0,0,1-.126-.175,2.226,2.226,0,0,1-.029-1.443,11.771,11.771,0,0,0,.364-1.424c-.742.575-1.413,1.274-2.1,1.909a27.936,27.936,0,0,0-2.9,2.9c-2.272,2.8-3.7,6.287-5.031,9.607-.242.6-.481,1.21-.721,1.815a63.533,63.533,0,0,1-3.454,7.681c-.681,1.219-1.59,2.5-2.96,2.77a4.024,4.024,0,0,1-.115-3.141c2-7.524,7.921-13.369,10.956-20.538a5.709,5.709,0,0,1-1.73.457,1.929,1.929,0,0,1-1.612-.631c-.375-.473-.419-1.141-.773-1.63a11.14,11.14,0,0,1-2.945,2.109,2,2,0,0,1-.971.27.776.776,0,0,1-.744-.579c-.031-.2.03-.432-.109-.575a.48.48,0,0,0-.328-.11c-.474-.024-.944.094-1.419.115-.7.031-1.5-.2-1.564-1.159a1.872,1.872,0,0,1,.229-.993,12.2,12.2,0,0,1,2.815-3.511,2.03,2.03,0,0,1,1.51-.646,1.136,1.136,0,0,1,.875,1.431,1.6,1.6,0,0,1,.887-.881.61.61,0,0,1,.6.152c.281.3.1.713-.074,1.04l-1.081,2a3.737,3.737,0,0,0-.65,2.3l5.523-5.2a3.514,3.514,0,0,1,1.13-.81,1.2,1.2,0,0,1,1.3.231,2.723,2.723,0,0,1,.406,1.03A2.834,2.834,0,0,1,1032.138,148.05Zm-5.3,13.471c-2.362,3.871-4.84,7.684-6.054,12.132a.01.01,0,0,0,.017.008c2.814-3.644,4.349-7.93,6.052-12.132A.009.009,0,0,0,1026.842,161.521Zm22.837-14.124L1048.238,150c-.121.371-.1.776.666.484l2.129-2.272a.737.737,0,0,0-.214-1.167l-.016-.008A.868.868,0,0,0,1049.679,147.4Zm-27.117-.006h0a.758.758,0,0,0-1.006.263c-.44.708-.809,1.377-1.244,2.08a.586.586,0,0,0,.367.876h0a1.319,1.319,0,0,0,1.4-.547c.308-.46.481-.908.8-1.376A.9.9,0,0,0,1022.562,147.391Z" transform="translate(-987.668 -104.003)" fill="#343434"/>
    <path id="Path_343" data-name="Path 343" d="M1225.947,95.3a19.933,19.933,0,0,0,6.384-6.943,64.807,64.807,0,0,0,4.021-8.835,84.177,84.177,0,0,1,6.805-14.132c.366,1.673-.412,3.359-1.157,4.9q-4.632,9.581-8.641,19.447a7.306,7.306,0,0,1,2.274-1.494c.241-.1.558-.172.731.023a.674.674,0,0,1,.081.547,10.147,10.147,0,0,1-.186,1.332l-.2,1.41c-.124.889-.254,1.776-.356,2.668.675.157,1.721-1.643,2.565-2.271a3.071,3.071,0,0,0,.953-1.465c.281-.669.638-1.116.923-1.784.422-.987,1.87-1.83,2.618-.679.523.806-.29,1.859-.88,2.411a8.256,8.256,0,0,0,.946.5,1.422,1.422,0,0,1,.727.747,1.7,1.7,0,0,1-.084,1.012,17.085,17.085,0,0,1-.719,1.927,5.581,5.581,0,0,1-.669,1.474c2.224-1.815,4.443-3.632,6.647-5.473a5.511,5.511,0,0,1,1.16-.811,2.758,2.758,0,0,1,1.1-.258.522.522,0,0,1,.315.067c.284.2.411.974.516,1.272l.846-1.138a.644.644,0,0,1,.222-.215c.231-.11.511.106.564.356a1.267,1.267,0,0,1-.147.741c-.4.929-.841,1.836-1.3,2.734-.211.409-.483.782-.676,1.2a1.48,1.48,0,0,0-.194.675c.021.26.3.31.5.2a1.191,1.191,0,0,0,.314-.284,17.052,17.052,0,0,1,1.289-1.29c.441-.406.835-.871,1.248-1.306a16.175,16.175,0,0,1,3.712-3.312c.063-.034.157-.061.195,0a.145.145,0,0,1,.014.08,6.339,6.339,0,0,1-.184,1.544,5.458,5.458,0,0,1-.257.745q-.081.189-.175.371c-.039.075-.187.249-.187.329.4-.654,2.279-3.3,3.334-2.8a.518.518,0,0,1,.246.267c.573,1.35-.442,3.265-1.126,4.439l3.85-2.436a7.473,7.473,0,0,1,1.887-.957.524.524,0,0,1,.593.186c.2.313-.139.666-.437.87l-5.734,3.929a1.134,1.134,0,0,1-1.115.121c-.7-.33-.527-1.205-.292-1.855.326-.9,1.46-2.369,1.021-2.686-.18-.015-.5.576-.722.815-.521.563-1,1.158-1.518,1.727l-1.264,1.4-.644.714a4.831,4.831,0,0,1-.574.64.622.622,0,0,1-.98-.481,5.413,5.413,0,0,1,.323-1.655c-1.143.7-1.9,1.836-3.27,2.233a1.231,1.231,0,0,1-1.136-.11c-.144-.113-.682-1.167-.444-1.252l-.786.284a3.158,3.158,0,0,1-1.222.266c-.94-.05-1.161-.937-1.29-1.711-.887.7-1.764,1.4-2.665,2.082a4.1,4.1,0,0,1-2.428,1.163.679.679,0,0,1-.386-.105.761.761,0,0,1-.2-.71,6.571,6.571,0,0,1,.845-2.356c.091-.173,1.2-2.041,1.027-2.15-1.46-.931-2.966.29-4.034,1.25-.613.552-1.185,1.157-1.839,1.662-.265.2-2.305,1.368-2.428.794-.395-1.85.423-3.7.762-5.572a.411.411,0,0,0-.627-.417c-3.025,1.945-3.161,3.342-3.88,5.949a.515.515,0,0,1-.705.354c-.257-.112-.228-.338-.195-.534l.312-1.825a21.894,21.894,0,0,1-2.981,2.523,2.723,2.723,0,0,1-1,.5,1.508,1.508,0,0,1-1.72-1.435,3.381,3.381,0,0,1-1.979.556,1.342,1.342,0,0,1-.6-.226c-.74-.521-.571-1.435-.273-2.157a7.94,7.94,0,0,1,2.7-3.4,2.277,2.277,0,0,1,1.443-.537.967.967,0,0,1,.928,1.034,1.807,1.807,0,0,1,.892-.989.674.674,0,0,1,.786.208.882.882,0,0,1-.079.906l-2.194,4.559Zm21.635-1.143a1.6,1.6,0,0,0,.051.555.142.142,0,0,0,.03.073c.035.036.1.025.143.007a2.767,2.767,0,0,0,.785-.61l.862-.771,1.727-1.544a.318.318,0,0,0-.064-.518l-.017-.009a1.523,1.523,0,0,0-1.974.5l-.813,1.208-.4.6a2.652,2.652,0,0,0-.3.429A.445.445,0,0,0,1247.582,94.153Zm-23.44-2.737L1223.219,93l-.461.792c-.127.219-.343.465-.337.727a.313.313,0,0,0,.073.236c.1.087.262.04.379.039a.245.245,0,0,0,.106-.014.2.2,0,0,0,.051-.042c.394-.4.792-.8,1.188-1.2s.8-.872,1.237-1.248a.746.746,0,0,0-.177-1.182l-.016-.009A.839.839,0,0,0,1224.141,91.416Z" transform="translate(-1131.634 -48.046)" fill="#343434"/>
  </g>
</svg>
