<svg xmlns="http://www.w3.org/2000/svg" width="107.599" height="32.867" viewBox="0 0 107.599 32.867">
  <g id="Group_3" data-name="Group 3" transform="translate(0 0)">
    <path id="Path_12" data-name="Path 12" d="M2031.826-1862.709c.864,1.656,3.484,2.843,3.062,5.815-2.992.495-3.9-2.323-5.493-3.733-1.865.549-3.6,1.393-5.389,1.532-9.582.744-17.445-10.4-13.9-19.534a17.735,17.735,0,0,1,6.492-8.4,6.034,6.034,0,0,1,5.729-.823c6.237,1.87,12.894,11.361,11.384,19.27A51.368,51.368,0,0,1,2031.826-1862.709Zm-2.035-3.022a26.511,26.511,0,0,0,.928-4.146c.445-7.545-4.548-11.981-9.219-16.58a1.33,1.33,0,0,0-.332-.169c-1.27-.663-2.4-.618-3.24.714-1.275,2.031-2.573,4.049-3.781,6.121a11.7,11.7,0,0,0,6.156,17.121,6.909,6.909,0,0,0,6.7-.732c-1.023-2.844-4.578-4.534-3.337-8.267C2026.951-1871.118,2027.353-1867.654,2029.79-1865.731Z" transform="translate(-2009.235 1889.703)" fill="#343434"/>
    <path id="Path_13" data-name="Path 13" d="M2412.041-1897.486l9,24.964.559-.133c1.293-4.2.618-9.12,4.36-12.584,4.458,3.312,3.662,9.089,6.526,13.427.754-3.045,1.5-6.092,2.265-9.135,1.221-4.861,2.433-9.724,3.7-14.572a22.5,22.5,0,0,1,1.239-2.892c-.027,7.427-1.561,18.72-3.464,24.631a55.966,55.966,0,0,1-2.458,5.542c-.487,1.087-1.392,1.229-2.1.54a11.9,11.9,0,0,1-2.851-3.61c-1.042-2.5-1.664-5.182-2.57-8.144-1.475,4.49-.8,9.369-4.278,13.286-6.959-9.308-9.622-19.93-10.5-31.2Z" transform="translate(-2361.284 1898.591)" fill="#343434"/>
    <path id="Path_14" data-name="Path 14" d="M2646.958-1887.072c2.429,6.224,4.293,12.408,3.3,19.5l-5.989-17.746c-2.636,1.7-5.224,3.312-7.738,5.039-.422.29-.574,1.052-.762,1.626a90.187,90.187,0,0,1-3.592,9.792v-8.326l-7.62,2.4-.441-.855c1.608-1.279,3.051-2.942,4.86-3.752,3.34-1.5,4.824-3.761,5.069-7.5a27.625,27.625,0,0,1,3.377-11.629c.784-1.42,1.788-1.718,2.786-.722a30.857,30.857,0,0,1,3.854,4.795,30.767,30.767,0,0,1,1.97,4.192c2.8-1.878,5.472-3.787,8.965-3.619C2653.3-1890.549,2649.983-1889.174,2646.958-1887.072Zm-10.348,2.321.518.268,6.255-4.076-3.44-7.092-.82.056Z" transform="translate(-2547.398 1899.83)" fill="#343434"/>
    <path id="Path_15" data-name="Path 15" d="M2249.915-1887.979c.706,2.787,1.519,5.551,2.1,8.366.917,4.477,1.575,9.012,2.562,13.472a10.343,10.343,0,0,0,2.059,4.009c1.7,2.134,3.829,1.774,4.666-.816a18.534,18.534,0,0,0,1.059-5.965c-.146-6.594-.557-13.182-.5-19.963,1,2.49,2.458,4.9,2.91,7.487a45.843,45.843,0,0,1,.235,16.914,15.2,15.2,0,0,1-1.006,3.264c-1.784,3.956-6.044,4.947-9.023,1.813a17.274,17.274,0,0,1-3.432-6c-2.224-6.2-2.8-13.581-2.156-22.418Z" transform="translate(-2219.206 1890.275)" fill="#343434"/>
  </g>
</svg>
