<svg xmlns="http://www.w3.org/2000/svg" width="131.098" height="52.589" viewBox="0 0 131.098 52.589">
  <g id="Group_2496" data-name="Group 2496" transform="translate(-707.201 -1459.827)">
    <g id="Group_566" data-name="Group 566" transform="translate(733.24 1459.828)">
      <path id="Path_472" data-name="Path 472" d="M582.894,275.073a3.811,3.811,0,0,0,4.2,3.216,2.727,2.727,0,0,0,2.932-2.932c0-3.949-7.96-2.4-7.96-7.268,0-2.178,1.5-3.806,4.234-3.806A4.639,4.639,0,0,1,591,267.8l-1.162.347a3.586,3.586,0,0,0-3.541-2.769,2.605,2.605,0,0,0-2.89,2.707c0,1,.284,1.71,2.99,2.729,4.134,1.547,4.969,2.565,4.969,4.682,0,2.5-2.1,3.889-4.479,3.889-2.809,0-4.418-1.242-5.233-3.93Z" transform="translate(-581.653 -264.283)" fill="#343434"/>
      <path id="Path_473" data-name="Path 473" d="M606.005,268.8c-.632-2.158-1.812-3.419-3.583-3.419-2.912,0-4.194,2.85-4.194,6.453s1.282,6.454,4.335,6.454c2.362,0,3.218-1.67,3.705-3.583l1.263.225c-.549,2.625-1.913,4.458-4.988,4.458-3.562,0-5.659-3.014-5.659-7.554s2.1-7.552,5.659-7.552c2.627,0,4.073,1.853,4.7,4.254Z" transform="translate(-585.238 -264.283)" fill="#343434"/>
      <path id="Path_474" data-name="Path 474" d="M614.54,264.549h1.344v6.515h7.938v-6.515h1.344v14.7h-1.344v-7.083h-7.938v7.083H614.54Z" transform="translate(-589.394 -264.346)" fill="#343434"/>
      <path id="Path_475" data-name="Path 475" d="M643.986,271.835c0,4.336-2.119,7.554-5.8,7.554s-5.8-3.217-5.8-7.554,2.116-7.552,5.8-7.552S643.986,267.5,643.986,271.835Zm-1.344,0c0-4.132-1.752-6.453-4.458-6.453s-4.458,2.321-4.458,6.453,1.75,6.454,4.458,6.454S642.642,275.969,642.642,271.835Z" transform="translate(-593.594 -264.283)" fill="#343434"/>
      <path id="Path_476" data-name="Path 476" d="M661.745,271.835c0,4.336-2.116,7.554-5.8,7.554s-5.8-3.217-5.8-7.554,2.117-7.552,5.8-7.552S661.745,267.5,661.745,271.835Zm-1.343,0c0-4.132-1.75-6.453-4.458-6.453s-4.459,2.321-4.459,6.453,1.753,6.454,4.459,6.454S660.4,275.969,660.4,271.835Z" transform="translate(-597.774 -264.283)" fill="#343434"/>
      <path id="Path_477" data-name="Path 477" d="M669.289,264.549h1.342v13.6h6.555v1.1h-7.9Z" transform="translate(-602.281 -264.346)" fill="#343434"/>
      <path id="Path_478" data-name="Path 478" d="M700.224,271.835c0,4.336-2.116,7.554-5.8,7.554s-5.8-3.217-5.8-7.554,2.119-7.552,5.8-7.552S700.224,267.5,700.224,271.835Zm-1.343,0c0-4.132-1.75-6.453-4.459-6.453s-4.458,2.321-4.458,6.453,1.749,6.454,4.458,6.454S698.88,275.969,698.88,271.835Z" transform="translate(-606.831 -264.283)" fill="#343434"/>
      <path id="Path_479" data-name="Path 479" d="M707.765,279.247v-14.7H716.4v1.1h-7.288v5.416h5.315v1.1h-5.315v7.083Z" transform="translate(-611.337 -264.346)" fill="#343434"/>
      <path id="Path_480" data-name="Path 480" d="M582.8,289.373h4.78c3.645,0,5.74,1.529,5.74,4.585a4.186,4.186,0,0,1-2.193,3.7c1.874,1.182,2.613,2.168,2.613,4.387,0,3.524-2.365,5.127-5.963,5.127H582.8Zm3.4,7.049h1.183c1.528,0,2.536-.886,2.536-2.094,0-1.307-.764-2.145-2.366-2.145H586.2Zm0,7.934h1.427a2.432,2.432,0,0,0,2.711-2.588c0-1.7-1.183-2.536-2.955-2.536H586.2Z" transform="translate(-581.923 -270.189)" fill="#343434"/>
      <path id="Path_481" data-name="Path 481" d="M604.607,289.373v12.446c0,1.7.739,2.587,2.39,2.587s2.415-.887,2.415-2.587V289.373h3.4v12.471c0,3.918-2.315,5.568-5.815,5.568s-5.791-1.65-5.791-5.568V289.373Z" transform="translate(-586.255 -270.189)" fill="#343434"/>
      <path id="Path_482" data-name="Path 482" d="M628.157,294.253c-.567-1.678-1.305-2.391-2.488-2.391a1.745,1.745,0,0,0-1.873,1.947c0,2.685,7.589,2.881,7.589,8.451,0,3.055-2.093,5.076-5.667,5.076-2.759,0-4.9-1.5-5.815-5l3.351-.715c.395,2.143,1.626,2.908,2.638,2.908a2,2,0,0,0,2.1-2.119c0-3.351-7.591-3.4-7.591-8.378,0-3.056,1.826-4.978,5.347-4.978a5.29,5.29,0,0,1,5.471,4.312Z" transform="translate(-590.656 -270.113)" fill="#343434"/>
      <path id="Path_483" data-name="Path 483" d="M639.274,307.167V289.373h3.4v17.794Z" transform="translate(-595.216 -270.189)" fill="#343434"/>
      <path id="Path_484" data-name="Path 484" d="M648.463,307.167V289.373h3.72l4.733,10.548h.047V289.373h3.107v17.794h-3.253l-5.2-11.485h-.05v11.485Z" transform="translate(-597.379 -270.189)" fill="#343434"/>
      <path id="Path_485" data-name="Path 485" d="M668.126,307.167V289.373h9.314v3.009h-5.913v4.089h4.508v3.007h-4.508v4.682h6.16v3.008Z" transform="translate(-602.007 -270.189)" fill="#343434"/>
      <path id="Path_486" data-name="Path 486" d="M691.756,294.253c-.567-1.678-1.306-2.391-2.489-2.391a1.745,1.745,0,0,0-1.873,1.947c0,2.685,7.59,2.881,7.59,8.451,0,3.055-2.093,5.076-5.668,5.076-2.758,0-4.9-1.5-5.814-5l3.351-.715c.393,2.143,1.626,2.908,2.637,2.908a2,2,0,0,0,2.1-2.119c0-3.351-7.592-3.4-7.592-8.378,0-3.056,1.825-4.978,5.349-4.978a5.291,5.291,0,0,1,5.471,4.312Z" transform="translate(-605.626 -270.113)" fill="#343434"/>
      <path id="Path_487" data-name="Path 487" d="M709.9,294.253c-.567-1.678-1.306-2.391-2.489-2.391a1.745,1.745,0,0,0-1.872,1.947c0,2.685,7.59,2.881,7.59,8.451,0,3.055-2.1,5.076-5.668,5.076-2.759,0-4.9-1.5-5.814-5l3.351-.715c.394,2.143,1.626,2.908,2.636,2.908a2,2,0,0,0,2.094-2.119c0-3.351-7.59-3.4-7.59-8.378,0-3.056,1.824-4.978,5.348-4.978a5.291,5.291,0,0,1,5.471,4.312Z" transform="translate(-609.898 -270.113)" fill="#343434"/>
      <rect id="Rectangle_348" data-name="Rectangle 348" width="102.302" height="8.773" transform="translate(0.543 41.309)" fill="#343434"/>
    </g>
    <line id="Line_1" data-name="Line 1" y2="51.548" transform="translate(707.701 1460.369)" fill="none" stroke="#002341" stroke-linecap="square" stroke-width="1"/>
  </g>
</svg>
