<svg id="Group_571" data-name="Group 571" xmlns="http://www.w3.org/2000/svg" xmlns:xlink="http://www.w3.org/1999/xlink" width="275.285" height="64.754" viewBox="0 0 275.285 64.754">
  <defs>
    <clipPath id="clip-path">
      <circle id="Ellipse_30" data-name="Ellipse 30" cx="1.528" cy="1.528" r="1.528" fill="#343434"/>
    </clipPath>
  </defs>
  <g id="Group_224" data-name="Group 224" transform="translate(0 0)">
    <g id="Group_223" data-name="Group 223" transform="translate(0)">
      <g id="Group_222" data-name="Group 222">
        <g id="Group_197" data-name="Group 197">
          <g id="Group_196" data-name="Group 196">
            <path id="Path_375" data-name="Path 375" d="M76.046,93.1A32.388,32.388,0,1,1,96.854,35.916a1.54,1.54,0,0,1-1.981,2.359,29.282,29.282,0,1,0,8.718,32.453,1.54,1.54,0,1,1,2.9,1.052A32.373,32.373,0,0,1,76.046,93.1Z" transform="translate(-43.67 -28.347)" fill="#343434"/>
          </g>
        </g>
        <g id="Group_200" data-name="Group 200" transform="translate(61.222 25.485)">
          <g id="Group_199" data-name="Group 199">
            <circle id="Ellipse_29" data-name="Ellipse 29" cx="1.528" cy="1.528" r="1.528" fill="#343434"/>
            <g id="Group_198" data-name="Group 198" clip-path="url(#clip-path)">
              <path id="Path_376" data-name="Path 376" d="M88.041,45.59l-3.056-.018v-.027h3.056Z" transform="translate(-84.985 -45.546)" fill="#343434"/>
              <path id="Path_377" data-name="Path 377" d="M88.041,45.8l-3.056-.018v-.219l3.056.018Z" transform="translate(-84.985 -45.537)" fill="#343434"/>
              <path id="Path_378" data-name="Path 378" d="M88.041,45.948l-3.056-.018v-.219l3.056.018Z" transform="translate(-84.985 -45.466)" fill="#343434"/>
              <path id="Path_379" data-name="Path 379" d="M88.041,46.1l-3.056-.018v-.219l3.056.018Z" transform="translate(-84.985 -45.395)" fill="#343434"/>
              <path id="Path_380" data-name="Path 380" d="M88.041,46.243l-3.056-.018v-.219l3.056.018Z" transform="translate(-84.985 -45.324)" fill="#343434"/>
              <path id="Path_381" data-name="Path 381" d="M88.041,46.391l-3.056-.018v-.219l3.056.018Z" transform="translate(-84.985 -45.252)" fill="#343434"/>
              <path id="Path_382" data-name="Path 382" d="M88.041,46.538l-3.056-.018V46.3l3.056.018Z" transform="translate(-84.985 -45.181)" fill="#343434"/>
              <path id="Path_383" data-name="Path 383" d="M88.041,46.686l-3.056-.018v-.219l3.056.018Z" transform="translate(-84.985 -45.11)" fill="#343434"/>
              <path id="Path_384" data-name="Path 384" d="M88.041,46.833l-3.056-.018V46.6l3.056.018Z" transform="translate(-84.985 -45.039)" fill="#343434"/>
              <path id="Path_385" data-name="Path 385" d="M88.041,46.981l-3.056-.018v-.219l3.056.018Z" transform="translate(-84.985 -44.968)" fill="#343434"/>
              <path id="Path_386" data-name="Path 386" d="M88.041,47.129l-3.056-.018v-.219l3.056.018Z" transform="translate(-84.985 -44.897)" fill="#343434"/>
              <path id="Path_387" data-name="Path 387" d="M88.041,47.276l-3.056-.018V47.04l3.056.018Z" transform="translate(-84.985 -44.826)" fill="#343434"/>
              <path id="Path_388" data-name="Path 388" d="M88.041,47.424l-3.056-.018v-.219l3.056.018Z" transform="translate(-84.985 -44.755)" fill="#343434"/>
              <path id="Path_389" data-name="Path 389" d="M88.041,47.571l-3.056-.018v-.219l3.056.018Z" transform="translate(-84.985 -44.683)" fill="#343434"/>
              <path id="Path_390" data-name="Path 390" d="M84.985,47.482l3.056.018v.168H84.985Z" transform="translate(-84.985 -44.612)" fill="#343434"/>
            </g>
          </g>
        </g>
        <g id="Group_203" data-name="Group 203" transform="translate(61.686 30.849)">
          <g id="Group_202" data-name="Group 202">
            <circle id="Ellipse_31" data-name="Ellipse 31" cx="1.528" cy="1.528" r="1.528" fill="#343434"/>
            <g id="Group_201" data-name="Group 201" clip-path="url(#clip-path)">
              <path id="Path_391" data-name="Path 391" d="M88.354,49.317,85.3,49.3v-.134h3.056Z" transform="translate(-85.298 -49.165)" fill="#343434"/>
              <path id="Path_392" data-name="Path 392" d="M88.354,49.492,85.3,49.474v-.219l3.056.018Z" transform="translate(-85.298 -49.121)" fill="#343434"/>
              <path id="Path_393" data-name="Path 393" d="M88.354,49.64,85.3,49.622V49.4l3.056.018Z" transform="translate(-85.298 -49.05)" fill="#343434"/>
              <path id="Path_394" data-name="Path 394" d="M88.354,49.787,85.3,49.77v-.219l3.056.018Z" transform="translate(-85.298 -48.979)" fill="#343434"/>
              <path id="Path_395" data-name="Path 395" d="M88.354,49.935,85.3,49.917V49.7l3.056.018Z" transform="translate(-85.298 -48.908)" fill="#343434"/>
              <path id="Path_396" data-name="Path 396" d="M88.354,50.083,85.3,50.065v-.219l3.056.018Z" transform="translate(-85.298 -48.837)" fill="#343434"/>
              <path id="Path_397" data-name="Path 397" d="M88.354,50.23,85.3,50.212v-.219l3.056.018Z" transform="translate(-85.298 -48.766)" fill="#343434"/>
              <path id="Path_398" data-name="Path 398" d="M88.354,50.378,85.3,50.36v-.219l3.056.018Z" transform="translate(-85.298 -48.695)" fill="#343434"/>
              <path id="Path_399" data-name="Path 399" d="M88.354,50.525,85.3,50.508v-.219l3.056.018Z" transform="translate(-85.298 -48.624)" fill="#343434"/>
              <path id="Path_400" data-name="Path 400" d="M88.354,50.673,85.3,50.655v-.219l3.056.018Z" transform="translate(-85.298 -48.552)" fill="#343434"/>
              <path id="Path_401" data-name="Path 401" d="M88.354,50.821,85.3,50.8v-.219l3.056.018Z" transform="translate(-85.298 -48.481)" fill="#343434"/>
              <path id="Path_402" data-name="Path 402" d="M88.354,50.968,85.3,50.95v-.219l3.056.018Z" transform="translate(-85.298 -48.41)" fill="#343434"/>
              <path id="Path_403" data-name="Path 403" d="M88.354,51.116,85.3,51.1v-.219l3.056.018Z" transform="translate(-85.298 -48.339)" fill="#343434"/>
              <path id="Path_404" data-name="Path 404" d="M88.354,51.263,85.3,51.246v-.219l3.056.018Z" transform="translate(-85.298 -48.268)" fill="#343434"/>
              <path id="Path_405" data-name="Path 405" d="M85.3,51.175l3.056.018v.06H85.3Z" transform="translate(-85.298 -48.197)" fill="#343434"/>
            </g>
          </g>
        </g>
        <g id="Group_207" data-name="Group 207" transform="translate(59.849 20.34)">
          <g id="Group_206" data-name="Group 206">
            <g id="Group_205" data-name="Group 205">
              <circle id="Ellipse_33" data-name="Ellipse 33" cx="1.528" cy="1.528" r="1.528" fill="#343434"/>
              <g id="Group_204" data-name="Group 204" clip-path="url(#clip-path)">
                <path id="Path_406" data-name="Path 406" d="M84.059,42.074v0Z" transform="translate(-84.059 -42.073)" fill="#343434"/>
                <rect id="Rectangle_118" data-name="Rectangle 118" width="0.027" height="3.056" fill="#343434"/>
                <rect id="Rectangle_119" data-name="Rectangle 119" width="0.027" height="3.056" transform="translate(0.027)" fill="#343434"/>
                <rect id="Rectangle_120" data-name="Rectangle 120" width="0.027" height="3.056" transform="translate(0.053)" fill="#343434"/>
                <rect id="Rectangle_121" data-name="Rectangle 121" width="0.027" height="3.056" transform="translate(0.08)" fill="#343434"/>
                <rect id="Rectangle_122" data-name="Rectangle 122" width="0.027" height="3.056" transform="translate(0.106)" fill="#343434"/>
                <rect id="Rectangle_123" data-name="Rectangle 123" width="0.027" height="3.056" transform="translate(0.133)" fill="#343434"/>
                <rect id="Rectangle_124" data-name="Rectangle 124" width="0.027" height="3.056" transform="translate(0.159)" fill="#343434"/>
                <rect id="Rectangle_125" data-name="Rectangle 125" width="0.027" height="3.056" transform="translate(0.186)" fill="#343434"/>
                <rect id="Rectangle_126" data-name="Rectangle 126" width="0.027" height="3.056" transform="translate(0.213)" fill="#343434"/>
                <rect id="Rectangle_127" data-name="Rectangle 127" width="0.027" height="3.056" transform="translate(0.239)" fill="#343434"/>
                <rect id="Rectangle_128" data-name="Rectangle 128" width="0.027" height="3.056" transform="translate(0.266)" fill="#343434"/>
                <rect id="Rectangle_129" data-name="Rectangle 129" width="0.027" height="3.056" transform="translate(0.292)" fill="#343434"/>
                <rect id="Rectangle_130" data-name="Rectangle 130" width="0.027" height="3.056" transform="translate(0.319)" fill="#343434"/>
                <rect id="Rectangle_131" data-name="Rectangle 131" width="0.027" height="3.056" transform="translate(0.345)" fill="#343434"/>
                <rect id="Rectangle_132" data-name="Rectangle 132" width="0.027" height="3.056" transform="translate(0.372)" fill="#343434"/>
                <rect id="Rectangle_133" data-name="Rectangle 133" width="0.027" height="3.056" transform="translate(0.399)" fill="#343434"/>
                <rect id="Rectangle_134" data-name="Rectangle 134" width="0.027" height="3.056" transform="translate(0.425)" fill="#343434"/>
                <rect id="Rectangle_135" data-name="Rectangle 135" width="0.027" height="3.056" transform="translate(0.452)" fill="#343434"/>
                <rect id="Rectangle_136" data-name="Rectangle 136" width="0.027" height="3.056" transform="translate(0.478)" fill="#343434"/>
                <rect id="Rectangle_137" data-name="Rectangle 137" width="0.027" height="3.056" transform="translate(0.505)" fill="#343434"/>
                <rect id="Rectangle_138" data-name="Rectangle 138" width="0.027" height="3.056" transform="translate(0.531)" fill="#343434"/>
                <rect id="Rectangle_139" data-name="Rectangle 139" width="0.027" height="3.056" transform="translate(0.558)" fill="#343434"/>
                <rect id="Rectangle_140" data-name="Rectangle 140" width="0.027" height="3.056" transform="translate(0.585)" fill="#343434"/>
                <rect id="Rectangle_141" data-name="Rectangle 141" width="0.027" height="3.056" transform="translate(0.611)" fill="#343434"/>
                <rect id="Rectangle_142" data-name="Rectangle 142" width="0.027" height="3.056" transform="translate(0.638)" fill="#343434"/>
                <rect id="Rectangle_143" data-name="Rectangle 143" width="0.027" height="3.056" transform="translate(0.664)" fill="#343434"/>
                <rect id="Rectangle_144" data-name="Rectangle 144" width="0.027" height="3.056" transform="translate(0.691)" fill="#343434"/>
                <rect id="Rectangle_145" data-name="Rectangle 145" width="0.027" height="3.056" transform="translate(0.717)" fill="#343434"/>
                <rect id="Rectangle_146" data-name="Rectangle 146" width="0.027" height="3.056" transform="translate(0.744)" fill="#343434"/>
                <rect id="Rectangle_147" data-name="Rectangle 147" width="0.027" height="3.056" transform="translate(0.771)" fill="#343434"/>
                <rect id="Rectangle_148" data-name="Rectangle 148" width="0.027" height="3.056" transform="translate(0.797)" fill="#343434"/>
                <rect id="Rectangle_149" data-name="Rectangle 149" width="0.027" height="3.056" transform="translate(0.824)" fill="#343434"/>
                <rect id="Rectangle_150" data-name="Rectangle 150" width="0.027" height="3.056" transform="translate(0.85)" fill="#343434"/>
                <rect id="Rectangle_151" data-name="Rectangle 151" width="0.027" height="3.056" transform="translate(0.877)" fill="#343434"/>
                <rect id="Rectangle_152" data-name="Rectangle 152" width="0.027" height="3.056" transform="translate(0.903)" fill="#343434"/>
                <rect id="Rectangle_153" data-name="Rectangle 153" width="0.027" height="3.056" transform="translate(0.93)" fill="#343434"/>
                <rect id="Rectangle_154" data-name="Rectangle 154" width="0.027" height="3.056" transform="translate(0.957)" fill="#343434"/>
                <rect id="Rectangle_155" data-name="Rectangle 155" width="0.027" height="3.056" transform="translate(0.983)" fill="#343434"/>
                <rect id="Rectangle_156" data-name="Rectangle 156" width="0.027" height="3.056" transform="translate(1.01)" fill="#343434"/>
                <rect id="Rectangle_157" data-name="Rectangle 157" width="0.027" height="3.056" transform="translate(1.036)" fill="#343434"/>
                <rect id="Rectangle_158" data-name="Rectangle 158" width="0.027" height="3.056" transform="translate(1.063)" fill="#343434"/>
                <rect id="Rectangle_159" data-name="Rectangle 159" width="0.027" height="3.056" transform="translate(1.089)" fill="#343434"/>
                <rect id="Rectangle_160" data-name="Rectangle 160" width="0.027" height="3.056" transform="translate(1.116)" fill="#343434"/>
                <rect id="Rectangle_161" data-name="Rectangle 161" width="0.027" height="3.056" transform="translate(1.143)" fill="#343434"/>
                <rect id="Rectangle_162" data-name="Rectangle 162" width="0.027" height="3.056" transform="translate(1.169)" fill="#343434"/>
                <rect id="Rectangle_163" data-name="Rectangle 163" width="0.027" height="3.056" transform="translate(1.196)" fill="#343434"/>
                <rect id="Rectangle_164" data-name="Rectangle 164" width="0.027" height="3.056" transform="translate(1.222)" fill="#343434"/>
                <rect id="Rectangle_165" data-name="Rectangle 165" width="0.027" height="3.056" transform="translate(1.249)" fill="#343434"/>
                <rect id="Rectangle_166" data-name="Rectangle 166" width="0.027" height="3.056" transform="translate(1.275)" fill="#343434"/>
                <rect id="Rectangle_167" data-name="Rectangle 167" width="0.027" height="3.056" transform="translate(1.302)" fill="#343434"/>
                <rect id="Rectangle_168" data-name="Rectangle 168" width="0.027" height="3.056" transform="translate(1.329)" fill="#343434"/>
                <rect id="Rectangle_169" data-name="Rectangle 169" width="0.027" height="3.056" transform="translate(1.355)" fill="#343434"/>
                <rect id="Rectangle_170" data-name="Rectangle 170" width="0.027" height="3.056" transform="translate(1.382)" fill="#343434"/>
                <rect id="Rectangle_171" data-name="Rectangle 171" width="0.027" height="3.056" transform="translate(1.408)" fill="#343434"/>
                <rect id="Rectangle_172" data-name="Rectangle 172" width="0.027" height="3.056" transform="translate(1.435)" fill="#343434"/>
                <rect id="Rectangle_173" data-name="Rectangle 173" width="0.027" height="3.056" transform="translate(1.461)" fill="#343434"/>
                <rect id="Rectangle_174" data-name="Rectangle 174" width="0.027" height="3.056" transform="translate(1.488)" fill="#343434"/>
                <rect id="Rectangle_175" data-name="Rectangle 175" width="0.027" height="3.056" transform="translate(1.515)" fill="#343434"/>
                <rect id="Rectangle_176" data-name="Rectangle 176" width="0.027" height="3.056" transform="translate(1.541)" fill="#343434"/>
                <rect id="Rectangle_177" data-name="Rectangle 177" width="0.027" height="3.056" transform="translate(1.568)" fill="#343434"/>
                <rect id="Rectangle_178" data-name="Rectangle 178" width="0.027" height="3.056" transform="translate(1.594)" fill="#343434"/>
                <rect id="Rectangle_179" data-name="Rectangle 179" width="0.027" height="3.056" transform="translate(1.621)" fill="#343434"/>
                <rect id="Rectangle_180" data-name="Rectangle 180" width="0.027" height="3.056" transform="translate(1.647)" fill="#343434"/>
                <rect id="Rectangle_181" data-name="Rectangle 181" width="0.027" height="3.056" transform="translate(1.674)" fill="#343434"/>
                <rect id="Rectangle_182" data-name="Rectangle 182" width="0.027" height="3.056" transform="translate(1.701)" fill="#343434"/>
                <rect id="Rectangle_183" data-name="Rectangle 183" width="0.027" height="3.056" transform="translate(1.727)" fill="#343434"/>
                <rect id="Rectangle_184" data-name="Rectangle 184" width="0.027" height="3.056" transform="translate(1.754)" fill="#343434"/>
                <rect id="Rectangle_185" data-name="Rectangle 185" width="0.027" height="3.056" transform="translate(1.78)" fill="#343434"/>
                <rect id="Rectangle_186" data-name="Rectangle 186" width="0.027" height="3.056" transform="translate(1.807)" fill="#343434"/>
                <rect id="Rectangle_187" data-name="Rectangle 187" width="0.027" height="3.056" transform="translate(1.833)" fill="#343434"/>
                <rect id="Rectangle_188" data-name="Rectangle 188" width="0.027" height="3.056" transform="translate(1.86)" fill="#343434"/>
                <rect id="Rectangle_189" data-name="Rectangle 189" width="0.027" height="3.056" transform="translate(1.887)" fill="#343434"/>
                <rect id="Rectangle_190" data-name="Rectangle 190" width="0.027" height="3.056" transform="translate(1.913)" fill="#343434"/>
                <rect id="Rectangle_191" data-name="Rectangle 191" width="0.027" height="3.056" transform="translate(1.94)" fill="#343434"/>
                <rect id="Rectangle_192" data-name="Rectangle 192" width="0.027" height="3.056" transform="translate(1.966)" fill="#343434"/>
                <rect id="Rectangle_193" data-name="Rectangle 193" width="0.027" height="3.056" transform="translate(1.993)" fill="#343434"/>
                <rect id="Rectangle_194" data-name="Rectangle 194" width="0.027" height="3.056" transform="translate(2.019)" fill="#343434"/>
                <rect id="Rectangle_195" data-name="Rectangle 195" width="0.027" height="3.056" transform="translate(2.046)" fill="#343434"/>
                <rect id="Rectangle_196" data-name="Rectangle 196" width="0.027" height="3.056" transform="translate(2.073)" fill="#343434"/>
                <rect id="Rectangle_197" data-name="Rectangle 197" width="0.027" height="3.056" transform="translate(2.099)" fill="#343434"/>
                <rect id="Rectangle_198" data-name="Rectangle 198" width="0.027" height="3.056" transform="translate(2.126)" fill="#343434"/>
                <rect id="Rectangle_199" data-name="Rectangle 199" width="0.027" height="3.056" transform="translate(2.152)" fill="#343434"/>
                <rect id="Rectangle_200" data-name="Rectangle 200" width="0.027" height="3.056" transform="translate(2.179)" fill="#343434"/>
                <rect id="Rectangle_201" data-name="Rectangle 201" width="0.027" height="3.056" transform="translate(2.205)" fill="#343434"/>
                <rect id="Rectangle_202" data-name="Rectangle 202" width="0.027" height="3.056" transform="translate(2.232)" fill="#343434"/>
                <rect id="Rectangle_203" data-name="Rectangle 203" width="0.027" height="3.056" transform="translate(2.259)" fill="#343434"/>
                <rect id="Rectangle_204" data-name="Rectangle 204" width="0.027" height="3.056" transform="translate(2.285)" fill="#343434"/>
                <rect id="Rectangle_205" data-name="Rectangle 205" width="0.027" height="3.056" transform="translate(2.312)" fill="#343434"/>
                <rect id="Rectangle_206" data-name="Rectangle 206" width="0.027" height="3.056" transform="translate(2.338)" fill="#343434"/>
                <rect id="Rectangle_207" data-name="Rectangle 207" width="0.027" height="3.056" transform="translate(2.365)" fill="#343434"/>
                <rect id="Rectangle_208" data-name="Rectangle 208" width="0.027" height="3.056" transform="translate(2.391)" fill="#343434"/>
                <rect id="Rectangle_209" data-name="Rectangle 209" width="0.027" height="3.056" transform="translate(2.418)" fill="#343434"/>
                <rect id="Rectangle_210" data-name="Rectangle 210" width="0.027" height="3.056" transform="translate(2.445)" fill="#343434"/>
                <rect id="Rectangle_211" data-name="Rectangle 211" width="0.027" height="3.056" transform="translate(2.471)" fill="#343434"/>
                <rect id="Rectangle_212" data-name="Rectangle 212" width="0.027" height="3.056" transform="translate(2.498)" fill="#343434"/>
                <rect id="Rectangle_213" data-name="Rectangle 213" width="0.027" height="3.056" transform="translate(2.524)" fill="#343434"/>
                <rect id="Rectangle_214" data-name="Rectangle 214" width="0.027" height="3.056" transform="translate(2.551)" fill="#343434"/>
                <rect id="Rectangle_215" data-name="Rectangle 215" width="0.027" height="3.056" transform="translate(2.577)" fill="#343434"/>
                <rect id="Rectangle_216" data-name="Rectangle 216" width="0.027" height="3.056" transform="translate(2.604)" fill="#343434"/>
                <rect id="Rectangle_217" data-name="Rectangle 217" width="0.027" height="3.056" transform="translate(2.631)" fill="#343434"/>
                <rect id="Rectangle_218" data-name="Rectangle 218" width="0.027" height="3.056" transform="translate(2.657)" fill="#343434"/>
                <rect id="Rectangle_219" data-name="Rectangle 219" width="0.027" height="3.056" transform="translate(2.684)" fill="#343434"/>
                <rect id="Rectangle_220" data-name="Rectangle 220" width="0.027" height="3.056" transform="translate(2.71)" fill="#343434"/>
                <rect id="Rectangle_221" data-name="Rectangle 221" width="0.027" height="3.056" transform="translate(2.737)" fill="#343434"/>
                <rect id="Rectangle_222" data-name="Rectangle 222" width="0.027" height="3.056" transform="translate(2.763)" fill="#343434"/>
                <rect id="Rectangle_223" data-name="Rectangle 223" width="0.027" height="3.056" transform="translate(2.79)" fill="#343434"/>
                <rect id="Rectangle_224" data-name="Rectangle 224" width="0.027" height="3.056" transform="translate(2.817)" fill="#343434"/>
                <rect id="Rectangle_225" data-name="Rectangle 225" width="0.027" height="3.056" transform="translate(2.843)" fill="#343434"/>
                <rect id="Rectangle_226" data-name="Rectangle 226" width="0.027" height="3.056" transform="translate(2.87)" fill="#343434"/>
                <rect id="Rectangle_227" data-name="Rectangle 227" width="0.027" height="3.056" transform="translate(2.896)" fill="#343434"/>
                <rect id="Rectangle_228" data-name="Rectangle 228" width="0.027" height="3.056" transform="translate(2.923)" fill="#343434"/>
                <rect id="Rectangle_229" data-name="Rectangle 229" width="0.027" height="3.056" transform="translate(2.949)" fill="#343434"/>
                <rect id="Rectangle_230" data-name="Rectangle 230" width="0.027" height="3.056" transform="translate(2.976)" fill="#343434"/>
                <rect id="Rectangle_231" data-name="Rectangle 231" width="0.027" height="3.056" transform="translate(3.003)" fill="#343434"/>
                <rect id="Rectangle_232" data-name="Rectangle 232" width="0.027" height="3.056" transform="translate(3.029)" fill="#343434"/>
                <path id="Path_407" data-name="Path 407" d="M86.121,45.13v0Z" transform="translate(-83.065 -42.073)" fill="#343434"/>
              </g>
            </g>
          </g>
        </g>
        <g id="Group_211" data-name="Group 211" transform="translate(57.555 15.42)">
          <g id="Group_210" data-name="Group 210">
            <g id="Group_209" data-name="Group 209">
              <circle id="Ellipse_35" data-name="Ellipse 35" cx="1.528" cy="1.528" r="1.528" fill="#343434"/>
              <g id="Group_208" data-name="Group 208" clip-path="url(#clip-path)">
                <path id="Path_408" data-name="Path 408" d="M82.511,38.753v0Z" transform="translate(-82.51 -38.754)" fill="#343434"/>
                <rect id="Rectangle_233" data-name="Rectangle 233" width="0.027" height="3.056" fill="#343434"/>
                <rect id="Rectangle_234" data-name="Rectangle 234" width="0.027" height="3.056" transform="translate(0.027)" fill="#343434"/>
                <rect id="Rectangle_235" data-name="Rectangle 235" width="0.027" height="3.056" transform="translate(0.053)" fill="#343434"/>
                <rect id="Rectangle_236" data-name="Rectangle 236" width="0.027" height="3.056" transform="translate(0.08)" fill="#343434"/>
                <rect id="Rectangle_237" data-name="Rectangle 237" width="0.027" height="3.056" transform="translate(0.106)" fill="#343434"/>
                <rect id="Rectangle_238" data-name="Rectangle 238" width="0.027" height="3.056" transform="translate(0.133)" fill="#343434"/>
                <rect id="Rectangle_239" data-name="Rectangle 239" width="0.027" height="3.056" transform="translate(0.159)" fill="#343434"/>
                <rect id="Rectangle_240" data-name="Rectangle 240" width="0.027" height="3.056" transform="translate(0.186)" fill="#343434"/>
                <rect id="Rectangle_241" data-name="Rectangle 241" width="0.027" height="3.056" transform="translate(0.213)" fill="#343434"/>
                <rect id="Rectangle_242" data-name="Rectangle 242" width="0.027" height="3.056" transform="translate(0.239)" fill="#343434"/>
                <rect id="Rectangle_243" data-name="Rectangle 243" width="0.027" height="3.056" transform="translate(0.266)" fill="#343434"/>
                <rect id="Rectangle_244" data-name="Rectangle 244" width="0.027" height="3.056" transform="translate(0.292)" fill="#343434"/>
                <rect id="Rectangle_245" data-name="Rectangle 245" width="0.027" height="3.056" transform="translate(0.319)" fill="#343434"/>
                <rect id="Rectangle_246" data-name="Rectangle 246" width="0.027" height="3.056" transform="translate(0.345)" fill="#343434"/>
                <rect id="Rectangle_247" data-name="Rectangle 247" width="0.027" height="3.056" transform="translate(0.372)" fill="#343434"/>
                <rect id="Rectangle_248" data-name="Rectangle 248" width="0.027" height="3.056" transform="translate(0.399)" fill="#343434"/>
                <rect id="Rectangle_249" data-name="Rectangle 249" width="0.027" height="3.056" transform="translate(0.425)" fill="#343434"/>
                <rect id="Rectangle_250" data-name="Rectangle 250" width="0.027" height="3.056" transform="translate(0.452)" fill="#343434"/>
                <rect id="Rectangle_251" data-name="Rectangle 251" width="0.027" height="3.056" transform="translate(0.478)" fill="#343434"/>
                <rect id="Rectangle_252" data-name="Rectangle 252" width="0.027" height="3.056" transform="translate(0.505)" fill="#343434"/>
                <rect id="Rectangle_253" data-name="Rectangle 253" width="0.027" height="3.056" transform="translate(0.531)" fill="#343434"/>
                <rect id="Rectangle_254" data-name="Rectangle 254" width="0.027" height="3.056" transform="translate(0.558)" fill="#343434"/>
                <rect id="Rectangle_255" data-name="Rectangle 255" width="0.027" height="3.056" transform="translate(0.585)" fill="#343434"/>
                <rect id="Rectangle_256" data-name="Rectangle 256" width="0.027" height="3.056" transform="translate(0.611)" fill="#343434"/>
                <rect id="Rectangle_257" data-name="Rectangle 257" width="0.027" height="3.056" transform="translate(0.638)" fill="#343434"/>
                <rect id="Rectangle_258" data-name="Rectangle 258" width="0.027" height="3.056" transform="translate(0.664)" fill="#343434"/>
                <rect id="Rectangle_259" data-name="Rectangle 259" width="0.027" height="3.056" transform="translate(0.691)" fill="#343434"/>
                <rect id="Rectangle_260" data-name="Rectangle 260" width="0.027" height="3.056" transform="translate(0.717)" fill="#343434"/>
                <rect id="Rectangle_261" data-name="Rectangle 261" width="0.027" height="3.056" transform="translate(0.744)" fill="#343434"/>
                <rect id="Rectangle_262" data-name="Rectangle 262" width="0.027" height="3.056" transform="translate(0.771)" fill="#343434"/>
                <rect id="Rectangle_263" data-name="Rectangle 263" width="0.027" height="3.056" transform="translate(0.797)" fill="#343434"/>
                <rect id="Rectangle_264" data-name="Rectangle 264" width="0.027" height="3.056" transform="translate(0.824)" fill="#343434"/>
                <rect id="Rectangle_265" data-name="Rectangle 265" width="0.027" height="3.056" transform="translate(0.85)" fill="#343434"/>
                <rect id="Rectangle_266" data-name="Rectangle 266" width="0.027" height="3.056" transform="translate(0.877)" fill="#343434"/>
                <rect id="Rectangle_267" data-name="Rectangle 267" width="0.027" height="3.056" transform="translate(0.903)" fill="#343434"/>
                <rect id="Rectangle_268" data-name="Rectangle 268" width="0.027" height="3.056" transform="translate(0.93)" fill="#343434"/>
                <rect id="Rectangle_269" data-name="Rectangle 269" width="0.027" height="3.056" transform="translate(0.957)" fill="#343434"/>
                <rect id="Rectangle_270" data-name="Rectangle 270" width="0.027" height="3.056" transform="translate(0.983)" fill="#343434"/>
                <rect id="Rectangle_271" data-name="Rectangle 271" width="0.027" height="3.056" transform="translate(1.01)" fill="#343434"/>
                <rect id="Rectangle_272" data-name="Rectangle 272" width="0.027" height="3.056" transform="translate(1.036)" fill="#343434"/>
                <rect id="Rectangle_273" data-name="Rectangle 273" width="0.027" height="3.056" transform="translate(1.063)" fill="#343434"/>
                <rect id="Rectangle_274" data-name="Rectangle 274" width="0.027" height="3.056" transform="translate(1.089)" fill="#343434"/>
                <rect id="Rectangle_275" data-name="Rectangle 275" width="0.027" height="3.056" transform="translate(1.116)" fill="#343434"/>
                <rect id="Rectangle_276" data-name="Rectangle 276" width="0.027" height="3.056" transform="translate(1.143)" fill="#343434"/>
                <rect id="Rectangle_277" data-name="Rectangle 277" width="0.027" height="3.056" transform="translate(1.169)" fill="#343434"/>
                <rect id="Rectangle_278" data-name="Rectangle 278" width="0.027" height="3.056" transform="translate(1.196)" fill="#343434"/>
                <rect id="Rectangle_279" data-name="Rectangle 279" width="0.027" height="3.056" transform="translate(1.222)" fill="#343434"/>
                <rect id="Rectangle_280" data-name="Rectangle 280" width="0.027" height="3.056" transform="translate(1.249)" fill="#343434"/>
                <rect id="Rectangle_281" data-name="Rectangle 281" width="0.027" height="3.056" transform="translate(1.275)" fill="#343434"/>
                <rect id="Rectangle_282" data-name="Rectangle 282" width="0.027" height="3.056" transform="translate(1.302)" fill="#343434"/>
                <rect id="Rectangle_283" data-name="Rectangle 283" width="0.027" height="3.056" transform="translate(1.329)" fill="#343434"/>
                <rect id="Rectangle_284" data-name="Rectangle 284" width="0.027" height="3.056" transform="translate(1.355)" fill="#343434"/>
                <rect id="Rectangle_285" data-name="Rectangle 285" width="0.027" height="3.056" transform="translate(1.382)" fill="#343434"/>
                <rect id="Rectangle_286" data-name="Rectangle 286" width="0.027" height="3.056" transform="translate(1.408)" fill="#343434"/>
                <rect id="Rectangle_287" data-name="Rectangle 287" width="0.027" height="3.056" transform="translate(1.435)" fill="#343434"/>
                <rect id="Rectangle_288" data-name="Rectangle 288" width="0.027" height="3.056" transform="translate(1.461)" fill="#343434"/>
                <rect id="Rectangle_289" data-name="Rectangle 289" width="0.027" height="3.056" transform="translate(1.488)" fill="#343434"/>
                <rect id="Rectangle_290" data-name="Rectangle 290" width="0.027" height="3.056" transform="translate(1.515)" fill="#343434"/>
                <rect id="Rectangle_291" data-name="Rectangle 291" width="0.027" height="3.056" transform="translate(1.541)" fill="#343434"/>
                <rect id="Rectangle_292" data-name="Rectangle 292" width="0.027" height="3.056" transform="translate(1.568)" fill="#343434"/>
                <rect id="Rectangle_293" data-name="Rectangle 293" width="0.027" height="3.056" transform="translate(1.594)" fill="#343434"/>
                <rect id="Rectangle_294" data-name="Rectangle 294" width="0.027" height="3.056" transform="translate(1.621)" fill="#343434"/>
                <rect id="Rectangle_295" data-name="Rectangle 295" width="0.027" height="3.056" transform="translate(1.647)" fill="#343434"/>
                <rect id="Rectangle_296" data-name="Rectangle 296" width="0.027" height="3.056" transform="translate(1.674)" fill="#343434"/>
                <rect id="Rectangle_297" data-name="Rectangle 297" width="0.027" height="3.056" transform="translate(1.701)" fill="#343434"/>
                <rect id="Rectangle_298" data-name="Rectangle 298" width="0.027" height="3.056" transform="translate(1.727)" fill="#343434"/>
                <rect id="Rectangle_299" data-name="Rectangle 299" width="0.027" height="3.056" transform="translate(1.754)" fill="#343434"/>
                <rect id="Rectangle_300" data-name="Rectangle 300" width="0.027" height="3.056" transform="translate(1.78)" fill="#343434"/>
                <rect id="Rectangle_301" data-name="Rectangle 301" width="0.027" height="3.056" transform="translate(1.807)" fill="#343434"/>
                <rect id="Rectangle_302" data-name="Rectangle 302" width="0.027" height="3.056" transform="translate(1.833)" fill="#343434"/>
                <rect id="Rectangle_303" data-name="Rectangle 303" width="0.027" height="3.056" transform="translate(1.86)" fill="#343434"/>
                <rect id="Rectangle_304" data-name="Rectangle 304" width="0.027" height="3.056" transform="translate(1.887)" fill="#343434"/>
                <rect id="Rectangle_305" data-name="Rectangle 305" width="0.027" height="3.056" transform="translate(1.913)" fill="#343434"/>
                <rect id="Rectangle_306" data-name="Rectangle 306" width="0.027" height="3.056" transform="translate(1.94)" fill="#343434"/>
                <rect id="Rectangle_307" data-name="Rectangle 307" width="0.027" height="3.056" transform="translate(1.966)" fill="#343434"/>
                <rect id="Rectangle_308" data-name="Rectangle 308" width="0.027" height="3.056" transform="translate(1.993)" fill="#343434"/>
                <rect id="Rectangle_309" data-name="Rectangle 309" width="0.027" height="3.056" transform="translate(2.019)" fill="#343434"/>
                <rect id="Rectangle_310" data-name="Rectangle 310" width="0.027" height="3.056" transform="translate(2.046)" fill="#343434"/>
                <rect id="Rectangle_311" data-name="Rectangle 311" width="0.027" height="3.056" transform="translate(2.073)" fill="#343434"/>
                <rect id="Rectangle_312" data-name="Rectangle 312" width="0.027" height="3.056" transform="translate(2.099)" fill="#343434"/>
                <rect id="Rectangle_313" data-name="Rectangle 313" width="0.027" height="3.056" transform="translate(2.126)" fill="#343434"/>
                <rect id="Rectangle_314" data-name="Rectangle 314" width="0.027" height="3.056" transform="translate(2.152)" fill="#343434"/>
                <rect id="Rectangle_315" data-name="Rectangle 315" width="0.027" height="3.056" transform="translate(2.179)" fill="#343434"/>
                <rect id="Rectangle_316" data-name="Rectangle 316" width="0.027" height="3.056" transform="translate(2.205)" fill="#343434"/>
                <rect id="Rectangle_317" data-name="Rectangle 317" width="0.027" height="3.056" transform="translate(2.232)" fill="#343434"/>
                <rect id="Rectangle_318" data-name="Rectangle 318" width="0.027" height="3.056" transform="translate(2.259)" fill="#343434"/>
                <rect id="Rectangle_319" data-name="Rectangle 319" width="0.027" height="3.056" transform="translate(2.285)" fill="#343434"/>
                <rect id="Rectangle_320" data-name="Rectangle 320" width="0.027" height="3.056" transform="translate(2.312)" fill="#343434"/>
                <rect id="Rectangle_321" data-name="Rectangle 321" width="0.027" height="3.056" transform="translate(2.338)" fill="#343434"/>
                <rect id="Rectangle_322" data-name="Rectangle 322" width="0.027" height="3.056" transform="translate(2.365)" fill="#343434"/>
                <rect id="Rectangle_323" data-name="Rectangle 323" width="0.027" height="3.056" transform="translate(2.391)" fill="#343434"/>
                <rect id="Rectangle_324" data-name="Rectangle 324" width="0.027" height="3.056" transform="translate(2.418)" fill="#343434"/>
                <rect id="Rectangle_325" data-name="Rectangle 325" width="0.027" height="3.056" transform="translate(2.445)" fill="#343434"/>
                <rect id="Rectangle_326" data-name="Rectangle 326" width="0.027" height="3.056" transform="translate(2.471)" fill="#343434"/>
                <rect id="Rectangle_327" data-name="Rectangle 327" width="0.027" height="3.056" transform="translate(2.498)" fill="#343434"/>
                <rect id="Rectangle_328" data-name="Rectangle 328" width="0.027" height="3.056" transform="translate(2.524)" fill="#343434"/>
                <rect id="Rectangle_329" data-name="Rectangle 329" width="0.027" height="3.056" transform="translate(2.551)" fill="#343434"/>
                <rect id="Rectangle_330" data-name="Rectangle 330" width="0.027" height="3.056" transform="translate(2.577)" fill="#343434"/>
                <rect id="Rectangle_331" data-name="Rectangle 331" width="0.027" height="3.056" transform="translate(2.604)" fill="#343434"/>
                <rect id="Rectangle_332" data-name="Rectangle 332" width="0.027" height="3.056" transform="translate(2.631)" fill="#343434"/>
                <rect id="Rectangle_333" data-name="Rectangle 333" width="0.027" height="3.056" transform="translate(2.657)" fill="#343434"/>
                <rect id="Rectangle_334" data-name="Rectangle 334" width="0.027" height="3.056" transform="translate(2.684)" fill="#343434"/>
                <rect id="Rectangle_335" data-name="Rectangle 335" width="0.027" height="3.056" transform="translate(2.71)" fill="#343434"/>
                <rect id="Rectangle_336" data-name="Rectangle 336" width="0.027" height="3.056" transform="translate(2.737)" fill="#343434"/>
                <rect id="Rectangle_337" data-name="Rectangle 337" width="0.027" height="3.056" transform="translate(2.763)" fill="#343434"/>
                <rect id="Rectangle_338" data-name="Rectangle 338" width="0.027" height="3.056" transform="translate(2.79)" fill="#343434"/>
                <rect id="Rectangle_339" data-name="Rectangle 339" width="0.027" height="3.056" transform="translate(2.817)" fill="#343434"/>
                <rect id="Rectangle_340" data-name="Rectangle 340" width="0.027" height="3.056" transform="translate(2.843)" fill="#343434"/>
                <rect id="Rectangle_341" data-name="Rectangle 341" width="0.027" height="3.056" transform="translate(2.87)" fill="#343434"/>
                <rect id="Rectangle_342" data-name="Rectangle 342" width="0.027" height="3.056" transform="translate(2.896)" fill="#343434"/>
                <rect id="Rectangle_343" data-name="Rectangle 343" width="0.027" height="3.056" transform="translate(2.923)" fill="#343434"/>
                <rect id="Rectangle_344" data-name="Rectangle 344" width="0.027" height="3.056" transform="translate(2.949)" fill="#343434"/>
                <rect id="Rectangle_345" data-name="Rectangle 345" width="0.027" height="3.056" transform="translate(2.976)" fill="#343434"/>
                <rect id="Rectangle_346" data-name="Rectangle 346" width="0.027" height="3.056" transform="translate(3.003)" fill="#343434"/>
                <rect id="Rectangle_347" data-name="Rectangle 347" width="0.027" height="3.056" transform="translate(3.029)" fill="#343434"/>
                <path id="Path_409" data-name="Path 409" d="M84.573,41.81v0Z" transform="translate(-81.517 -38.754)" fill="#343434"/>
              </g>
            </g>
          </g>
        </g>
        <g id="Group_215" data-name="Group 215" transform="translate(54.472 11.026)">
          <g id="Group_214" data-name="Group 214">
            <g id="Group_213" data-name="Group 213">
              <circle id="Ellipse_37" data-name="Ellipse 37" cx="1.528" cy="1.528" r="1.528" fill="#343434"/>
              <g id="Group_212" data-name="Group 212" clip-path="url(#clip-path)">
                <path id="Path_410" data-name="Path 410" d="M83.486,37.128l-3.056-.018V35.788h3.056Z" transform="translate(-80.43 -35.788)" fill="#343434"/>
                <path id="Path_411" data-name="Path 411" d="M83.486,36.917,80.43,36.9v-.219l3.056.018Z" transform="translate(-80.43 -35.358)" fill="#343434"/>
                <path id="Path_412" data-name="Path 412" d="M83.486,37.065l-3.056-.018v-.219l3.056.018Z" transform="translate(-80.43 -35.287)" fill="#343434"/>
                <path id="Path_413" data-name="Path 413" d="M83.486,37.212l-3.056-.018v-.219l3.056.018Z" transform="translate(-80.43 -35.216)" fill="#343434"/>
                <path id="Path_414" data-name="Path 414" d="M83.486,37.36l-3.056-.018v-.219l3.056.018Z" transform="translate(-80.43 -35.145)" fill="#343434"/>
                <path id="Path_415" data-name="Path 415" d="M83.486,37.508,80.43,37.49v-.219l3.056.018Z" transform="translate(-80.43 -35.074)" fill="#343434"/>
                <path id="Path_416" data-name="Path 416" d="M83.486,37.655l-3.056-.018v-.219l3.056.018Z" transform="translate(-80.43 -35.002)" fill="#343434"/>
                <path id="Path_417" data-name="Path 417" d="M83.486,37.8l-3.056-.018v-.219l3.056.018Z" transform="translate(-80.43 -34.931)" fill="#343434"/>
                <path id="Path_418" data-name="Path 418" d="M80.43,37.714l3.056.018v.184H80.43Z" transform="translate(-80.43 -34.86)" fill="#343434"/>
              </g>
            </g>
          </g>
        </g>
        <g id="Group_218" data-name="Group 218" transform="translate(61.236 36.124)">
          <g id="Group_217" data-name="Group 217">
            <circle id="Ellipse_39" data-name="Ellipse 39" cx="1.528" cy="1.528" r="1.528" fill="#343434"/>
            <g id="Group_216" data-name="Group 216" clip-path="url(#clip-path)">
              <path id="Path_419" data-name="Path 419" d="M88.051,52.848,85,52.831v-.105h3.056Z" transform="translate(-84.995 -52.725)" fill="#343434"/>
              <path id="Path_420" data-name="Path 420" d="M88.051,53.033,85,53.015V52.8l3.056.018Z" transform="translate(-84.995 -52.691)" fill="#343434"/>
              <path id="Path_421" data-name="Path 421" d="M88.051,53.181,85,53.163v-.219l3.056.018Z" transform="translate(-84.995 -52.62)" fill="#343434"/>
              <path id="Path_422" data-name="Path 422" d="M88.051,53.328,85,53.31v-.219l3.056.018Z" transform="translate(-84.995 -52.549)" fill="#343434"/>
              <path id="Path_423" data-name="Path 423" d="M88.051,53.476,85,53.458v-.219l3.056.018Z" transform="translate(-84.995 -52.478)" fill="#343434"/>
              <path id="Path_424" data-name="Path 424" d="M88.051,53.623,85,53.606v-.219l3.056.018Z" transform="translate(-84.995 -52.407)" fill="#343434"/>
              <path id="Path_425" data-name="Path 425" d="M88.051,53.771,85,53.753v-.219l3.056.018Z" transform="translate(-84.995 -52.336)" fill="#343434"/>
              <path id="Path_426" data-name="Path 426" d="M85,53.682l3.056.018v1.62H85Z" transform="translate(-84.995 -52.264)" fill="#343434"/>
            </g>
          </g>
        </g>
        <g id="Group_221" data-name="Group 221" transform="translate(19.505 17.382)">
          <g id="Group_220" data-name="Group 220">
            <g id="Group_219" data-name="Group 219">
              <path id="Path_427" data-name="Path 427" d="M63.8,66.753h3.78V43.561H60.529v4.672h-3.7V40.077H82.575v8.156h-3.7V43.561H71.829V66.753h3.78v3.313H63.8Z" transform="translate(-56.833 -40.077)" fill="#343434"/>
            </g>
          </g>
        </g>
      </g>
    </g>
  </g>
  <g id="Group_570" data-name="Group 570" transform="translate(82.662 15.188)">
    <g id="Group_194" data-name="Group 194" transform="translate(0 0)">
      <g id="Group_185" data-name="Group 185">
        <path id="Path_366" data-name="Path 366" d="M35.994,110.985H40.14V85.535H32.4v5.128H28.349V81.715H56.592v8.948H52.54V85.535H44.8v25.45H48.95v3.636H35.994Z" transform="translate(-28.349 -81.715)" fill="#343434"/>
      </g>
      <g id="Group_186" data-name="Group 186" transform="translate(29.93 9.041)">
        <path id="Path_367" data-name="Path 367" d="M40.319,105.572h3.542V90a.912.912,0,0,0-1.026-1.024H39.9v-3.5h5.312c2.052,0,3.029.837,3.029,2.749v1.493a13.688,13.688,0,0,1-.093,1.63h.093C49.313,87.907,52.063,85.2,55.7,85.2a8.028,8.028,0,0,1,1.166.093V89.77a5.955,5.955,0,0,0-1.306-.14c-5.032,0-7.178,5.082-7.178,9.7v6.245h3.5v3.5H40.319Z" transform="translate(-39.899 -85.204)" fill="#343434"/>
      </g>
      <g id="Group_187" data-name="Group 187" transform="translate(47.08 8.761)">
        <path id="Path_368" data-name="Path 368" d="M60.267,94.744h1.49v-.886c0-3.729-2.143-5.032-5.032-5.032a12.546,12.546,0,0,0-6.758,2.283L48.15,87.892A15.148,15.148,0,0,1,57.1,85.1c6.012,0,9.181,3.123,9.181,9.088v10.534a.913.913,0,0,0,1.026,1.026h2.376v3.5H64.975c-2.1,0-2.936-1.026-2.936-2.565v-.327a5.8,5.8,0,0,1,.184-1.537H62.13a8.568,8.568,0,0,1-7.782,4.986c-3.916,0-7.831-2.283-7.831-7.129C46.517,95.257,56.351,94.744,60.267,94.744ZM55.328,106.3c4.006,0,6.476-4.1,6.476-7.642v-.98H60.64c-2.146,0-9.554.093-9.554,4.615A3.979,3.979,0,0,0,55.328,106.3Z" transform="translate(-46.517 -85.096)" fill="#343434"/>
      </g>
      <g id="Group_188" data-name="Group 188" transform="translate(70.828)">
        <path id="Path_369" data-name="Path 369" d="M66.4,90.476a7.969,7.969,0,0,1,7.271,3.962h.093a10.641,10.641,0,0,1-.14-1.772V85.208H69.708V81.715h8.438V110.1a.912.912,0,0,0,1.024,1.026h2.379v3.5H76.84c-2.1,0-2.936-1.026-2.936-2.565v-.327a4.8,4.8,0,0,1,.14-1.257H73.95a8.42,8.42,0,0,1-7.971,4.706c-6.339,0-10.3-5.032-10.3-12.351C55.681,95.322,60.06,90.476,66.4,90.476Zm.56,20.788c3.5,0,6.8-2.519,6.8-8.391,0-4.335-2.19-8.435-6.665-8.435-3.776,0-6.8,3.029-6.8,8.388C60.294,107.955,63.043,111.265,66.959,111.265Z" transform="translate(-55.681 -81.715)" fill="#343434"/>
      </g>
      <g id="Group_189" data-name="Group 189" transform="translate(97.426 8.761)">
        <path id="Path_370" data-name="Path 370" d="M77.736,85.1c6.712,0,10.207,4.939,10.207,11.047,0,.6-.14,1.723-.14,1.723H70.558c.28,5.219,3.962,8.018,8.158,8.018a11.473,11.473,0,0,0,7.038-2.659l1.863,3.309a14.45,14.45,0,0,1-9.181,3.263c-7.411,0-12.49-5.359-12.49-12.351C65.945,89.942,71.024,85.1,77.736,85.1Zm5.546,9.881c-.14-4.149-2.656-6.292-5.639-6.292-3.449,0-6.245,2.33-6.9,6.292Z" transform="translate(-65.945 -85.096)" fill="#343434"/>
      </g>
      <g id="Group_190" data-name="Group 190" transform="translate(118.841 0.28)">
        <path id="Path_371" data-name="Path 371" d="M78.591,83.64H74.209V81.823h6.339v27.311c0,1.819.513,3.589,2.749,3.589a8.65,8.65,0,0,0,1.4-.093l-.047,1.819a16.209,16.209,0,0,1-1.679.093c-2.749,0-4.379-1.633-4.379-5.222Z" transform="translate(-74.209 -81.823)" fill="#343434"/>
      </g>
      <g id="Group_191" data-name="Group 191" transform="translate(131 0.28)">
        <path id="Path_372" data-name="Path 372" d="M79.134,112.629h4.2V92.961H78.9V91.144h6.385v21.485h4.2v1.819H79.134ZM83.05,81.823h2.516v3.4H83.05Z" transform="translate(-78.901 -81.823)" fill="#343434"/>
      </g>
      <g id="Group_192" data-name="Group 192" transform="translate(143.293 9.041)">
        <path id="Path_373" data-name="Path 373" d="M83.878,107.249h4.2V88.606a.913.913,0,0,0-1.026-1.026h-3.4V85.764h3.682c1.912,0,2.7.79,2.7,2.563v1.537a9.922,9.922,0,0,1-.184,1.912h.091A10.741,10.741,0,0,1,99.82,85.2c6.059,0,7.689,3.589,7.689,9.088v12.957h4.2v1.819h-6.152V94.992c0-4.056-.513-7.878-5.732-7.878-5.548,0-9.79,4.755-9.79,10.394v9.741h4.2v1.819H83.878Z" transform="translate(-83.645 -85.204)" fill="#343434"/>
      </g>
      <g id="Group_193" data-name="Group 193" transform="translate(171.791 9.041)">
        <path id="Path_374" data-name="Path 374" d="M105.966,85.2c6.339,0,9.508,4.986,9.508,10.627,0,.511-.093,1.257-.093,1.257H96.692c0,6.758,4.569,10.627,9.974,10.627a10.55,10.55,0,0,0,7.225-2.936l1.07,1.63a12.7,12.7,0,0,1-8.3,3.216A11.714,11.714,0,0,1,94.642,97.461C94.642,89.583,100,85.2,105.966,85.2Zm7.458,10.068c-.233-5.688-3.636-8.251-7.5-8.251-4.289,0-8.248,2.8-9.088,8.251Z" transform="translate(-94.642 -85.204)" fill="#343434"/>
      </g>
    </g>
  </g>
</svg>
