<svg id="Group_231" data-name="Group 231" xmlns="http://www.w3.org/2000/svg" width="183.892" height="78.422" viewBox="0 0 183.892 78.422">
  <path id="Path_444" data-name="Path 444" d="M-190.292-115.26c0-.363-.123-.535-.5-.521a5.74,5.74,0,0,1-1.082-.01c-.882-.138-1.064.243-1.054,1.072.044,3.611.029,7.223.013,10.835a2.043,2.043,0,0,1-2.938,2.041,3.9,3.9,0,0,1-1.4-.784c-.737-.735-1.328-.744-1.923.11v.217a7.936,7.936,0,0,0,4.841,1.532c2.377-.118,3.837-1.193,3.953-3.552C-190.2-107.96-190.314-111.613-190.292-115.26Z" transform="translate(199.176 178.972)" fill="#343434"/>
  <path id="Path_445" data-name="Path 445" d="M164.586-390.459c-3.1-5.49-6.214-10.975-9.4-16.606-.17.234-.261.337-.327.454q-9.379,16.556-18.761,33.109a1.863,1.863,0,0,0-.136,1.634q2.334,7.3,4.583,14.637a1.031,1.031,0,0,0,1.2.878q13.325-.031,26.651,0a1.1,1.1,0,0,0,1.279-.926q2.252-7.273,4.605-14.515a2.03,2.03,0,0,0-.169-1.818C170.917-379.215,167.76-384.842,164.586-390.459Zm8.291,18.855q-2.118,6.468-4.139,12.967a1.186,1.186,0,0,1-1.363.987q-12.3-.045-24.6,0c-.709,0-1.077-.143-1.3-.888-1.331-4.375-2.721-8.731-4.092-13.093a1.839,1.839,0,0,1,.069-1.629q8.751-15.365,17.45-30.76c.05-.088.12-.166.282-.385l9.269,16.392c2.733,4.833,5.455,9.673,8.212,14.493A2.152,2.152,0,0,1,172.877-371.6Z" transform="translate(-63.191 407.065)" fill="#343434"/>
  <path id="Path_446" data-name="Path 446" d="M585.46-115.123a1.049,1.049,0,0,0-.11-.611c-.325-.4-2.569-.046-2.823.43-.61,1.144-1.2,2.3-1.8,3.446l-3.829,7.324c-.384-.122-.426-.4-.538-.607-1.65-3.081-3.37-6.127-4.9-9.266a2.261,2.261,0,0,0-2.564-1.477c-.741.059-.972.224-.966.983.034,4.3.012,8.6.023,12.9,0,.416-.22,1,.592.981.751-.021.509-.575.511-.944.016-3.323,0-6.646.016-9.97,0-.34-.141-.718.151-1.035.373.173.445.556.607.857q2.8,5.183,5.575,10.377c.146.27.189.66.6.7.494.046.554-.415.708-.7,1.053-1.969,2.077-3.953,3.115-5.93q1.413-2.69,2.836-5.373c.19,3.639.238,7.206.16,10.771-.024,1.082.3,1.43,1.318,1.256a1.837,1.837,0,0,1,.541,0c.6.078.807-.144.8-.773C585.453-106.237,585.466-110.68,585.46-115.123Z" transform="translate(-401.585 179.041)" fill="#343434"/>
  <path id="Path_447" data-name="Path 447" d="M-53.08-115.385c-2.882-.69-5.826-.288-8.742-.372-.6-.017-.424.472-.426.789-.013,2.168-.007,4.336-.007,6.5q0,3.36,0,6.721c0,.378-.118.83.537.806,2.7-.1,5.424.26,8.106-.278a7.42,7.42,0,0,0,6.245-7.142A6.972,6.972,0,0,0-53.08-115.385Zm2.508,8.5a5.9,5.9,0,0,1-5.5,4.835c-1.146.077-2.586.486-3.361-.144-.692-.563-.168-2.039-.207-3.111-.038-1.046-.008-2.1-.008-3.143,0-1.77.028-3.541-.014-5.31-.016-.674.136-.976.878-.937,1.646.087,3.315-.149,4.89.618C-51.273-112.8-50.01-110.117-50.573-106.886Z" transform="translate(91.958 178.956)" fill="#343434"/>
  <path id="Path_448" data-name="Path 448" d="M127.022-108.035a17.228,17.228,0,0,0-1.671-.693c.526-.325.994-.592,1.438-.894A2.644,2.644,0,0,0,128-111.8c.095-1.853-.91-3.21-3.05-3.721-2.768-.662-5.6-.206-8.407-.3-.579-.02-.45.458-.45.79-.007,4.4,0,8.8-.014,13.2,0,.572.113.846.769.834,2.452-.042,4.906,0,7.358-.055a5.223,5.223,0,0,0,3.534-1.42A3.4,3.4,0,0,0,127.022-108.035Zm-5.784-6.866a6.957,6.957,0,0,1,2.422.467,2.453,2.453,0,0,1,1.693,2.7,2.58,2.58,0,0,1-1.89,2.369,15.779,15.779,0,0,1-4.3.235c-.472.011-.477-.341-.478-.677,0-.721,0-1.442,0-2.163q0-.216,0-.433C118.687-114.971,118.687-114.973,121.238-114.9Zm4.757,10.091a2.547,2.547,0,0,1-2.166,2.466,17.759,17.759,0,0,1-4.612.268c-.44.015-.536-.249-.532-.624.009-.827,0-1.655,0-2.482,0-.108,0-.216,0-.324,0-2.789,0-2.784,2.84-2.73a6.969,6.969,0,0,1,2.436.358A2.871,2.871,0,0,1,125.995-104.81Z" transform="translate(-47.716 179.023)" fill="#343434"/>
  <path id="Path_449" data-name="Path 449" d="M341.606-114.119c0-1.7,0-1.655-1.738-1.676-.728-.009-.91.229-.891.921.046,1.661-.007,3.324.026,4.986.012.607-.075.9-.8.887-2.094-.052-4.191-.04-6.287-.005-.622.01-.8-.194-.788-.8.036-1.625-.046-3.255.034-4.877.046-.938-.29-1.232-1.158-1.1a1.746,1.746,0,0,1-.541,0c-.79-.128-.957.24-.942.971.045,2.131.016,4.263.016,6.4,0,2.2.021,4.409-.013,6.612-.01.646.149.958.84.857a2.643,2.643,0,0,1,.757,0c.8.118,1.07-.171,1.038-1.005-.066-1.768,0-3.541-.033-5.311-.014-.66.19-.873.859-.86q3.088.059,6.178,0c.679-.013.858.214.844.866-.039,1.842.01,3.686-.026,5.528-.013.622.193.856.8.78a2.307,2.307,0,0,1,.649,0c.914.148,1.224-.143,1.207-1.141C341.567-106.1,341.606-110.108,341.606-114.119Z" transform="translate(-214.092 178.967)" fill="#343434"/>
  <path id="Path_450" data-name="Path 450" d="M263.21-101.291c.026-.541.008-1.083.008-1.625,0-3.974-.005-7.948.007-11.922,0-.557.007-1.044-.77-.9-.643.12-.353.635-.355.963-.023,3.236-.014,6.472-.014,9.96-1.7-1.793-3.227-3.4-4.75-5.02-1.683-1.787-3.382-3.561-5.025-5.385a1.56,1.56,0,0,0-1.648-.493c-.67.163-.319.793-.322,1.194q-.041,6.231,0,12.463c0,.4-.383,1.107.522,1.13,1.005.025.57-.756.575-1.173.037-3.215.016-6.43.029-9.645,0-.254-.159-.572.2-.8q2.086,2.283,4.164,4.558,3.219,3.515,6.443,7.025c.189.206.355.506.7.405C263.371-100.673,263.2-101.034,263.21-101.291Z" transform="translate(-152.799 178.935)" fill="#343434"/>
  <path id="Path_451" data-name="Path 451" d="M-128.415-115.743c-.827-.038-.6.543-.6.957-.014,2.89.024,5.78-.022,8.67a4.638,4.638,0,0,1-4.906,4.671,4.6,4.6,0,0,1-4.824-4.726c-.021-2.6,0-5.2,0-7.8,0-1.839,0-1.806-1.852-1.781-.643.009-.782.234-.769.821.035,1.553.012,3.107.012,4.66h0c0,1.409-.016,2.818,0,4.226a5.04,5.04,0,0,0,3.016,4.742,8.261,8.261,0,0,0,5.066.672c3.9-.626,5.388-2.358,5.389-6.256,0-2.637.009-5.274-.01-7.911C-127.914-115.163-127.657-115.708-128.415-115.743Z" transform="translate(153.922 178.926)" fill="#343434"/>
  <path id="Path_452" data-name="Path 452" d="M406.964-116.825c-.125-.258-.205-.551-.589-.526-.366.023-.446.32-.57.571q-1.631,3.283-3.256,6.567l-3.929,7.933c.854.287,1.386.126,1.657-.715.142-.439.488-.817.608-1.258.661-2.436,2.187-3.349,4.673-2.9,1.119.2,2.513-.4,3.369.213.8.575,1.078,1.891,1.566,2.89,1,2.042.992,2.045,3.3,1.86a.443.443,0,0,0,.114-.049,1.069,1.069,0,0,0-.049-.3Q410.415-109.687,406.964-116.825Zm-4.154,8.693,2.9-5.831,2.81,5.831Z" transform="translate(-268.995 180.173)" fill="#343434"/>
  <path id="Path_453" data-name="Path 453" d="M190.135-114.837c2.2.029,4.409.02,6.613,0,.336,0,.866.227.834-.479-.027-.613-.492-.411-.8-.412-3.072-.013-6.144.011-9.215-.022-.662-.007-.864.173-.851.847.043,2.168.016,4.336.016,6.5s.044,4.338-.022,6.5c-.026.845.25,1.013,1.036,1,2.963-.045,5.926-.008,8.89-.031.35,0,.966.3.94-.48-.023-.693-.578-.4-.9-.4-2.168-.026-4.337-.038-6.5,0-.663.012-.87-.165-.85-.844.051-1.661.047-3.325,0-4.986-.018-.683.137-.956.881-.921,1.3.062,2.6.023,3.9.013.3,0,.685.122.708-.406.026-.6-.4-.485-.742-.487-1.337-.007-2.675-.028-4.011.008-.574.016-.75-.175-.735-.741.036-1.3.045-2.6,0-3.9C189.3-114.712,189.548-114.845,190.135-114.837Z" transform="translate(-103.035 178.923)" fill="#343434"/>
  <path id="Path_454" data-name="Path 454" d="M25.073-114.828c2.167.044,4.336.024,6.5.008.341,0,.878.209.842-.483-.031-.6-.5-.406-.817-.408-3.072-.013-6.143.014-9.214-.025-.7-.009-.837.243-.828.875.033,2.168.013,4.336.013,6.5,0,2.2.022,4.409-.014,6.612-.011.649.153.874.84.866,3.035-.037,6.071-.008,9.106-.028.332,0,.892.247.906-.419.015-.755-.605-.463-.959-.467q-3.2-.041-6.4,0c-.608.008-.917-.08-.9-.809.053-1.733.038-3.469.006-5.2-.011-.577.188-.743.747-.729,1.336.034,2.674.014,4.011.009.343,0,.761.109.731-.491-.027-.534-.416-.4-.708-.4-1.265-.012-2.531-.045-3.793.01-.73.032-1.038-.143-.994-.941a35.309,35.309,0,0,0,0-3.576C24.129-114.642,24.366-114.842,25.073-114.828Z" transform="translate(26.306 178.91)" fill="#343434"/>
  <path id="Path_455" data-name="Path 455" d="M489.089-101.819c-1.987-.016-3.974-.049-5.959.012-.84.026-1.1-.2-1.088-1.066.046-3.973,0-7.946.038-11.919.007-.766-.224-1.057-.975-.953a2.765,2.765,0,0,1-.757,0c-.73-.1-.906.221-.893.913.041,2.166.015,4.334.015,6.5,0,2.2.017,4.407-.011,6.61-.008.592.14.825.779.819,2.962-.029,5.924-.007,8.886-.023.3,0,.78.2.806-.409C489.957-102.031,489.43-101.816,489.089-101.819Z" transform="translate(-332.3 178.931)" fill="#343434"/>
  <path id="Path_456" data-name="Path 456" d="M540.383-113.976c0-1.786,0-1.743-1.751-1.766-.749-.01-.883.266-.872.932.036,2.162.014,4.325.014,6.487v5.839c0,1.6,0,1.533,1.591,1.612.918.046,1.041-.311,1.034-1.1C540.364-105.974,540.383-109.975,540.383-113.976Z" transform="translate(-377.963 178.912)" fill="#343434"/>
  <path id="Path_457" data-name="Path 457" d="M174.184-338.957c-.183-.318-.362-.595-.816-.583-1.075.028-2.151.009-3.354.009.125.287.158.389.21.479q5.455,9.47,10.927,18.931a1.909,1.909,0,0,1,.187,1.712c-.854,2.561-1.706,5.122-2.5,7.7a.858.858,0,0,1-1,.708q-7.911-.021-15.823,0a.911.911,0,0,1-1.044-.8c-.651-2.21-1.374-4.4-2.073-6.593-.785-2.465-.786-2.444-3.4-2.394-.678.013-.918.155-.688.866q1.844,5.706,3.633,11.429a.933.933,0,0,0,1.076.758q10.4-.033,20.808,0a.915.915,0,0,0,1.051-.763c1.219-3.845,2.473-7.679,3.72-11.515a1.227,1.227,0,0,0-.048-1.115Q179.6-329.527,174.184-338.957Z" transform="translate(-77.984 354.182)" fill="#343434"/>
  <path id="Path_458" data-name="Path 458" d="M215.316-366.245c1.105-.008,2.211,0,3.493,0l-3.256-5.758a9.441,9.441,0,0,1-1.017,1.706c-1.224,1.281-.675,2.433.108,3.629A.733.733,0,0,0,215.316-366.245Z" transform="translate(-124.265 379.608)" fill="#343434"/>
</svg>
