<svg id="Group_1452" data-name="Group 1452" xmlns="http://www.w3.org/2000/svg" width="73.896" height="71.196" viewBox="0 0 73.896 71.196">
  <g id="Group_565" data-name="Group 565" transform="translate(0 0)">
    <path id="Path_462" data-name="Path 462" d="M612.535,469.69c.659-.276,1.2-.453,1.688-.715a4.023,4.023,0,0,0,2.308-3.754c.005-7.955.025-15.909-.008-23.863a7.194,7.194,0,0,0-4.974-6.976c-.439-.126-.893-.2-1.335-.3.157-.01.329-.032.5-.032,3.759.007,7.519-.053,11.275.049a10.417,10.417,0,0,1,7.369,2.942,9.258,9.258,0,0,1,2.6,6.6c.067,3.188.063,6.378.065,9.568,0,2.468.013,4.938-.064,7.4a9.565,9.565,0,0,1-9.364,9.069C619.3,469.693,616,469.69,612.535,469.69Z" transform="translate(-558.134 -398.502)" fill="#343434"/>
    <path id="Path_463" data-name="Path 463" d="M425.8,198.643h-.943c-4.173,0-8.347.044-12.52-.013-4.124-.056-7.176-2.463-7.2-7.114-.045-7.1-.024-14.2-.007-21.3.008-3.415,2.272-6.057,5.884-6.894a10.141,10.141,0,0,1,2.2-.274c3.976-.026,7.952-.012,11.948-.012a14.949,14.949,0,0,0-2.043.905,7.945,7.945,0,0,0-3.457,5.28,11.9,11.9,0,0,0-.259,2.533c-.02,6.555,0,13.11-.019,19.665a6.019,6.019,0,0,0,2.776,5.333,28.473,28.473,0,0,0,3.259,1.645c.127.062.265.1.4.152Z" transform="translate(-379.922 -163.028)" fill="#343434"/>
    <path id="Path_464" data-name="Path 464" d="M405.2,579.816c2.458.82,4.775,1.594,7.093,2.365,2.777.923,5.55,1.855,8.335,2.753a.762.762,0,0,1,.625.881c-.03,1.769.013,3.54-.018,5.309-.043,2.481.682,4.439,3.339,5.224H414a8.869,8.869,0,0,1-8.8-8.756c-.007-2.338,0-4.676,0-7.013Z" transform="translate(-380.006 -525.16)" fill="#343434"/>
    <path id="Path_465" data-name="Path 465" d="M646.6,179.561c-2.148-.713-4.218-1.4-6.287-2.086-3.047-1.014-6.089-2.041-9.142-3.034a.723.723,0,0,1-.593-.834c.026-1.967.012-3.934.011-5.9,0-2.426-1.07-3.869-3.545-4.622.344-.018.54-.037.736-.037q5.048,0,10.1,0a8.782,8.782,0,0,1,8.708,8.346c.094,2.575.052,5.155.069,7.732A4.271,4.271,0,0,1,646.6,179.561Z" transform="translate(-572.758 -163.045)" fill="#343434"/>
    <path id="Path_468" data-name="Path 468" d="M226.094,166.124a3.879,3.879,0,0,0-.312-1.264,2.889,2.889,0,0,0-5.461.273c-.093-.146-.154-.229-.2-.32a2.448,2.448,0,0,0-2.425-1.358,2.4,2.4,0,0,0-2.249,1.628,5.546,5.546,0,0,0-.378,1.776c-.052,1.549-.019,3.1-.015,4.65a4.51,4.51,0,0,0,.057.5h11C226.108,170,226.127,168.063,226.094,166.124Zm-6.738,3.975h-3.087c.059-1.294.059-2.57.2-3.832a1.241,1.241,0,0,1,1.286-1.089,1.429,1.429,0,0,1,1.444,1.011,2.57,2.57,0,0,1,.152.767C219.366,167.978,219.356,169,219.356,170.1Zm4.853-.006h-2.861c0-1.224-.077-2.419.025-3.6a1.363,1.363,0,0,1,1.433-1.329,1.434,1.434,0,0,1,1.382,1.409C224.273,167.717,224.209,168.871,224.209,170.094Z" transform="translate(-214.78 -163.039)" fill="#343434"/>
    <path id="Path_469" data-name="Path 469" d="M213.328,335.033c.4-.632.714-1.179,1.094-1.674a.9.9,0,0,1,.635-.2c1.594-.016,3.188,0,4.782-.011,2.976-.022,3.551-2.422,3.023-4.189a2.729,2.729,0,0,0-2.885-1.915c-1.594-.023-3.188-.029-4.781.007a.983.983,0,0,1-1.036-.59c-.214-.422-.5-.809-.791-1.28.215-.023.355-.051.494-.051,2.031,0,4.061-.012,6.092,0,1.966.013,3.618.683,4.356,2.624a5.525,5.525,0,0,1-.843,5.963,4.028,4.028,0,0,1-3.052,1.3C218.1,335.064,215.792,335.033,213.328,335.033Z" transform="translate(-213.295 -303.867)" fill="#343434"/>
    <path id="Path_470" data-name="Path 470" d="M214.877,627.742l1.334,1.09c-1.783,2.4-1.819,4.592-.13,6.141a3.981,3.981,0,0,0,5.275.061c1.747-1.533,1.77-3.7.036-6.2l1.187-1.075c1.51.974,2.314,3.755,1.753,5.967a5.7,5.7,0,0,1-5.013,4.257,5.593,5.593,0,0,1-5.76-3.471A6.133,6.133,0,0,1,214.877,627.742Z" transform="translate(-213.076 -566.801)" fill="#343434"/>
    <path id="Path_471" data-name="Path 471" d="M213.618,493.479c.423-.6.781-1.17,1.206-1.682.117-.141.431-.161.656-.162,2.248-.011,4.5-.007,6.744-.006h.83V489c0-1.619.106-1.738,1.843-2.016v6.5Z" transform="translate(-213.547 -444.5)" fill="#343434"/>
  </g>
</svg>
