<svg id="Group_573" data-name="Group 573" xmlns="http://www.w3.org/2000/svg" width="139.053" height="35.646" viewBox="0 0 139.053 35.646">
  <g id="Group_574" data-name="Group 574" transform="translate(0 0)">
    <path id="Path_526" data-name="Path 526" d="M158.544,422.45l.042-.292a24.9,24.9,0,0,0,8.616-1.232,1.324,1.324,0,0,0,1.038-1.7c-.176-1.042-.316-2.091-.43-3.141-.083-.76-.414-.914-1.189-.88-2.941.131-5.89.257-8.829.163-2.154-.069-3.465-1.263-3.664-2.857-.142-1.137.03-1.348,1.184-1.353,2.985-.013,5.971.011,8.956-.028,1.324-.017,2.646-.152,3.969-.234.507-.031.724-.231.738-.807a23.761,23.761,0,0,0-.831-7.731,7.6,7.6,0,0,0-5.309-5.253,18.22,18.22,0,0,0-7.487-.444,28.649,28.649,0,0,0-4.444,1,6.4,6.4,0,0,0-4.824,4.731,21.835,21.835,0,0,0-.432,12.488,8.972,8.972,0,0,0,6.67,6.567C154.343,421.972,156.465,422.129,158.544,422.45ZM225.4,411.061h-.23c0-2.315.136-4.639-.028-6.942-.363-5.1-2.748-6.941-7.024-7.513-4.44-.594-8.831.179-13.191,1.021-.591.114-.872.417-.816,1.019.128,1.38.244,2.761.389,4.14.069.658.441.817,1.113.765,2.774-.216,5.552-.406,8.331-.515,2.139-.084,2.228.049,2.431,2.118.039.394.036.792.065,1.187.062.845-.327,1.148-1.171,1.184-2.017.086-4.038.193-6.042.423a8.845,8.845,0,0,0-5.259,2.079,6.88,6.88,0,0,0-.862,8.961c1.653,2.459,4.114,3.283,6.952,3.264a7.5,7.5,0,0,0,5.434-2.277c.48-.478.984-.932,1.477-1.4a8.666,8.666,0,0,1,.789,1.832c.188,1.018.752,1.266,1.679,1.23,1.523-.059,3.048-.045,4.573-.07,1.376-.023,1.394-.052,1.392-1.392Q225.395,415.62,225.4,411.061Zm-121.938-2.647h.016c0,2.316-.1,4.638.041,6.945a9.42,9.42,0,0,0,.919,3.487c.952,1.944,2.842,2.709,4.847,3.062a21.443,21.443,0,0,0,8.959-.613.908.908,0,0,0,.8-1.058c-.13-1.546-.26-3.093-.38-4.64-.047-.6-.377-.756-.94-.724a15.19,15.19,0,0,1-2.378.007c-1.869-.189-2.187-.565-2.191-2.437q-.012-5.459,0-10.917c0-1.276.111-1.391,1.433-1.409s2.654-.023,3.98,0c.684.014.941-.25.917-.938-.04-1.156-.033-2.316,0-3.473.02-.628-.191-.922-.842-.909-1.325.027-2.653-.014-3.976.049-1.223.059-1.5-.131-1.513-1.314-.013-1.555-.026-3.11,0-4.664.012-.733-.181-1.1-1.022-1.02-1.748.168-3.508.214-5.251.417a1.624,1.624,0,0,0-1.075.823,43.3,43.3,0,0,0-1.817,4.5,1.762,1.762,0,0,1-1.889,1.373c-.759.01-1.516.14-2.275.2-.58.043-.808.345-.8.907.016,1.092.021,2.183.006,3.275-.008.55.233.776.775.767.8-.013,1.594.041,2.387,0,.924-.048,1.307.28,1.284,1.258C103.424,403.716,103.462,406.066,103.462,408.414Zm69.225-6.6h.152c0,5.056-.071,10.113.029,15.167a4.575,4.575,0,0,0,4.273,4.676c1.731.224,3.5.158,5.25.226.616.024.8-.306.791-.865-.02-1.852.018-3.7-.059-5.554a1.39,1.39,0,0,0-.715-.98A1.623,1.623,0,0,1,181.3,413c-.039-.759-.076-1.519-.076-2.278-.005-7.539-.02-15.079.018-22.618,0-1.015-.326-1.326-1.314-1.3-1.987.061-3.98.083-5.966,0-1.057-.044-1.3.362-1.293,1.32C172.705,392.69,172.687,397.254,172.687,401.817Zm14.946.521h.025c0,4.8-.019,9.592.008,14.388a4.891,4.891,0,0,0,3.357,4.678c2.093.8,4.258.413,6.4.452.189,0,.55-.42.555-.651.044-1.98.056-3.963-.008-5.942a1.27,1.27,0,0,0-.726-.843,1.586,1.586,0,0,1-1.052-1.623c-.014-1.089-.017-2.178-.017-3.266q0-10.667,0-21.334c0-1.334-.022-1.358-1.312-1.365q-2.935-.016-5.87-.011c-1.308,0-1.352.046-1.353,1.328Q187.629,395.244,187.633,402.339Zm-64.237,7.2h0q0,5.209,0,10.418c0,1.513.07,1.6,1.535,1.617,1.923.019,3.847-.03,5.769.018,1.69.042,1.707.084,1.713-1.612.015-4.7.027-9.393.005-14.089,0-.875.3-1.258,1.2-1.291,2.018-.073,4.037-.18,6.05-.343.375-.03,1.005-.347,1.04-.6.279-2.027.466-4.068.616-6.109.02-.27-.293-.782-.506-.813a7.921,7.921,0,0,0-2.713-.128c-2.213.472-3.706,2.063-5.156,3.671-.184.2-.555.5-.681.441a1.294,1.294,0,0,1-.541-.726,20.65,20.65,0,0,1-.615-2.291c-.115-.565-.391-.744-.956-.736-1.757.022-3.516.033-5.271-.031-.971-.036-1.541.2-1.444,1.293.023.261-.036.527-.036.791Q123.393,404.279,123.4,409.538Zm114.685,7.337a5.006,5.006,0,0,0-10.012-.065c.058,3.078,1.816,5.128,4.71,5.21C236.2,422.115,238.079,420.1,238.08,416.874Z" transform="translate(-99.028 -386.804)" fill="#343434"/>
    <path id="Path_527" data-name="Path 527" d="M373.624,468.1a8.972,8.972,0,0,1-6.67-6.567,21.835,21.835,0,0,1,.432-12.488,6.4,6.4,0,0,1,4.824-4.731,28.645,28.645,0,0,1,4.444-1,18.22,18.22,0,0,1,7.487.444,7.6,7.6,0,0,1,5.309,5.253,23.762,23.762,0,0,1,.832,7.731c-.013.577-.23.776-.738.807-1.323.082-2.645.216-3.969.234-2.985.039-5.97.016-8.956.028-1.154,0-1.326.215-1.184,1.353.2,1.593,1.509,2.788,3.664,2.857,2.939.094,5.889-.032,8.829-.163.776-.034,1.107.12,1.189.88.114,1.05.254,2.1.43,3.141a1.324,1.324,0,0,1-1.038,1.7,24.9,24.9,0,0,1-8.616,1.232m-1.164-14.9V453.8c.662,0,1.324,0,1.986,0,1.52-.013,1.713-.252,1.448-1.778-.517-2.98-1.564-3.742-4.577-3.332-.066.009-.132.012-.2.023-1.456.236-1.8.576-1.988,2.029-.088.688-.116,1.383-.2,2.072-.095.8.334,1.082,1.04,1.093C377.072,453.919,377.9,453.909,378.73,453.909Z" transform="translate(-320.336 -433.458)" fill="#343434"/>
    <path id="Path_528" data-name="Path 528" d="M721.2,466.433c0,1.34-.016,1.369-1.392,1.392-1.524.025-3.05.011-4.573.07-.927.036-1.491-.212-1.679-1.23a8.667,8.667,0,0,0-.789-1.832c-.493.465-1,.919-1.477,1.4a7.5,7.5,0,0,1-5.434,2.277c-2.839.019-5.3-.805-6.952-3.264a6.88,6.88,0,0,1,.862-8.961,8.844,8.844,0,0,1,5.259-2.079c2-.231,4.025-.337,6.042-.423.844-.036,1.233-.339,1.171-1.184-.029-.4-.027-.793-.065-1.187-.2-2.069-.292-2.2-2.431-2.118-2.78.109-5.558.3-8.331.515-.671.052-1.044-.107-1.113-.765-.145-1.378-.261-2.76-.389-4.14-.056-.6.225-.9.816-1.019,4.36-.842,8.75-1.615,13.191-1.021,4.276.572,6.661,2.415,7.024,7.513.164,2.3.028,4.627.028,6.942m-8.785,3.092a7.782,7.782,0,0,0-.036-1.767,1.157,1.157,0,0,0-.792-.74,25.186,25.186,0,0,0-3.754.195,1.518,1.518,0,0,0-1.063.85c-.639,2.372-.146,4,2.693,3.9.165-.006.33-.024.494-.043C712.021,462.536,712.021,462.535,712.179,460.408Z" transform="translate(-594.822 -433.058)" fill="#343434"/>
    <path id="Path_529" data-name="Path 529" d="M103.462,413.413c0-2.349-.038-4.7.018-7.046.023-.978-.36-1.306-1.284-1.258-.794.042-1.592-.012-2.387,0-.542.009-.783-.217-.775-.767.015-1.091.011-2.183-.006-3.275-.009-.562.22-.865.8-.907.759-.056,1.516-.186,2.275-.2a1.762,1.762,0,0,0,1.889-1.373,43.3,43.3,0,0,1,1.817-4.5,1.624,1.624,0,0,1,1.075-.823c1.743-.2,3.5-.248,5.251-.417.841-.081,1.033.287,1.022,1.02-.024,1.554-.011,3.11,0,4.664.01,1.184.29,1.373,1.513,1.314,1.323-.063,2.651-.022,3.976-.049.651-.013.863.281.842.909-.038,1.157-.044,2.316,0,3.473.024.689-.234.952-.917.938-1.326-.027-2.653-.022-3.98,0s-1.431.133-1.433,1.409q-.006,5.459,0,10.917c0,1.872.322,2.248,2.191,2.437a15.19,15.19,0,0,0,2.378-.007c.563-.032.894.12.94.724.12,1.547.25,3.094.38,4.64a.908.908,0,0,1-.8,1.058,21.443,21.443,0,0,1-8.959.613c-2-.353-3.894-1.118-4.847-3.062a9.42,9.42,0,0,1-.919-3.487c-.141-2.307-.041-4.629-.041-6.945Z" transform="translate(-99.028 -391.803)" fill="#343434"/>
    <path id="Path_530" data-name="Path 530" d="M527.81,401.817c0-4.563.019-9.127-.015-13.69-.007-.958.236-1.364,1.293-1.32,1.986.082,3.979.06,5.966,0,.988-.03,1.319.28,1.314,1.3-.038,7.539-.023,15.079-.018,22.618,0,.759.037,1.52.076,2.278a1.623,1.623,0,0,0,1.106,1.49,1.39,1.39,0,0,1,.715.98c.077,1.849.039,3.7.059,5.554.006.559-.176.889-.791.865-1.751-.069-3.52,0-5.25-.226a4.575,4.575,0,0,1-4.273-4.676" transform="translate(-454.151 -386.804)" fill="#343434"/>
    <path id="Path_531" data-name="Path 531" d="M614.9,402.412q0-7.095,0-14.19c0-1.283.045-1.326,1.353-1.328q2.935,0,5.87.011c1.29.007,1.311.031,1.312,1.365q0,10.667,0,21.334c0,1.089,0,2.178.017,3.266a1.586,1.586,0,0,0,1.052,1.623,1.27,1.27,0,0,1,.726.843c.065,1.979.053,3.962.008,5.942-.005.232-.365.655-.555.651-2.137-.039-4.3.35-6.4-.452a4.891,4.891,0,0,1-3.357-4.678c-.027-4.8-.008-9.592-.008-14.388Z" transform="translate(-526.294 -386.878)" fill="#343434"/>
    <path id="Path_532" data-name="Path 532" d="M240.88,456.442q0-5.259,0-10.518c0-.264.059-.531.036-.791-.1-1.088.472-1.328,1.444-1.293,1.755.064,3.514.054,5.271.031.566-.007.841.171.956.736a20.642,20.642,0,0,0,.615,2.291,1.294,1.294,0,0,0,.541.726c.126.062.5-.237.681-.441,1.45-1.608,2.943-3.2,5.156-3.671a7.92,7.92,0,0,1,2.713.128c.213.031.526.543.506.813-.15,2.041-.337,4.082-.616,6.109-.034.25-.665.567-1.04.6-2.013.163-4.031.271-6.05.343-.9.032-1.2.415-1.2,1.291.022,4.7.009,9.393-.005,14.089-.005,1.7-.023,1.655-1.713,1.612-1.922-.048-3.846,0-5.769-.018-1.465-.014-1.535-.1-1.535-1.617q0-5.209,0-10.418Z" transform="translate(-216.512 -433.708)" fill="#343434"/>
    <path id="Path_533" data-name="Path 533" d="M421.942,480.2c-.829,0-1.658.01-2.486,0-.706-.012-1.134-.3-1.04-1.093.082-.689.109-1.384.2-2.072.187-1.454.532-1.794,1.988-2.029.065-.011.132-.014.2-.023,3.013-.41,4.06.352,4.577,3.332.265,1.526.072,1.765-1.448,1.778" transform="translate(-363.548 -459.75)" fill="#fff"/>
    <path id="Path_534" data-name="Path 534" d="M753.881,533.93c-.158,2.128-.158,2.128-2.459,2.394-.164.019-.329.037-.494.043-2.84.1-3.333-1.527-2.693-3.9a1.518,1.518,0,0,1,1.063-.85,25.189,25.189,0,0,1,3.754-.195,1.157,1.157,0,0,1,.792.74A7.783,7.783,0,0,1,753.881,533.93Z" transform="translate(-636.524 -506.581)" fill="#fff"/>
  </g>
</svg>
