<svg id="Group_225" data-name="Group 225" xmlns="http://www.w3.org/2000/svg" width="148.506" height="40.806" viewBox="0 0 148.506 40.806">
  <path id="Path_428" data-name="Path 428" d="M939.236,734.237c.156,4.769,4.353,7.742,9.209,5.1l8.872,20.47-12.661,5.5-.155-.178,3.746-4.934-1.353-1.01a32.753,32.753,0,0,1-2.128,2.7,18.82,18.82,0,0,1-2.9,2.5,1.752,1.752,0,0,1-1.606-.071c-.277-.189-.317-1.015-.18-1.472,1.288-4.307,2.634-8.6,3.969-12.89.719-2.312,1.448-4.62,2.165-6.9-2.005,0-3.919-.01-5.832,0-1.564.011-3.132.12-4.692.054-1.157-.049-1.735.341-1.7,1.649h4.352c-.59,1.957-1.129,3.723-1.653,5.494-1.172,3.959-2.417,7.9-3.453,11.9a8,8,0,0,0,.059,3.771c.409,1.662,2.011,2.091,3.917,2.594l-8.018,3.5L917,743.875Z" transform="translate(-869.336 -731.206)" fill="#343434"/>
  <path id="Path_429" data-name="Path 429" d="M1063.613,744.5c-.856,0-1.683-.021-2.508.006-.8.026-1.223-.308-1.225-1.12,0-1.335,0-2.67,0-4,0-.816.416-1.119,1.219-1.112,2.67.025,5.343-.064,8.007.065a2.986,2.986,0,0,1,1.736,1.2,5.7,5.7,0,0,1,.572,1.883c.406-.347.771-.65,1.125-.965a11.922,11.922,0,0,1,8.652-3.3c3.871.148,6.518,2.31,7.145,6.159a32.754,32.754,0,0,1,.354,4.942c.045,4.787.016,9.574.016,14.362v1.644c1.007,0,1.869.033,2.727-.009s1.3.336,1.306,1.194c.007,1.289,0,2.578,0,3.866,0,.878-.438,1.185-1.3,1.176-3.084-.033-6.169-.061-9.252.012-1.2.028-1.48-.45-1.474-1.541.034-6.168.025-12.336.007-18.5a30.936,30.936,0,0,0-.192-3.3c-.231-2.088-1.716-3.367-3.726-2.834a18.145,18.145,0,0,0-4.08,2.118,1.084,1.084,0,0,0-.374.818c-.021,5.607-.016,11.215-.016,17.008.959,0,1.82.032,2.677-.009.874-.042,1.263.284,1.229,1.2-.048,1.287-.039,2.578,0,3.866.023.8-.245,1.175-1.1,1.17q-6.836-.034-13.671,0c-.741,0-1.109-.257-1.094-1.042.027-1.38.022-2.762,0-4.142-.011-.788.388-1.055,1.115-1.038.865.02,1.73,0,2.567,0C1064.6,761.812,1064.276,746.415,1063.613,744.5Z" transform="translate(-972.745 -733.309)" fill="#343434"/>
  <path id="Path_430" data-name="Path 430" d="M1206.172,764.241c3.671.237,3.678.237,3.669,3.623-.009,3.007.289,2.652-2.646,2.671-1.565.01-3.13,0-4.694,0-2.465,0-2.5-.023-3.225-2.413-.354.317-.677.6-.991.887a9.5,9.5,0,0,1-10.5,1.961c-3.707-1.431-5.179-4.535-5.453-8.374-.56-7.871,4.387-10.983,10.29-11.783,1.765-.239,3.556-.29,5.454-.436a28.379,28.379,0,0,0-.03-3.654c-.229-1.756-1.4-2.612-3.254-2.75a15.316,15.316,0,0,0-7.189,1.593c-1.176.5-1.807.281-2.124-.966a21.575,21.575,0,0,0-.921-3.026A1.681,1.681,0,0,1,1185.73,739a52.9,52.9,0,0,1,7.62-1.671,18.376,18.376,0,0,1,5.881.354c4.005.869,6.341,4.03,6.445,8.51.1,4.186,0,8.376.072,12.562C1205.78,760.575,1206.023,762.389,1206.172,764.241Zm-8.036-8.054a10.3,10.3,0,0,0-6.11.962,4.466,4.466,0,0,0-2.077,4.988,4.013,4.013,0,0,0,3.166,3.254,5.913,5.913,0,0,0,4.838-2.153,1.051,1.051,0,0,0,.174-.5C1198.14,760.587,1198.136,758.437,1198.136,756.187Z" transform="translate(-1061.34 -733.373)" fill="#343434"/>
  <path id="Path_431" data-name="Path 431" d="M828.256,751.017c1.87-2.917,3.731-5.761,5.523-8.647a2.246,2.246,0,0,1,2.245-1.213c1.745.081,3.5.047,5.245.013.885-.017,1.265.358,1.253,1.226-.016,1.242-.025,2.485,0,3.727.022.946-.408,1.42-1.332,1.266-1.345-.224-2.059.442-2.739,1.505-1.778,2.783-3.664,5.5-5.526,8.268,2.07,3.152,4.071,6.291,6.2,9.339a2.429,2.429,0,0,0,1.886.614c1.4-.1,1.8.526,1.748,1.77-.043,1.1-.005,2.209-.028,3.313-.017.823-.383,1.22-1.287,1.193-1.885-.056-3.775-.064-5.659,0a1.9,1.9,0,0,1-1.872-1.088c-1.835-3.022-3.711-6.019-5.656-9.16l-3.392,5.445c-.8,1.287-1.548,2.615-2.438,3.839a2.3,2.3,0,0,1-1.5.9c-1.973.105-3.956.015-5.934.054-.9.018-1.245-.38-1.234-1.233.016-1.242.021-2.485,0-3.727-.018-.944.418-1.424,1.342-1.252,1.509.28,2.3-.458,3.042-1.676,1.525-2.513,3.165-4.958,4.828-7.384a1.445,1.445,0,0,0-.027-1.939q-2.682-3.844-5.236-7.776a1.9,1.9,0,0,0-1.88-1.02c-1.8.072-1.806.01-1.81-1.854,0-.966.044-1.935-.012-2.9-.062-1.058.323-1.507,1.427-1.464,1.654.065,3.316.082,4.968-.006a2.362,2.362,0,0,1,2.364,1.27C824.565,745.3,826.418,748.149,828.256,751.017Z" transform="translate(-794.621 -736.209)" fill="#343434"/>
  <path id="Path_432" data-name="Path 432" d="M757.314,745.393v21.83c1.286,0,2.425.02,3.562-.007.815-.019,1.176.319,1.157,1.148-.03,1.334-.025,2.669,0,4,.012.755-.3,1.075-1.068,1.073q-7.663-.02-15.326,0c-.861,0-1.127-.4-1.113-1.185.023-1.288.03-2.578,0-3.866-.023-.918.425-1.21,1.276-1.182,1.092.035,2.186.009,3.356.009V747.465c-1.136,0-2.268-.039-3.4.012-.968.044-1.314-.366-1.28-1.3.048-1.287.028-2.577.01-3.866-.01-.756.324-1.082,1.081-1.069,1.334.023,2.67-.02,4,.024.314.01.811.178.9.4C751.687,744.667,753.97,745.773,757.314,745.393Z" transform="translate(-744.475 -736.273)" fill="#343434"/>
  <path id="Path_433" data-name="Path 433" d="M775.853,723.266a3.693,3.693,0,0,1,3.617,3.72,3.7,3.7,0,1,1-3.617-3.72Z" transform="translate(-764.441 -723.266)" fill="#343434"/>
  <path id="Path_434" data-name="Path 434" d="M1004.607,726.98a3.55,3.55,0,0,1,3.584-3.713,3.636,3.636,0,0,1,3.705,3.635,3.694,3.694,0,0,1-3.7,3.665A3.592,3.592,0,0,1,1004.607,726.98Z" transform="translate(-932.743 -723.267)" fill="#343434"/>
</svg>
