<svg id="Group_179" data-name="Group 179" xmlns="http://www.w3.org/2000/svg" xmlns:xlink="http://www.w3.org/1999/xlink" width="94.243" height="68.09" viewBox="0 0 94.243 68.09">
  <defs>
    <clipPath id="clip-path">
      <path id="Path_330" data-name="Path 330" d="M224.118,102.935l-.48.092q-1.073.208-2.141.439-1.125.243-2.247.506-1.174.275-2.343.566-1.217.3-2.432.62-1.257.328-2.511.669-1.292.35-2.582.71-1.323.369-2.645.746-1.35.385-2.7.777-1.372.4-2.743.8-1.391.407-2.78.818l-2.808.83c-9.683,2.863-19.693,5.823-27.523,7.422a164.128,164.128,0,0,1-34.964,3.508v.859c.592.006,1.178.04,1.774.04a166.477,166.477,0,0,0,33.363-3.561c7.867-1.6,17.9-4.571,27.6-7.439,11.6-3.426,23.487-6.928,31.51-8.052v-.9c0,.017-1,.146-1.09.16C225.619,102.662,224.867,102.794,224.118,102.935Zm-29.087,9.645c-8.589,2.348-16.7,4.566-23.463,6.036-3.542.779-6.812,1.454-10,2.059A129.877,129.877,0,0,1,138.728,123c-1.824.018-3.665-.016-5.509-.078v.817c1.367.045,2.744.139,4.1.139.474,0,.947,0,1.418-.009a130.708,130.708,0,0,0,22.986-2.337c3.2-.608,6.477-1.283,10.027-2.063,6.778-1.475,14.9-3.7,23.5-6.049,6.385-1.746,12.983-3.548,18.952-5.011,4.624-1.139,9.231-2.2,13.253-2.856v-.879c-4.091.665-8.769,1.739-13.461,2.9C208.024,109.028,201.417,110.834,195.031,112.58Zm-3.334,2.589c-6.065,1.539-11.8,2.995-16.743,4.138-3.158.74-6.451,1.514-9.824,2.315a110.074,110.074,0,0,1-22.261,2.916c-3.189.082-6.415.02-9.65-.17v.862c2.208.128,4.415.215,6.606.215,1.023,0,2.047-.015,3.065-.04a110.894,110.894,0,0,0,22.439-2.943c3.373-.8,6.663-1.571,9.818-2.31,4.958-1.147,10.693-2.605,16.763-4.147,8.425-2.14,17.14-4.354,24.923-6.037,3.623-.794,7.264-1.565,10.628-2.154v-.866c-3.423.59-7.129,1.367-10.812,2.175C208.851,110.809,200.13,113.025,191.7,115.169Zm-12.353,4.583-1,.25c-3.366.839-6.612,1.7-9.643,2.573A94.251,94.251,0,0,1,147,126.085a104.342,104.342,0,0,1-13.785-.34v.87a101.882,101.882,0,0,0,13.826.334,95.3,95.3,0,0,0,21.892-3.537c3.022-.872,6.257-1.734,9.609-2.572l1-.245c11.485-2.826,27.216-6.694,39.914-9.062,2.755-.522,5.445-1.027,8-1.464v-.876c-2.608.442-5.352.955-8.16,1.489C206.583,113.054,190.838,116.928,179.344,119.752Zm42.609-7.505c-11.931,1.87-27.723,5.183-40.231,8.448-3.425.905-6.52,1.833-9.462,2.833a81.651,81.651,0,0,1-21.117,4.107,97.2,97.2,0,0,1-17.068-.519c-.276-.033-.576-.077-.857-.114v.878c.247.03.51.071.756.1a97.019,97.019,0,0,0,17.223.519,82.218,82.218,0,0,0,21.343-4.151c2.923-.992,6-1.911,9.4-2.813,12.483-3.257,28.239-6.564,40.144-8.43l2.7-.428,2.673-.423v-.873c-.916.14-1.855.292-2.809.442Zm-36.845,9.136a95.589,95.589,0,0,0-9.284,3.094,70.225,70.225,0,0,1-20.54,4.7,89.686,89.686,0,0,1-16.718-.312c-1.562-.169-3.389-.423-5.346-.73v.876c1.923.305,3.713.548,5.253.716a89.8,89.8,0,0,0,16.879.315,71.184,71.184,0,0,0,20.793-4.755,94.154,94.154,0,0,1,9.2-3.064,303.362,303.362,0,0,1,39.372-7.552c.942-.115,1.836-.233,2.749-.353v-.871c-.948.122-1.876.244-2.857.366A303.207,303.207,0,0,0,185.108,121.383Zm3.386.69a68.927,68.927,0,0,0-9.1,3.358,62.2,62.2,0,0,1-19.969,5.288,83.252,83.252,0,0,1-16.366-.113c-2.659-.268-6.184-.787-9.835-1.442v.879c3.621.644,7.112,1.156,9.748,1.424a83.906,83.906,0,0,0,16.538.113,63.053,63.053,0,0,0,20.245-5.36,67.846,67.846,0,0,1,8.989-3.318c11.673-3.436,27.591-5.7,38.6-6.672.042,0,.084-.008.127-.014v-.869l-.2.02C216.214,116.347,200.229,118.619,188.494,122.073Zm-5.54,4.317a55.426,55.426,0,0,1-19.4,5.873,76.523,76.523,0,0,1-16.01.091c-3.576-.33-9.2-1.187-14.327-2.2v.885c5.113,1,10.692,1.845,14.248,2.175a78.311,78.311,0,0,0,16.19-.089,56.325,56.325,0,0,0,19.7-5.97,53.032,53.032,0,0,1,8.78-3.565c8.8-2.722,21.856-4.79,35.329-5.639v-.862c-13.558.845-26.714,2.927-35.585,5.673A54.037,54.037,0,0,0,182.953,126.391Zm3.567.96a49.862,49.862,0,0,1-18.828,6.462,71.945,71.945,0,0,1-15.658.285,169.856,169.856,0,0,1-18.816-2.968v.889a171.985,171.985,0,0,0,18.746,2.944,73.528,73.528,0,0,0,15.85-.294,50.731,50.731,0,0,0,19.146-6.575,43.357,43.357,0,0,1,8.571-3.812c10.428-3.377,23.613-4.449,31.931-4.782v-.868c-8.366.335-21.664,1.415-32.2,4.827A44.265,44.265,0,0,0,186.52,127.351Zm3.564.954a45.073,45.073,0,0,1-18.255,7.052,67.1,67.1,0,0,1-15.306.488A175.056,175.056,0,0,1,136.05,132.7c-.33-.079-.66-.149-.989-.217l-.513-.107c-.443-.1-.885-.135-1.328-.22v.875c.381.072.765.107,1.145.191l.521.111c.322.069.643.132.961.208a175.651,175.651,0,0,0,20.615,3.169,68.142,68.142,0,0,0,15.506-.492,46.009,46.009,0,0,0,18.6-7.188,36.484,36.484,0,0,1,8.365-4.06c8.969-3.077,20.343-3.922,28.534-4.079v-.868c-8.254.157-19.738,1.015-28.815,4.13A37.268,37.268,0,0,0,190.084,128.305Zm3.564.959a41.289,41.289,0,0,1-17.682,7.639,61.633,61.633,0,0,1-14.95.687,187.938,187.938,0,0,1-19.967-2.807c-.313-.071-.632-.13-.947-.189l-.519-.1a46.227,46.227,0,0,0-6.364-.746v.864a45.3,45.3,0,0,1,6.195.733l.527.1c.307.056.615.113.922.181a188.086,188.086,0,0,0,20.1,2.826,62.677,62.677,0,0,0,15.159-.7,42.107,42.107,0,0,0,18.046-7.8,31.425,31.425,0,0,1,8.16-4.3c7.8-2.8,17.46-3.514,25.135-3.536v-.868c-7.752.022-17.514.75-25.431,3.59A32.355,32.355,0,0,0,193.648,129.264Zm3.567.961a37.565,37.565,0,0,1-17.113,8.229,59.223,59.223,0,0,1-14.6.882c-4.074-.2-15.161-1.6-19.451-2.47-.316-.061-.637-.115-.956-.167l-.48-.078a44.413,44.413,0,0,0-11.4-.429v.868a43.472,43.472,0,0,1,11.251.413l.487.082c.308.051.618.1.926.163,4.313.866,15.474,2.28,19.576,2.481a59.562,59.562,0,0,0,14.817-.9,38.359,38.359,0,0,0,17.495-8.4,27.485,27.485,0,0,1,7.954-4.545c6.691-2.516,14.784-3.181,21.738-3.142v-.864c-7.038-.042-15.24.634-22.045,3.192A28.455,28.455,0,0,0,197.215,130.225Zm3.568.962A34.814,34.814,0,0,1,184.236,140a54.936,54.936,0,0,1-14.245,1.084c-3.725-.131-15.116-1.451-18.94-2.127-.339-.061-.68-.111-1.021-.158l-.38-.053a43.969,43.969,0,0,0-16.431.769v.884a42.956,42.956,0,0,1,16.306-.8l.385.057c.329.045.66.093.989.15,3.846.682,15.311,2.011,19.062,2.143a56.048,56.048,0,0,0,14.47-1.106,35.656,35.656,0,0,0,16.944-9.023,24.488,24.488,0,0,1,7.746-4.787c5.665-2.236,12.291-2.9,18.342-2.866V123.3c-6.144-.034-12.883.643-18.661,2.924A25.409,25.409,0,0,0,200.783,131.187Zm3.567.961a32.478,32.478,0,0,1-15.977,9.393,51.711,51.711,0,0,1-13.893,1.283c-3.432-.065-15.218-1.309-18.43-1.785-.392-.058-.784-.1-1.175-.149l-.195-.027a43.82,43.82,0,0,0-16.529,1.289,45.892,45.892,0,0,0-4.932,1.658v.947a45.078,45.078,0,0,1,5.157-1.771,42.78,42.78,0,0,1,16.2-1.26l.19.022c.385.046.766.091,1.149.148,3.319.493,15.007,1.727,18.543,1.8a53.186,53.186,0,0,0,14.124-1.311,33.269,33.269,0,0,0,16.386-9.633,22.143,22.143,0,0,1,7.547-5.03,40.522,40.522,0,0,1,14.944-2.655V124.2a41.553,41.553,0,0,0-15.275,2.721A23.005,23.005,0,0,0,204.35,132.149Zm3.569.962c-.324.374-.66.719-.989,1.073a19.094,19.094,0,0,0-2.086,1.991c-.17.193-.342.362-.511.547a29.813,29.813,0,0,1-11.823,6.367,50.756,50.756,0,0,1-13.546,1.482c-3.015,0-14.871-1.091-17.919-1.447a43.264,43.264,0,0,0-17.222,1.526,49.787,49.787,0,0,0-9.147,3.675c-.494.2-.968.44-1.455.654v1.076h5.828a36.036,36.036,0,0,1,6.517,0h4.995c-.171-.038-.379-.084-.529-.122a37.152,37.152,0,0,0-16.267.016q1.027-.34,2.049-.621a38.277,38.277,0,0,1,17.716-.815c.821.167,2.061.385,3.525.651l2.072.371c.984.181,2,.35,3.017.519h5.769c-2.557-.352-5.733-.845-8.632-1.37l-2.075-.374c-1.456-.26-2.687-.482-3.505-.648a38.166,38.166,0,0,0-14.987.154c.412-.126.812-.3,1.223-.411a40.088,40.088,0,0,1,17.3-1.154c1.108.178,3.166.459,5.529.781,4.411.6,10.34,1.286,12.627,1.385a44.565,44.565,0,0,0,14.033-1.286,31.125,31.125,0,0,0,6.931-2.84A29.909,29.909,0,0,1,185.88,149.5c-.818.223-1.674.393-2.541.555H187a30.5,30.5,0,0,0,6.124-2.6,32.034,32.034,0,0,1-3.981,2.6h4.267c9.692-5.988,21.782-6.3,34.051-.772v-.941c-12-5.313-23.827-5.139-33.49.366,10.216-7.676,22.868-7.26,33.49-3.45v-.973c-12.5-4.509-23.192-2.677-30.978,1.791,8.107-6.244,19.361-7.887,30.978-4.631v-.9c-10.165-2.792-20.056-1.9-27.893,2.464,7.173-5.408,17.3-7.175,27.893-5.053v-.882c-9.28-1.822-18.21-.716-25.194,3.155,6.344-4.929,15.407-6.856,25.194-5.575v-.867c-8.34-1.072-16.177.142-22.324,3.522,5.925-4.693,14.06-6.253,22.324-5.7v-.864c-6.844-.448-13.614.514-19.183,3.46,4.23-3.189,10.719-5.566,19.183-5.557v-.862a35,35,0,0,0-16.645,3.773c2.893-2.313,8.14-5.163,16.645-5.651v-.818C220.233,125.406,212.859,127.409,207.918,133.111ZM189.2,146.295a44.619,44.619,0,0,1-13.763,1.258c-1.993-.091-7.622-.709-12.551-1.378-2.352-.322-4.4-.6-5.507-.783a39.993,39.993,0,0,0-14.172.382c.291-.094.564-.209.859-.3a42.524,42.524,0,0,1,16.883-1.49c3.06.354,14.976,1.452,18.018,1.452a51.625,51.625,0,0,0,13.78-1.515,31.632,31.632,0,0,0,6.891-2.83A29.885,29.885,0,0,1,189.2,146.295Zm4.869,3.758h2.27c6.088-2.34,13.781-3.11,23.023,0h2.569C210.378,145.477,201.058,146.828,194.065,150.053Zm-42.528,14.874a2.286,2.286,0,0,1-1.625-.574,2.423,2.423,0,0,1-.7-1.834v-1.275h1.541v1.275a.937.937,0,0,0,.21.7.831.831,0,0,0,.575.168.8.8,0,0,0,.574-.168.908.908,0,0,0,.21-.7V161.9a1.478,1.478,0,0,0-.518-1.121,4.617,4.617,0,0,0-.588-.364,5.459,5.459,0,0,1-.967-.616,3.116,3.116,0,0,1-.77-1.022,2.892,2.892,0,0,1-.267-1.233v-.239a2.42,2.42,0,0,1,.7-1.834,2.585,2.585,0,0,1,3.249,0,2.422,2.422,0,0,1,.7,1.834v.855h-1.541v-.855a.91.91,0,0,0-.21-.7.8.8,0,0,0-.574-.168.828.828,0,0,0-.575.168.938.938,0,0,0-.21.7v.239a1.433,1.433,0,0,0,.518,1.106,4.19,4.19,0,0,0,.546.336,5.674,5.674,0,0,1,1.008.645,2.927,2.927,0,0,1,1.037,2.269v.617a2.424,2.424,0,0,1-.7,1.834A2.287,2.287,0,0,1,151.537,164.927Zm8.964-8.375v2.465h1.737v1.541H160.5v2.717h2.521v1.541H158.96v-9.8h4.061v1.541Zm10.91,6.708h-1.764l-.28,1.555H167.8l1.961-9.8H171.3l1.961,9.8h-1.568Zm-.266-1.541-.616-3.516-.616,3.516Zm9.2,3.208a2.351,2.351,0,0,1-1.625-.574,2.482,2.482,0,0,1-.7-1.834v-5.211a2.482,2.482,0,0,1,.7-1.834,2.349,2.349,0,0,1,1.625-.574,2.285,2.285,0,0,1,1.625.574,2.423,2.423,0,0,1,.7,1.834v.869h-1.541v-.869a.953.953,0,0,0-.2-.7.848.848,0,0,0-.588-.168.825.825,0,0,0-.574.168.938.938,0,0,0-.21.7v5.211a.937.937,0,0,0,.21.7.828.828,0,0,0,.574.168.851.851,0,0,0,.588-.168.951.951,0,0,0,.2-.7v-1.261h1.541v1.261a2.425,2.425,0,0,1-.7,1.834A2.287,2.287,0,0,1,180.348,164.927Zm9.692,0a2.288,2.288,0,0,1-1.625-.574,2.426,2.426,0,0,1-.7-1.834v-5.211a2.423,2.423,0,0,1,.7-1.834,2.586,2.586,0,0,1,3.25,0,2.421,2.421,0,0,1,.7,1.834v5.211a2.423,2.423,0,0,1-.7,1.834A2.287,2.287,0,0,1,190.04,164.927Zm0-8.488a.825.825,0,0,0-.574.168.935.935,0,0,0-.21.7v5.211a.935.935,0,0,0,.21.7.828.828,0,0,0,.574.168.8.8,0,0,0,.574-.168.909.909,0,0,0,.21-.7v-5.211a.911.911,0,0,0-.21-.7A.8.8,0,0,0,190.04,156.439Zm9.846,8.376h-2.325v-9.8h2.325a2.288,2.288,0,0,1,1.625.588,2.352,2.352,0,0,1,.7,1.821v5.043a2.906,2.906,0,0,1-.168,1.022,2.083,2.083,0,0,1-.547.784A2.306,2.306,0,0,1,199.886,164.815Zm-.784-1.541h.784a.868.868,0,0,0,.588-.154.848.848,0,0,0,.2-.658V157.42a.968.968,0,0,0-.21-.7.827.827,0,0,0-.574-.167H199.1Zm9.846-6.723v2.465h1.737v1.541h-1.737v2.717h2.522v1.541h-4.062v-9.8h4.062v1.541Z" transform="translate(-133.219 -102.383)" fill="#343434"/>
    </clipPath>
  </defs>
  <g id="Group_177" data-name="Group 177" transform="translate(0 0)">
    <g id="Group_166" data-name="Group 166">
      <path id="Path_329" data-name="Path 329" d="M224.118,102.935l-.48.092q-1.073.208-2.141.439-1.125.243-2.247.506-1.174.275-2.343.566-1.217.3-2.432.62-1.257.328-2.511.669-1.292.35-2.582.71-1.323.369-2.645.746-1.35.385-2.7.777-1.372.4-2.743.8-1.391.407-2.78.818l-2.808.83c-9.683,2.863-19.693,5.823-27.523,7.422a164.128,164.128,0,0,1-34.964,3.508v.859c.592.006,1.178.04,1.774.04a166.477,166.477,0,0,0,33.363-3.561c7.867-1.6,17.9-4.571,27.6-7.439,11.6-3.426,23.487-6.928,31.51-8.052v-.9c0,.017-1,.146-1.09.16C225.619,102.662,224.867,102.794,224.118,102.935Zm-29.087,9.645c-8.589,2.348-16.7,4.566-23.463,6.036-3.542.779-6.812,1.454-10,2.059A129.877,129.877,0,0,1,138.728,123c-1.824.018-3.665-.016-5.509-.078v.817c1.367.045,2.744.139,4.1.139.474,0,.947,0,1.418-.009a130.708,130.708,0,0,0,22.986-2.337c3.2-.608,6.477-1.283,10.027-2.063,6.778-1.475,14.9-3.7,23.5-6.049,6.385-1.746,12.983-3.548,18.952-5.011,4.624-1.139,9.231-2.2,13.253-2.856v-.879c-4.091.665-8.769,1.739-13.461,2.9C208.024,109.028,201.417,110.834,195.031,112.58Zm-3.334,2.589c-6.065,1.539-11.8,2.995-16.743,4.138-3.158.74-6.451,1.514-9.824,2.315a110.074,110.074,0,0,1-22.261,2.916c-3.189.082-6.415.02-9.65-.17v.862c2.208.128,4.415.215,6.606.215,1.023,0,2.047-.015,3.065-.04a110.894,110.894,0,0,0,22.439-2.943c3.373-.8,6.663-1.571,9.818-2.31,4.958-1.147,10.693-2.605,16.763-4.147,8.425-2.14,17.14-4.354,24.923-6.037,3.623-.794,7.264-1.565,10.628-2.154v-.866c-3.423.59-7.129,1.367-10.812,2.175C208.851,110.809,200.13,113.025,191.7,115.169Zm-12.353,4.583-1,.25c-3.366.839-6.612,1.7-9.643,2.573A94.251,94.251,0,0,1,147,126.085a104.342,104.342,0,0,1-13.785-.34v.87a101.882,101.882,0,0,0,13.826.334,95.3,95.3,0,0,0,21.892-3.537c3.022-.872,6.257-1.734,9.609-2.572l1-.245c11.485-2.826,27.216-6.694,39.914-9.062,2.755-.522,5.445-1.027,8-1.464v-.876c-2.608.442-5.352.955-8.16,1.489C206.583,113.054,190.838,116.928,179.344,119.752Zm42.609-7.505c-11.931,1.87-27.723,5.183-40.231,8.448-3.425.905-6.52,1.833-9.462,2.833a81.651,81.651,0,0,1-21.117,4.107,97.2,97.2,0,0,1-17.068-.519c-.276-.033-.576-.077-.857-.114v.878c.247.03.51.071.756.1a97.019,97.019,0,0,0,17.223.519,82.218,82.218,0,0,0,21.343-4.151c2.923-.992,6-1.911,9.4-2.813,12.483-3.257,28.239-6.564,40.144-8.43l2.7-.428,2.673-.423v-.873c-.916.14-1.855.292-2.809.442Zm-36.845,9.136a95.589,95.589,0,0,0-9.284,3.094,70.225,70.225,0,0,1-20.54,4.7,89.686,89.686,0,0,1-16.718-.312c-1.562-.169-3.389-.423-5.346-.73v.876c1.923.305,3.713.548,5.253.716a89.8,89.8,0,0,0,16.879.315,71.184,71.184,0,0,0,20.793-4.755,94.154,94.154,0,0,1,9.2-3.064,303.362,303.362,0,0,1,39.372-7.552c.942-.115,1.836-.233,2.749-.353v-.871c-.948.122-1.876.244-2.857.366A303.207,303.207,0,0,0,185.108,121.383Zm3.386.69a68.927,68.927,0,0,0-9.1,3.358,62.2,62.2,0,0,1-19.969,5.288,83.252,83.252,0,0,1-16.366-.113c-2.659-.268-6.184-.787-9.835-1.442v.879c3.621.644,7.112,1.156,9.748,1.424a83.906,83.906,0,0,0,16.538.113,63.053,63.053,0,0,0,20.245-5.36,67.846,67.846,0,0,1,8.989-3.318c11.673-3.436,27.591-5.7,38.6-6.672.042,0,.084-.008.127-.014v-.869l-.2.02C216.214,116.347,200.229,118.619,188.494,122.073Zm-5.54,4.317a55.426,55.426,0,0,1-19.4,5.873,76.523,76.523,0,0,1-16.01.091c-3.576-.33-9.2-1.187-14.327-2.2v.885c5.113,1,10.692,1.845,14.248,2.175a78.311,78.311,0,0,0,16.19-.089,56.325,56.325,0,0,0,19.7-5.97,53.032,53.032,0,0,1,8.78-3.565c8.8-2.722,21.856-4.79,35.329-5.639v-.862c-13.558.845-26.714,2.927-35.585,5.673A54.037,54.037,0,0,0,182.953,126.391Zm3.567.96a49.862,49.862,0,0,1-18.828,6.462,71.945,71.945,0,0,1-15.658.285,169.856,169.856,0,0,1-18.816-2.968v.889a171.985,171.985,0,0,0,18.746,2.944,73.528,73.528,0,0,0,15.85-.294,50.731,50.731,0,0,0,19.146-6.575,43.357,43.357,0,0,1,8.571-3.812c10.428-3.377,23.613-4.449,31.931-4.782v-.868c-8.366.335-21.664,1.415-32.2,4.827A44.265,44.265,0,0,0,186.52,127.351Zm3.564.954a45.073,45.073,0,0,1-18.255,7.052,67.1,67.1,0,0,1-15.306.488A175.056,175.056,0,0,1,136.05,132.7c-.33-.079-.66-.149-.989-.217l-.513-.107c-.443-.1-.885-.135-1.328-.22v.875c.381.072.765.107,1.145.191l.521.111c.322.069.643.132.961.208a175.651,175.651,0,0,0,20.615,3.169,68.142,68.142,0,0,0,15.506-.492,46.009,46.009,0,0,0,18.6-7.188,36.484,36.484,0,0,1,8.365-4.06c8.969-3.077,20.343-3.922,28.534-4.079v-.868c-8.254.157-19.738,1.015-28.815,4.13A37.268,37.268,0,0,0,190.084,128.305Zm3.564.959a41.289,41.289,0,0,1-17.682,7.639,61.633,61.633,0,0,1-14.95.687,187.938,187.938,0,0,1-19.967-2.807c-.313-.071-.632-.13-.947-.189l-.519-.1a46.227,46.227,0,0,0-6.364-.746v.864a45.3,45.3,0,0,1,6.195.733l.527.1c.307.056.615.113.922.181a188.086,188.086,0,0,0,20.1,2.826,62.677,62.677,0,0,0,15.159-.7,42.107,42.107,0,0,0,18.046-7.8,31.425,31.425,0,0,1,8.16-4.3c7.8-2.8,17.46-3.514,25.135-3.536v-.868c-7.752.022-17.514.75-25.431,3.59A32.355,32.355,0,0,0,193.648,129.264Zm3.567.961a37.565,37.565,0,0,1-17.113,8.229,59.223,59.223,0,0,1-14.6.882c-4.074-.2-15.161-1.6-19.451-2.47-.316-.061-.637-.115-.956-.167l-.48-.078a44.413,44.413,0,0,0-11.4-.429v.868a43.472,43.472,0,0,1,11.251.413l.487.082c.308.051.618.1.926.163,4.313.866,15.474,2.28,19.576,2.481a59.562,59.562,0,0,0,14.817-.9,38.359,38.359,0,0,0,17.495-8.4,27.485,27.485,0,0,1,7.954-4.545c6.691-2.516,14.784-3.181,21.738-3.142v-.864c-7.038-.042-15.24.634-22.045,3.192A28.455,28.455,0,0,0,197.215,130.225Zm3.568.962A34.814,34.814,0,0,1,184.236,140a54.936,54.936,0,0,1-14.245,1.084c-3.725-.131-15.116-1.451-18.94-2.127-.339-.061-.68-.111-1.021-.158l-.38-.053a43.969,43.969,0,0,0-16.431.769v.884a42.956,42.956,0,0,1,16.306-.8l.385.057c.329.045.66.093.989.15,3.846.682,15.311,2.011,19.062,2.143a56.048,56.048,0,0,0,14.47-1.106,35.656,35.656,0,0,0,16.944-9.023,24.488,24.488,0,0,1,7.746-4.787c5.665-2.236,12.291-2.9,18.342-2.866V123.3c-6.144-.034-12.883.643-18.661,2.924A25.409,25.409,0,0,0,200.783,131.187Zm3.567.961a32.478,32.478,0,0,1-15.977,9.393,51.711,51.711,0,0,1-13.893,1.283c-3.432-.065-15.218-1.309-18.43-1.785-.392-.058-.784-.1-1.175-.149l-.195-.027a43.82,43.82,0,0,0-16.529,1.289,45.892,45.892,0,0,0-4.932,1.658v.947a45.078,45.078,0,0,1,5.157-1.771,42.78,42.78,0,0,1,16.2-1.26l.19.022c.385.046.766.091,1.149.148,3.319.493,15.007,1.727,18.543,1.8a53.186,53.186,0,0,0,14.124-1.311,33.269,33.269,0,0,0,16.386-9.633,22.143,22.143,0,0,1,7.547-5.03,40.522,40.522,0,0,1,14.944-2.655V124.2a41.553,41.553,0,0,0-15.275,2.721A23.005,23.005,0,0,0,204.35,132.149Zm3.569.962c-.324.374-.66.719-.989,1.073a19.094,19.094,0,0,0-2.086,1.991c-.17.193-.342.362-.511.547a29.813,29.813,0,0,1-11.823,6.367,50.756,50.756,0,0,1-13.546,1.482c-3.015,0-14.871-1.091-17.919-1.447a43.264,43.264,0,0,0-17.222,1.526,49.787,49.787,0,0,0-9.147,3.675c-.494.2-.968.44-1.455.654v1.076h5.828a36.036,36.036,0,0,1,6.517,0h4.995c-.171-.038-.379-.084-.529-.122a37.152,37.152,0,0,0-16.267.016q1.027-.34,2.049-.621a38.277,38.277,0,0,1,17.716-.815c.821.167,2.061.385,3.525.651l2.072.371c.984.181,2,.35,3.017.519h5.769c-2.557-.352-5.733-.845-8.632-1.37l-2.075-.374c-1.456-.26-2.687-.482-3.505-.648a38.166,38.166,0,0,0-14.987.154c.412-.126.812-.3,1.223-.411a40.088,40.088,0,0,1,17.3-1.154c1.108.178,3.166.459,5.529.781,4.411.6,10.34,1.286,12.627,1.385a44.565,44.565,0,0,0,14.033-1.286,31.125,31.125,0,0,0,6.931-2.84A29.909,29.909,0,0,1,185.88,149.5c-.818.223-1.674.393-2.541.555H187a30.5,30.5,0,0,0,6.124-2.6,32.034,32.034,0,0,1-3.981,2.6h4.267c9.692-5.988,21.782-6.3,34.051-.772v-.941c-12-5.313-23.827-5.139-33.49.366,10.216-7.676,22.868-7.26,33.49-3.45v-.973c-12.5-4.509-23.192-2.677-30.978,1.791,8.107-6.244,19.361-7.887,30.978-4.631v-.9c-10.165-2.792-20.056-1.9-27.893,2.464,7.173-5.408,17.3-7.175,27.893-5.053v-.882c-9.28-1.822-18.21-.716-25.194,3.155,6.344-4.929,15.407-6.856,25.194-5.575v-.867c-8.34-1.072-16.177.142-22.324,3.522,5.925-4.693,14.06-6.253,22.324-5.7v-.864c-6.844-.448-13.614.514-19.183,3.46,4.23-3.189,10.719-5.566,19.183-5.557v-.862a35,35,0,0,0-16.645,3.773c2.893-2.313,8.14-5.163,16.645-5.651v-.818C220.233,125.406,212.859,127.409,207.918,133.111ZM189.2,146.295a44.619,44.619,0,0,1-13.763,1.258c-1.993-.091-7.622-.709-12.551-1.378-2.352-.322-4.4-.6-5.507-.783a39.993,39.993,0,0,0-14.172.382c.291-.094.564-.209.859-.3a42.524,42.524,0,0,1,16.883-1.49c3.06.354,14.976,1.452,18.018,1.452a51.625,51.625,0,0,0,13.78-1.515,31.632,31.632,0,0,0,6.891-2.83A29.885,29.885,0,0,1,189.2,146.295Zm4.869,3.758h2.27c6.088-2.34,13.781-3.11,23.023,0h2.569C210.378,145.477,201.058,146.828,194.065,150.053Zm-42.528,14.874a2.286,2.286,0,0,1-1.625-.574,2.423,2.423,0,0,1-.7-1.834v-1.275h1.541v1.275a.937.937,0,0,0,.21.7.831.831,0,0,0,.575.168.8.8,0,0,0,.574-.168.908.908,0,0,0,.21-.7V161.9a1.478,1.478,0,0,0-.518-1.121,4.617,4.617,0,0,0-.588-.364,5.459,5.459,0,0,1-.967-.616,3.116,3.116,0,0,1-.77-1.022,2.892,2.892,0,0,1-.267-1.233v-.239a2.42,2.42,0,0,1,.7-1.834,2.585,2.585,0,0,1,3.249,0,2.422,2.422,0,0,1,.7,1.834v.855h-1.541v-.855a.91.91,0,0,0-.21-.7.8.8,0,0,0-.574-.168.828.828,0,0,0-.575.168.938.938,0,0,0-.21.7v.239a1.433,1.433,0,0,0,.518,1.106,4.19,4.19,0,0,0,.546.336,5.674,5.674,0,0,1,1.008.645,2.927,2.927,0,0,1,1.037,2.269v.617a2.424,2.424,0,0,1-.7,1.834A2.287,2.287,0,0,1,151.537,164.927Zm8.964-8.375v2.465h1.737v1.541H160.5v2.717h2.521v1.541H158.96v-9.8h4.061v1.541Zm10.91,6.708h-1.764l-.28,1.555H167.8l1.961-9.8H171.3l1.961,9.8h-1.568Zm-.266-1.541-.616-3.516-.616,3.516Zm9.2,3.208a2.351,2.351,0,0,1-1.625-.574,2.482,2.482,0,0,1-.7-1.834v-5.211a2.482,2.482,0,0,1,.7-1.834,2.349,2.349,0,0,1,1.625-.574,2.285,2.285,0,0,1,1.625.574,2.423,2.423,0,0,1,.7,1.834v.869h-1.541v-.869a.953.953,0,0,0-.2-.7.848.848,0,0,0-.588-.168.825.825,0,0,0-.574.168.938.938,0,0,0-.21.7v5.211a.937.937,0,0,0,.21.7.828.828,0,0,0,.574.168.851.851,0,0,0,.588-.168.951.951,0,0,0,.2-.7v-1.261h1.541v1.261a2.425,2.425,0,0,1-.7,1.834A2.287,2.287,0,0,1,180.348,164.927Zm9.692,0a2.288,2.288,0,0,1-1.625-.574,2.426,2.426,0,0,1-.7-1.834v-5.211a2.423,2.423,0,0,1,.7-1.834,2.586,2.586,0,0,1,3.25,0,2.421,2.421,0,0,1,.7,1.834v5.211a2.423,2.423,0,0,1-.7,1.834A2.287,2.287,0,0,1,190.04,164.927Zm0-8.488a.825.825,0,0,0-.574.168.935.935,0,0,0-.21.7v5.211a.935.935,0,0,0,.21.7.828.828,0,0,0,.574.168.8.8,0,0,0,.574-.168.909.909,0,0,0,.21-.7v-5.211a.911.911,0,0,0-.21-.7A.8.8,0,0,0,190.04,156.439Zm9.846,8.376h-2.325v-9.8h2.325a2.288,2.288,0,0,1,1.625.588,2.352,2.352,0,0,1,.7,1.821v5.043a2.906,2.906,0,0,1-.168,1.022,2.083,2.083,0,0,1-.547.784A2.306,2.306,0,0,1,199.886,164.815Zm-.784-1.541h.784a.868.868,0,0,0,.588-.154.848.848,0,0,0,.2-.658V157.42a.968.968,0,0,0-.21-.7.827.827,0,0,0-.574-.167H199.1Zm9.846-6.723v2.465h1.737v1.541h-1.737v2.717h2.522v1.541h-4.062v-9.8h4.062v1.541Z" transform="translate(-133.219 -102.383)" fill="#343434"/>
    </g>
    <g id="Group_176" data-name="Group 176" transform="translate(24.441 65.194)">
      <g id="Group_175" data-name="Group 175">
        <path id="Path_331" data-name="Path 331" d="M211.149,313.31v-2.715h.566a2.27,2.27,0,0,1,.44.03.614.614,0,0,1,.445.353.761.761,0,0,1,.072.331.6.6,0,0,1-.1.359.54.54,0,0,1-.3.2.575.575,0,0,1,.381.215.713.713,0,0,1,.141.452.829.829,0,0,1-.06.312.745.745,0,0,1-.165.254.638.638,0,0,1-.284.16,2.44,2.44,0,0,1-.567.046Zm.316-2.435v.909h.251a.875.875,0,0,0,.486-.1.386.386,0,0,0,.141-.338.446.446,0,0,0-.131-.366.837.837,0,0,0-.5-.1Zm0,1.163v.99h.251a2.424,2.424,0,0,0,.372-.02.428.428,0,0,0,.183-.071.4.4,0,0,0,.132-.165.557.557,0,0,0,.048-.234.548.548,0,0,0-.057-.258.41.41,0,0,0-.167-.171.473.473,0,0,0-.15-.055,1.473,1.473,0,0,0-.265-.017h-.345Z" transform="translate(-211.149 -310.487)" fill="#343434"/>
        <path id="Path_332" data-name="Path 332" d="M227.646,313.31v-2.715h1.432v.3h-1.109v.778h1.109v.3h-1.109v1.04h1.109v.3Z" transform="translate(-222.472 -310.487)" fill="#343434"/>
        <path id="Path_333" data-name="Path 333" d="M243.687,310.251l1.236,2.823h-.35l-.353-.833h-1.061l-.352.833h-.351Zm0,.714-.432,1h.865Z" transform="translate(-232.637 -310.251)" fill="#343434"/>
        <path id="Path_334" data-name="Path 334" d="M262.835,311.1a1.326,1.326,0,0,0-.416-.313,1.156,1.156,0,0,0-.488-.1,1.087,1.087,0,0,0-.775.33,1.08,1.08,0,0,0-.234.36,1.209,1.209,0,0,0-.078.441,1.256,1.256,0,0,0,.046.349.988.988,0,0,0,.14.293,1.115,1.115,0,0,0,.4.357,1.127,1.127,0,0,0,1,.018,1.274,1.274,0,0,0,.406-.321v.428a1.582,1.582,0,0,1-.435.222,1.56,1.56,0,0,1-.481.075,1.4,1.4,0,0,1-1.412-1.417,1.5,1.5,0,0,1,.105-.57,1.432,1.432,0,0,1,.78-.767,1.489,1.489,0,0,1,.55-.1,1.464,1.464,0,0,1,.457.071,1.661,1.661,0,0,1,.436.221Z" transform="translate(-245.027 -310.346)" fill="#343434"/>
        <path id="Path_335" data-name="Path 335" d="M279.374,313.31v-2.715h.323v1.044h1.443v-1.044h.329v2.715h-.329v-1.363H279.7v1.363Z" transform="translate(-257.976 -310.487)" fill="#343434"/>
        <g id="Group_168" data-name="Group 168" transform="translate(27.047 0.043)">
          <g id="Group_167" data-name="Group 167">
            <path id="Path_336" data-name="Path 336" d="M299.684,311.114a1.372,1.372,0,0,0-.4-.239,1.22,1.22,0,0,0-.438-.08.969.969,0,0,0-.725.286,1.112,1.112,0,0,0-.007,1.465.905.905,0,0,0,.686.285,1.246,1.246,0,0,0,.459-.085,1.44,1.44,0,0,0,.418-.258v.5a1.3,1.3,0,0,1-.387.191,1.674,1.674,0,0,1-1.031-.039,1.335,1.335,0,0,1-.464-.3,1.321,1.321,0,0,1-.306-.459,1.536,1.536,0,0,1,0-1.123,1.384,1.384,0,0,1,.773-.764,1.522,1.522,0,0,1,.565-.1,1.49,1.49,0,0,1,.456.069,1.6,1.6,0,0,1,.421.21Z" transform="translate(-297.386 -310.389)" fill="#343434"/>
          </g>
        </g>
        <g id="Group_170" data-name="Group 170" transform="translate(32.93 0.108)">
          <g id="Group_169" data-name="Group 169">
            <path id="Path_337" data-name="Path 337" d="M316.146,313.31v-2.715h.441v2.32h.987v.4Z" transform="translate(-316.146 -310.595)" fill="#343434"/>
          </g>
        </g>
        <g id="Group_172" data-name="Group 172" transform="translate(37.744 0.108)">
          <g id="Group_171" data-name="Group 171">
            <path id="Path_338" data-name="Path 338" d="M331.494,310.595h.437v1.649a.788.788,0,0,0,.169.552.786.786,0,0,0,1.012,0,.787.787,0,0,0,.17-.552v-1.649h.442v1.69a1.109,1.109,0,0,1-.279.825,1.419,1.419,0,0,1-1.674,0,1.112,1.112,0,0,1-.277-.826Z" transform="translate(-331.494 -310.595)" fill="#343434"/>
          </g>
        </g>
        <g id="Group_174" data-name="Group 174" transform="translate(43.621 0.108)">
          <g id="Group_173" data-name="Group 173">
            <path id="Path_339" data-name="Path 339" d="M350.232,313.31v-2.715h.684a2.156,2.156,0,0,1,.433.032.6.6,0,0,1,.434.346.79.79,0,0,1,.069.333.625.625,0,0,1-.1.362.522.522,0,0,1-.291.2.559.559,0,0,1,.374.215.728.728,0,0,1,.136.452.86.86,0,0,1-.057.314.7.7,0,0,1-.163.252.611.611,0,0,1-.277.16,2.323,2.323,0,0,1-.555.046Zm.432-1.569h.169a.852.852,0,0,0,.446-.086.321.321,0,0,0,.13-.291.365.365,0,0,0-.121-.312.812.812,0,0,0-.456-.09h-.169Zm0,1.2h.152a2.472,2.472,0,0,0,.347-.019.461.461,0,0,0,.182-.065.365.365,0,0,0,.127-.145.449.449,0,0,0,.044-.2.462.462,0,0,0-.054-.226.381.381,0,0,0-.154-.15.546.546,0,0,0-.144-.047,1.278,1.278,0,0,0-.214-.015h-.286Z" transform="translate(-350.232 -310.595)" fill="#343434"/>
          </g>
        </g>
      </g>
    </g>
  </g>
</svg>
