<svg id="o3VBKw" xmlns="http://www.w3.org/2000/svg" width="82.941" height="70.823" viewBox="0 0 82.941 70.823">
  <g id="Group_227" data-name="Group 227" transform="translate(0)">
    <path id="Path_436" data-name="Path 436" d="M2664.886,1383.234c2.123-2.124,4.2-4.189,6.265-6.269,4.191-4.225,8.363-8.47,12.567-12.681a3.885,3.885,0,0,1,5.42-.349,3.793,3.793,0,0,1,.114,5.654c-3.847,3.989-7.778,7.9-11.676,11.836-3.294,3.33-6.507,6.748-9.934,9.933a3.647,3.647,0,0,0-1.419,3.291c.093,1.022-.665,1.182-1.439,1.319a2.457,2.457,0,0,0-2.275,2.462,2.369,2.369,0,0,0,1.856,2.453,2.335,2.335,0,0,0,2.78-1.5,3.428,3.428,0,0,0,.255-.967c.08-.924.533-1.331,1.471-1.221,1.039.121,1.242.807,1.176,1.677a5.148,5.148,0,0,1-5.965,4.757,4.921,4.921,0,0,1-4.2-5.919,5.071,5.071,0,0,1,2.916-3.958.909.909,0,0,0,.347-1.561c-2.24-2.172-4.5-4.327-6.7-6.533q-7.813-7.813-15.583-15.67c-1.779-1.793-1.97-3.982-.528-5.683a3.766,3.766,0,0,1,5.624-.1q7.331,7.345,14.644,14.709C2662.012,1380.332,2663.422,1381.758,2664.886,1383.234Z" transform="translate(-2623.434 -1362.99)" fill="#343434"/>
    <path id="Path_437" data-name="Path 437" d="M2646.874,1472.721c0,2.6.02,5.209-.006,7.814a3.772,3.772,0,0,1-3.545,3.873,3.9,3.9,0,0,1-3.992-3.305,7.8,7.8,0,0,1-.1-1.332c-.009-4.8-.02-9.6-.005-14.4.009-2.761,1.641-4.435,4.136-4.3a3.616,3.616,0,0,1,3.51,3.617c.034,2.679.008,5.358.008,8.037Z" transform="translate(-2623.315 -1439.161)" fill="#343434"/>
    <path id="Path_438" data-name="Path 438" d="M2833.868,1472.732c0-2.529-.009-5.058,0-7.588a3.715,3.715,0,0,1,3.575-4.017,3.676,3.676,0,0,1,4.042,3.794q.114,7.809,0,15.621a3.818,3.818,0,1,1-7.621-.223C2833.86,1477.791,2833.868,1475.261,2833.868,1472.732Z" transform="translate(-2774.496 -1439.212)" fill="#343434"/>
    <path id="Path_439" data-name="Path 439" d="M2570.615,1625.243c2.686-1.365,4.575-1.061,7.175,1.355a5.521,5.521,0,0,1,5.248-2.012,5.288,5.288,0,0,1,4.475,4.97c.091,2,.041,4.015.032,6.023,0,.695-.224,1.28-1.069,1.264-.887-.017-1.084-.6-1.076-1.365.016-1.747.011-3.5,0-5.243-.012-2.166-1.305-3.545-3.3-3.532a3.25,3.25,0,0,0-3.266,3.582c0,1.711,0,3.421.009,5.131.006.74-.141,1.4-1.023,1.428-.957.034-1.129-.647-1.126-1.434.006-1.711.015-3.421-.006-5.131-.027-2.185-1.329-3.592-3.27-3.575-2.008.017-3.3,1.457-3.3,3.672,0,1.711-.01,3.421,0,5.132,0,.708-.177,1.289-1,1.324-.887.037-1.12-.537-1.118-1.313.009-3.161-.027-6.322.037-9.481a1.759,1.759,0,0,1,.726-1.386C2569.174,1624.506,2569.788,1624.948,2570.615,1625.243Z" transform="translate(-2567.998 -1566.052)" fill="#343434"/>
    <path id="Path_440" data-name="Path 440" d="M2740.016,1609.777c1.717,1.586,3.082,2.849,4.449,4.11.559.516.845,1.13.233,1.728s-1.231.318-1.757-.222c-1.315-1.353-2.627-2.71-4.063-4.192-1.383,1.433-2.58,2.75-3.873,3.966a2.2,2.2,0,0,1-1.59.623c-.291-.047-.633-.929-.637-1.438-.045-5.133-.027-10.267-.024-15.4,0-.763.128-1.5,1.106-1.454.945.042,1.045.767,1.044,1.532q-.009,6.083,0,12.165v1.1c1.865-1.892,3.52-3.573,5.177-5.252.966-.978,1.945-1.944,2.9-2.93.538-.553,1.135-.819,1.727-.182.573.616.318,1.221-.248,1.74C2743.071,1606.947,2741.686,1608.233,2740.016,1609.777Z" transform="translate(-2695.958 -1545.13)" fill="#343434"/>
    <path id="Path_441" data-name="Path 441" d="M2804.016,1633.433c.723-1.365,1.259-2.511,1.927-3.576a2.308,2.308,0,0,1,1.321-1.106c.366-.041.923.605,1.208,1.062.683,1.1,1.256,2.264,1.988,3.613.825-2.168,1.582-4.154,2.337-6.141.185-.486.369-.973.55-1.461.268-.724.656-1.339,1.546-.963.8.337.726,1.014.464,1.706q-1.325,3.493-2.635,6.991c-.34.9-.615,1.841-1.041,2.7a1.494,1.494,0,0,1-1.022.781,1.532,1.532,0,0,1-1.105-.7c-.788-1.343-1.473-2.745-2.305-4.334-.769,1.438-1.46,2.722-2.146,4.009-.3.562-.589,1.3-1.354,1.027a2.19,2.19,0,0,1-1.13-1.169c-1.2-3.079-2.322-6.192-3.49-9.285-.282-.749-.368-1.422.525-1.747.855-.311,1.19.288,1.448.968C2802.035,1628.271,2802.981,1630.729,2804.016,1633.433Z" transform="translate(-2747.365 -1566.297)" fill="#343434"/>
    <path id="Path_442" data-name="Path 442" d="M2894.566,1635.717c-3.59,2.446-7.464,1.176-9.179-1.617a6.419,6.419,0,0,1,.371-7.025,6.122,6.122,0,0,1,11.011,3.552c.015,1.6,0,3.2.008,4.8,0,.69.029,1.4-.885,1.541C2895,1637.109,2894.754,1636.479,2894.566,1635.717Zm-7.876-4.955a3.922,3.922,0,0,0,3.913,4.1,4.009,4.009,0,1,0,.038-8.018A3.857,3.857,0,0,0,2886.69,1630.762Z" transform="translate(-2813.837 -1566.201)" fill="#343434"/>
    <path id="Path_443" data-name="Path 443" d="M2676.763,1635.7c-3.29,2.114-6.622,1.677-8.854-1.083a6.408,6.408,0,0,1-.288-7.123,6.166,6.166,0,0,1,6.9-2.622,6.076,6.076,0,0,1,4.4,5.567c.039,1.709.009,3.419.011,5.129,0,.66-.022,1.32-.887,1.412S2676.863,1636.515,2676.763,1635.7Zm-7.926-4.847a3.921,3.921,0,0,0,3.994,4.021,4,4,0,0,0,3.972-3.966,3.984,3.984,0,1,0-7.967-.055Z" transform="translate(-2644.643 -1566.204)" fill="#343434"/>
  </g>
</svg>
