<svg xmlns="http://www.w3.org/2000/svg" width="41.748" height="41.748" viewBox="0 0 41.748 41.748">
  <g id="Group_2495" data-name="Group 2495" transform="translate(-798 -1211.252)">
    <g id="Group_1769" data-name="Group 1769" transform="translate(798 1211.252)">
      <path id="Path_2237" data-name="Path 2237" d="M302.188,219.365a.87.87,0,0,1-.87-.87,20.874,20.874,0,0,1,39.934-8.511.869.869,0,1,1-1.588.708,19.135,19.135,0,0,0-36.606,7.8A.87.87,0,0,1,302.188,219.365Z" transform="translate(-301.318 -197.621)" fill="#c21a3a"/>
    </g>
    <g id="Group_1776" data-name="Group 1776" transform="translate(799.74 1231.256)">
      <g id="Group_1773" data-name="Group 1773" transform="translate(0)">
        <path id="Path_2240" data-name="Path 2240" d="M321.452,230.865A20.893,20.893,0,0,1,302.394,218.5a.87.87,0,1,1,1.588-.71,19.134,19.134,0,0,0,36.6-7.8.87.87,0,1,1,1.739,0A20.9,20.9,0,0,1,321.452,230.865Z" transform="translate(-302.318 -209.121)" fill="#c21a3a"/>
      </g>
      <g id="Group_1774" data-name="Group 1774" transform="translate(0 7.828)">
        <path id="Path_2241" data-name="Path 2241" d="M303.188,224.058a.87.87,0,0,1-.87-.87v-8.7a.87.87,0,1,1,1.74,0v8.7A.87.87,0,0,1,303.188,224.058Z" transform="translate(-302.318 -213.621)" fill="#c21a3a"/>
      </g>
      <g id="Group_1775" data-name="Group 1775" transform="translate(0 7.828)">
        <path id="Path_2242" data-name="Path 2242" d="M311.885,215.36h-8.7a.87.87,0,0,1,0-1.74h8.7a.87.87,0,0,1,0,1.74Z" transform="translate(-302.318 -213.621)" fill="#c21a3a"/>
      </g>
    </g>
  </g>
</svg>
