<svg xmlns="http://www.w3.org/2000/svg" width="47.586" height="51.451" viewBox="0 0 47.586 51.451">
  <g id="Group_2161" data-name="Group 2161" transform="translate(1 1.073)">
    <g id="Group_2160" data-name="Group 2160">
      <path id="Path_2372" data-name="Path 2372" d="M446.716,496.383a2.146,2.146,0,0,1,0,3.458l-20.646,15.17a2.145,2.145,0,0,1-2.541,0l-20.646-15.17a2.146,2.146,0,0,1,0-3.458" transform="translate(-402.006 -466.124)" fill="#fff" stroke="#c21a3a" stroke-linecap="round" stroke-linejoin="round" stroke-width="2"/>
      <path id="Path_2373" data-name="Path 2373" d="M402.877,464.849a2.146,2.146,0,0,0,0,3.458l2.026,1.49,18.622,13.68a2.146,2.146,0,0,0,2.541,0l18.622-13.68,2.026-1.49a2.146,2.146,0,0,0,0-3.458" transform="translate(-402.003 -441.924)" fill="#fff" stroke="#c21a3a" stroke-linecap="round" stroke-linejoin="round" stroke-width="2"/>
      <path id="Path_2374" data-name="Path 2374" d="M446.716,381.871,426.069,366.7a2.145,2.145,0,0,0-2.541,0l-20.646,15.17a2.146,2.146,0,0,0,0,3.458l2.025,1.49,4.378,3.219L423.529,400.5a2.145,2.145,0,0,0,2.54,0l14.244-10.462,4.378-3.219,2.025-1.49A2.146,2.146,0,0,0,446.716,381.871Z" transform="translate(-402.006 -366.285)" fill="#fff" stroke="#c21a3a" stroke-linecap="round" stroke-linejoin="round" stroke-width="2"/>
    </g>
  </g>
</svg>
