<svg xmlns="http://www.w3.org/2000/svg" width="37.432" height="39" viewBox="0 0 37.432 39">
  <g id="Group_1766" data-name="Group 1766" transform="translate(-709.318 -1013.657)">
    <path id="Path_2236" data-name="Path 2236" d="M741.053,1052.657a.811.811,0,0,1-.488-.163l-12.531-9.4-12.531,9.4a.814.814,0,0,1-1.26-.908l4.707-14.12-9.338-7.782a.814.814,0,0,1,.521-1.439h12.434l4.7-14.09a.846.846,0,0,1,1.543,0l4.7,14.09h12.434a.814.814,0,0,1,.521,1.439l-9.338,7.782,4.707,14.12a.813.813,0,0,1-.771,1.071Zm-13.02-11.392a.809.809,0,0,1,.488.163l10.937,8.2-4.059-12.177a.811.811,0,0,1,.251-.882l8.038-6.7H732.916a.814.814,0,0,1-.772-.557l-4.111-12.331-4.111,12.331a.814.814,0,0,1-.771.557H712.379l8.038,6.7a.811.811,0,0,1,.251.882l-4.057,12.177,10.935-8.2A.813.813,0,0,1,728.034,1041.265Z" transform="translate(0 0)" fill="#c21a3a"/>
  </g>
</svg>
